if (_typeface_js && _typeface_js.loadFace) _typeface_js.loadFace({"glyphs":{"ᴴ":{"x_min":31.203125,"x_max":627.3125,"ha":658,"o":"m 141 1019 l 227 1019 l 182 787 l 495 787 l 540 1020 l 627 1020 l 517 453 l 430 453 l 482 723 l 169 723 l 117 453 l 31 453 l 141 1019 "},"Ҿ":{"x_min":56.671875,"x_max":1241.375,"ha":1291,"o":"m 311 595 q 493 888 369 773 q 862 1031 649 1031 q 1176 888 1080 1031 q 1224 482 1274 740 l 431 482 q 469 196 396 300 q 728 92 542 92 q 914 125 822 92 q 1094 222 1006 158 l 1067 76 q 887 4 982 29 q 695 -20 794 -20 q 350 119 457 -20 q 286 482 248 250 q 105 551 174 482 q 65 775 35 620 l 75 826 l 191 826 l 183 784 q 204 632 160 670 q 311 595 246 595 m 459 595 l 1101 595 q 1051 808 1101 724 q 837 920 985 920 q 581 808 689 920 q 459 595 500 724 m 640 0 l 721 0 q 656 -79 677 -45 q 635 -137 635 -113 q 650 -172 635 -161 q 696 -184 665 -184 q 739 -178 715 -184 q 787 -163 762 -173 l 771 -253 q 722 -265 746 -261 q 677 -269 698 -269 q 572 -243 607 -269 q 537 -166 537 -217 q 563 -89 537 -131 q 640 0 589 -48 "},"ȋ":{"x_min":48.4375,"x_max":514,"ha":386,"o":"m 512 896 l 435 896 l 435 906 q 406 975 435 952 q 319 998 378 998 q 224 973 262 998 q 166 896 187 948 l 87 896 q 173 1040 109 990 q 337 1091 238 1091 q 469 1047 424 1091 q 514 918 514 1003 q 513 906 514 914 q 512 896 512 899 m 196 760 l 321 760 l 173 0 l 48 0 l 196 760 "},"ճ":{"x_min":88.078125,"x_max":881.625,"ha":880,"o":"m 748 368 l 676 0 l 552 0 l 574 116 q 448 13 516 47 q 303 -20 382 -20 q 120 61 170 -20 q 99 299 69 144 l 108 349 q 227 644 140 513 l 166 644 l 188 759 l 321 759 q 515 908 404 842 q 881 1054 712 1023 l 858 936 q 571 819 707 897 q 480 759 522 791 l 537 759 q 733 626 670 759 q 748 368 779 528 m 363 644 q 234 354 266 521 l 224 304 q 235 142 203 194 q 350 89 268 89 q 522 153 451 89 q 615 328 594 217 l 623 368 q 626 536 646 489 q 507 644 580 644 l 363 644 "},"⣌":{"x_min":203,"x_max":813,"ha":1016,"o":"m 203 317 l 406 317 l 406 114 l 203 114 l 203 317 m 610 1085 l 813 1085 l 813 882 l 610 882 l 610 1085 m 203 -68 l 406 -68 l 406 -271 l 203 -271 l 203 -68 m 610 -68 l 813 -68 l 813 -271 l 610 -271 l 610 -68 "},"׃":{"x_min":67.8125,"x_max":341.796875,"ha":410,"o":"m 215 760 l 341 760 l 315 623 l 189 623 l 215 760 m 94 137 l 220 137 l 193 0 l 67 0 l 94 137 "},"𝘳":{"x_min":48.828125,"x_max":642.90625,"ha":571,"o":"m 619 643 q 575 659 600 654 q 523 665 551 665 q 349 589 423 665 q 250 387 274 513 l 173 0 l 48 0 l 197 759 l 322 759 l 298 641 q 416 742 347 706 q 563 778 485 778 q 603 775 583 778 q 642 767 623 773 l 619 643 "},"Ꙫ":{"x_min":64.25,"x_max":1123.890625,"ha":1188,"o":"m 392 568 l 535 568 l 502 396 l 359 396 l 392 568 m 677 568 l 820 568 l 787 396 l 644 396 l 677 568 m 895 122 q 491 -20 726 -20 q 143 122 257 -20 q 77 505 31 264 q 292 888 124 745 q 696 1031 461 1031 q 1044 888 931 1031 q 1110 505 1156 745 q 895 122 1063 264 m 914 808 q 674 920 838 920 q 389 808 509 920 q 233 505 270 697 q 271 202 195 313 q 512 91 347 91 q 796 202 677 91 q 953 505 916 313 q 914 808 990 697 "},"ꙥ":{"x_min":-22.375,"x_max":1256.640625,"ha":1251,"o":"m -22 0 l -2 103 q 179 208 128 123 q 308 635 246 318 l 332 760 l 1256 760 l 1236 660 l 826 660 l 698 0 l 573 0 l 573 0 l 701 660 l 438 660 l 423 584 q 278 156 368 295 q -22 0 190 19 "},"⏥":{"x_min":4.0625,"x_max":1064.046875,"ha":1068,"o":"m 760 181 l 945 540 l 307 540 l 122 181 l 760 181 m 797 104 l 4 104 l 271 617 l 1064 617 l 797 104 "},"ϼ":{"x_min":-31.203125,"x_max":844.109375,"ha":882,"o":"m 59 -98 l 151 372 q 261 624 181 529 q 429 754 315 693 q 598 778 474 778 q 801 668 736 778 q 832 379 866 558 q 689 90 796 200 q 442 -19 581 -19 q 305 14 359 -19 q 226 114 252 46 l 185 -98 l 514 -98 l 491 -213 l 162 -213 l 147 -288 l 22 -288 l 37 -213 l -31 -213 l -8 -98 l 59 -98 m 702 379 q 687 595 729 517 q 547 674 646 674 q 376 595 448 674 q 278 379 304 517 q 292 163 250 241 q 432 85 333 85 q 603 163 531 85 q 702 379 675 241 "},"◦":{"x_min":208,"x_max":611,"ha":819,"o":"m 248 516 q 294 401 248 448 q 409 355 341 355 q 524 401 477 355 q 571 516 571 448 q 524 630 571 583 q 410 677 478 677 q 295 630 342 677 q 248 516 248 583 m 208 516 q 266 658 208 600 q 410 717 325 717 q 552 658 494 717 q 611 516 611 600 q 552 373 611 431 q 409 315 494 315 q 266 373 324 315 q 208 516 208 431 "},"Ⅽ":{"x_min":58,"x_max":964.265625,"ha":969,"o":"m 964 934 l 936 790 q 798 888 871 856 q 640 920 725 920 q 436 864 524 920 q 285 694 349 808 q 223 539 244 621 q 202 374 202 457 q 273 163 202 236 q 481 91 345 91 q 662 121 575 91 q 831 211 749 151 l 799 49 q 636 -2 718 15 q 471 -20 554 -20 q 167 85 276 -20 q 58 380 58 191 q 99 617 58 501 q 218 831 141 734 q 407 982 301 933 q 655 1031 513 1031 q 819 1006 741 1031 q 964 934 897 982 "},"ͅ":{"x_min":-495.671875,"x_max":-349.25,"ha":0,"o":"m -358 -289 l -458 -289 q -489 -266 -476 -289 q -493 -217 -499 -248 l -463 -62 l -362 -62 l -392 -217 q -388 -235 -394 -227 q -373 -244 -382 -244 l -349 -244 l -358 -289 "},"ѕ":{"x_min":15.234375,"x_max":694.328125,"ha":723,"o":"m 694 736 l 670 618 q 566 659 621 645 q 452 673 511 673 q 297 639 354 673 q 241 548 241 605 q 372 445 241 480 q 387 440 382 442 l 427 428 q 594 356 552 394 q 636 252 636 318 q 540 55 636 131 q 288 -20 444 -20 q 161 -8 228 -20 q 15 27 95 2 l 39 155 q 174 102 108 120 q 301 84 240 84 q 450 123 393 84 q 508 223 508 162 q 357 328 508 288 l 344 331 l 301 342 q 163 408 207 367 q 119 513 119 449 q 210 705 119 634 q 458 777 301 777 q 578 766 519 777 q 694 736 637 756 "},"𝘵":{"x_min":89.046875,"x_max":587.71875,"ha":545,"o":"m 587 760 l 568 663 l 319 663 l 239 250 q 233 211 235 226 q 231 186 231 195 q 257 123 231 143 q 340 104 283 104 l 467 104 l 445 0 l 326 0 q 160 43 215 0 q 106 174 106 86 q 108 209 106 190 q 114 250 110 227 l 195 663 l 89 663 l 108 760 l 212 760 l 254 975 l 379 975 l 338 760 l 587 760 "},"⚭":{"x_min":243,"x_max":920,"ha":1163,"o":"m 488 371 q 463 415 473 392 q 446 505 446 458 q 463 598 446 558 q 488 643 473 621 q 479 643 483 643 q 427 632 450 643 q 383 602 400 620 q 354 558 364 581 q 344 506 344 534 q 354 455 344 479 q 383 411 364 429 q 427 381 403 392 q 479 371 451 371 q 488 371 483 371 m 581 292 q 569 286 575 289 q 479 269 528 269 q 389 286 428 269 q 312 338 343 307 q 260 415 278 372 q 243 505 243 458 q 260 598 243 555 q 312 675 278 641 q 389 727 346 708 q 479 745 430 745 q 569 727 530 745 q 581 721 575 724 q 592 727 586 724 q 682 745 633 745 q 773 727 731 745 q 850 675 816 708 q 902 598 884 641 q 920 505 920 555 q 902 415 920 458 q 850 338 883 372 q 773 286 818 307 q 682 269 733 269 q 592 286 633 269 q 581 292 586 289 m 673 371 l 682 371 q 734 381 710 371 q 778 411 756 390 q 808 455 797 429 q 819 506 819 479 q 808 558 819 534 q 778 602 797 585 q 734 632 756 624 q 682 643 710 643 q 673 643 678 643 q 698 598 688 621 q 716 505 716 555 q 698 415 716 458 q 673 371 688 392 m 581 417 q 604 455 595 433 q 615 506 615 479 q 604 558 615 534 q 581 596 595 580 q 557 558 564 576 q 547 506 547 534 q 557 455 547 479 q 581 417 566 433 "},"╲":{"x_min":-73.921875,"x_max":910.109375,"ha":836,"o":"m 910 -419 l 789 -419 l -73 1351 l 46 1351 l 910 -419 "},"◴":{"x_min":76,"x_max":1136,"ha":1212,"o":"m 146 94 q 76 359 76 217 q 146 623 76 500 q 340 818 217 747 q 606 889 463 889 q 871 818 748 889 q 1065 623 994 747 q 1136 359 1136 500 q 1065 94 1136 217 q 871 -99 994 -28 q 606 -171 748 -171 q 340 -99 463 -171 q 146 94 217 -28 m 567 813 q 377 750 472 803 q 164 399 164 629 l 567 399 l 567 813 m 164 322 q 374 -28 164 91 q 601 -94 488 -94 q 828 -28 715 -94 q 1057 360 1057 101 q 830 750 1057 619 q 644 813 737 803 l 644 322 l 164 322 "},"℣":{"x_min":19.671875,"x_max":1135.25,"ha":950,"o":"m 430 573 l 690 1011 l 486 1099 l 531 1175 l 804 1057 l 450 460 l 505 160 l 992 1013 l 1135 1013 l 552 0 l 397 0 l 345 280 l 89 -150 l 19 -120 l 324 392 l 207 1013 l 350 1013 l 430 573 "},"໊":{"x_min":-832.0625,"x_max":32.546875,"ha":0,"o":"m -699 830 q -825 1017 -861 830 q -590 1207 -788 1207 q -522 1163 -556 1207 q -459 1120 -488 1120 q -375 1164 -433 1120 q -269 1207 -318 1207 q -148 1061 -120 1207 q -279 933 -164 975 q -143 941 -190 933 q -71 1022 -88 951 l 32 1022 q -67 871 14 933 q -293 847 -99 847 l -427 847 l -409 937 q -242 1076 -254 1009 q -286 1114 -234 1114 q -354 1075 -301 1114 q -470 1036 -408 1036 q -560 1066 -541 1036 q -609 1114 -594 1114 q -727 1016 -708 1114 q -680 907 -748 907 l -638 908 q -656 972 -669 908 q -579 1033 -644 1033 q -524 960 -509 1033 q -587 857 -539 891 q -699 830 -627 830 "},"≷":{"x_min":141,"x_max":1017,"ha":1163,"o":"m 1011 373 l 359 185 l 1011 0 l 1011 -120 l 141 128 l 141 244 l 1011 493 l 1011 373 m 148 833 l 148 953 l 1017 704 l 1017 588 l 148 339 l 148 459 l 799 645 l 148 833 "},"︢":{"x_min":-288.21875,"x_max":233.296875,"ha":0,"o":"m 212 1090 l 209 1092 l 119 1129 q 50 1149 101 1137 q -2 1156 21 1156 q -111 1131 -71 1156 q -178 1051 -165 1099 l -288 1051 q -181 1192 -267 1142 q 40 1242 -95 1242 q 142 1232 101 1242 q 233 1202 178 1223 l 212 1090 "},"ἣ":{"x_min":78.671875,"x_max":815.0625,"ha":880,"o":"m 648 1111 l 790 857 l 685 857 l 514 1111 l 648 1111 m 267 1006 l 286 1107 l 450 1107 l 429 1000 l 338 1000 q 409 894 318 894 l 396 825 q 267 1006 231 825 m 803 458 l 658 -289 l 533 -289 l 678 454 q 667 615 699 561 q 552 669 636 669 q 379 604 450 669 q 287 429 309 540 l 204 0 l 78 0 l 226 759 l 351 759 l 328 641 q 454 743 386 709 q 600 778 521 778 q 783 697 731 778 q 803 458 834 615 "},"╋":{"x_min":-13,"x_max":850,"ha":837,"o":"m 310 -419 l 310 278 l -13 278 l -13 511 l 310 511 l 310 1351 l 527 1351 l 527 511 l 850 511 l 850 278 l 527 278 l 527 -419 l 310 -419 "},"ԋ":{"x_min":53.703125,"x_max":1242.28125,"ha":1344,"o":"m 857 759 l 756 241 q 754 211 754 225 q 777 135 754 170 q 880 89 810 89 q 1001 142 950 89 q 1074 304 1054 198 l 1117 522 l 1242 522 l 1198 299 q 1084 61 1167 139 q 858 -20 997 -20 q 662 59 723 -20 q 622 173 622 111 q 626 211 622 192 l 652 350 l 246 350 l 178 0 l 53 0 l 201 759 l 326 759 l 265 447 l 671 447 l 732 759 l 857 759 "},"ᓠ":{"x_min":122.609375,"x_max":1484.203125,"ha":1471,"o":"m 149 572 l 288 572 l 260 433 l 122 433 l 149 572 m 674 112 l 652 0 q 416 81 492 0 q 362 237 362 138 q 370 322 362 276 q 502 548 399 472 q 774 625 605 625 l 1484 625 l 1461 510 l 752 510 q 593 460 655 510 q 515 322 532 411 q 509 265 509 292 q 551 161 509 197 q 674 112 608 112 m 814 884 l 952 884 l 926 745 l 787 745 l 814 884 "},"✉":{"x_min":90,"x_max":1075,"ha":1165,"o":"m 688 591 l 986 794 l 178 794 l 476 591 q 487 602 481 597 q 531 632 506 621 q 582 643 555 643 q 634 632 610 643 q 678 602 663 619 q 688 591 684 596 m 715 481 l 1007 284 l 1007 727 l 715 530 q 718 506 718 518 q 715 481 718 493 m 478 421 l 178 217 l 986 217 l 687 421 q 678 411 683 415 q 634 381 658 392 q 582 371 610 371 q 531 381 555 371 q 487 411 506 392 q 478 421 482 415 m 449 531 l 158 727 l 158 284 l 449 480 q 447 506 447 493 q 449 531 447 518 m 90 149 l 90 863 l 1075 863 l 1075 149 l 90 149 "},"⇱":{"x_min":83,"x_max":1094.015625,"ha":1164,"o":"m 1094 1012 l 1094 945 l 150 945 l 150 0 l 83 0 l 83 1012 l 1094 1012 m 279 773 l 321 816 l 699 816 l 699 701 l 475 701 l 1060 116 l 978 34 l 394 619 l 394 395 l 279 395 l 279 773 "},"ᕺ":{"x_min":100.09375,"x_max":1077,"ha":1153,"o":"m 681 89 q 833 144 764 89 q 922 302 903 199 q 929 360 929 333 q 879 472 929 429 q 764 516 829 516 q 606 458 678 516 q 515 302 535 401 q 510 247 510 272 q 561 133 510 177 q 681 89 612 89 m 653 1012 l 568 574 q 786 624 665 624 q 1011 554 945 624 q 1077 387 1077 485 q 1067 302 1077 348 q 921 56 1034 132 q 660 -20 807 -20 q 435 49 500 -20 q 370 216 370 119 q 379 302 370 256 l 491 883 l 190 527 l 100 596 l 457 1012 l 653 1012 m 599 1269 l 737 1269 l 710 1130 l 571 1130 l 599 1269 "},"k":{"x_min":48.828125,"x_max":849.75,"ha":804,"o":"m 254 1055 l 379 1055 l 259 439 l 687 759 l 849 759 l 372 395 l 720 -1 l 569 -1 l 245 370 l 173 0 l 48 0 l 254 1055 "},"ȇ":{"x_min":64,"x_max":793,"ha":855,"o":"m 667 447 q 670 469 669 457 q 672 492 672 481 q 623 623 672 575 q 491 672 575 672 q 327 613 398 672 q 219 447 256 554 l 667 447 m 777 350 l 195 350 q 190 309 191 324 q 189 283 189 294 q 247 137 189 189 q 410 85 305 85 q 564 104 492 85 q 700 157 637 122 l 676 34 q 537 -6 609 7 q 392 -20 465 -20 q 149 55 234 -20 q 64 270 64 131 q 106 491 64 389 q 230 673 148 593 q 356 750 283 723 q 511 777 429 777 q 716 700 640 777 q 793 493 793 623 q 789 426 793 461 q 777 350 785 390 m 769 896 l 692 896 l 692 906 q 663 974 692 951 q 576 997 634 997 q 481 972 518 997 q 423 896 444 947 l 344 896 q 430 1039 366 989 q 594 1090 495 1090 q 726 1046 681 1090 q 771 918 771 1002 q 770 906 771 914 q 769 896 769 899 "},"╾":{"x_min":-13,"x_max":850.4375,"ha":837,"o":"m -13 278 l -13 511 l 432 511 l 432 453 l 850 453 l 850 336 l 432 336 l 432 278 l -13 278 "},"𝍖":{"x_min":115,"x_max":1130,"ha":1245,"o":"m 345 0 l 115 0 l 115 136 l 345 136 l 345 0 m 900 0 l 900 136 l 1130 136 l 1130 0 l 900 0 m 737 0 l 508 0 l 508 136 l 737 136 l 737 0 m 345 260 l 115 260 l 115 396 l 345 396 l 345 260 m 900 260 l 900 396 l 1130 396 l 1130 260 l 900 260 m 737 260 l 508 260 l 508 396 l 737 396 l 737 260 m 345 521 l 115 521 l 115 657 l 345 657 l 345 521 m 900 521 l 900 657 l 1130 657 l 1130 521 l 900 521 m 737 521 l 508 521 l 508 657 l 737 657 l 737 521 m 345 781 l 115 781 l 115 917 l 345 917 l 345 781 m 900 781 l 900 917 l 1130 917 l 1130 781 l 900 781 m 737 781 l 508 781 l 508 917 l 737 917 l 737 781 "},"≚":{"x_min":147,"x_max":1016,"ha":1163,"o":"m 147 631 l 1016 631 l 1016 517 l 147 517 l 147 631 m 147 354 l 1016 354 l 1016 239 l 147 239 l 147 354 m 344 1128 l 457 1128 l 582 807 l 710 1128 l 818 1128 l 643 674 l 521 674 l 344 1128 "},"Ⴣ":{"x_min":79.09375,"x_max":766.625,"ha":754,"o":"m 426 0 l 506 412 q 443 388 472 395 q 383 381 413 381 q 286 401 329 381 q 216 456 243 421 q 180 526 188 491 q 172 586 172 561 q 177 638 172 611 l 185 681 l 79 681 l 103 808 l 350 808 l 329 700 q 319 637 322 662 q 317 600 317 613 q 322 558 317 580 q 347 520 327 536 q 407 504 367 504 q 455 514 432 504 q 498 541 479 524 q 530 583 517 559 q 549 634 544 607 l 628 1042 l 766 1042 l 564 0 l 426 0 "},"☈":{"x_min":115,"x_max":1121.421875,"ha":1244,"o":"m 159 1015 l 1078 1015 q 1121 959 1121 1015 q 1103 918 1121 936 l 713 530 l 1043 201 l 1116 346 l 1116 51 l 815 51 l 971 136 l 613 498 q 603 540 603 509 q 638 593 603 559 l 966 918 l 212 918 l 212 47 q 163 0 212 0 q 115 45 115 0 l 115 976 q 159 1015 115 1015 "},"ჳ":{"x_min":16,"x_max":735.203125,"ha":706,"o":"m 594 -14 q 253 -288 541 -288 q 16 -94 16 -288 q 24 -13 16 -57 l 60 61 l 180 47 l 154 -13 q 148 -72 148 -45 q 275 -192 148 -192 q 466 -13 431 -192 l 470 7 q 477 71 477 43 q 322 210 477 210 l 320 210 l 243 210 l 264 319 l 342 319 q 556 559 508 319 l 565 600 l 287 600 l 260 451 l 143 451 l 189 698 l 735 698 q 462 268 674 393 q 605 67 605 204 q 598 7 605 39 l 594 -14 "},"ꜷ":{"x_min":57,"x_max":1320.84375,"ha":1383,"o":"m 588 124 q 573 101 582 111 q 278 -20 474 -20 q 119 39 181 -20 q 57 191 57 98 q 163 401 57 324 q 455 479 269 479 l 629 479 l 636 512 q 639 544 639 525 q 589 638 639 604 q 451 672 540 672 q 326 656 390 672 q 194 609 262 640 l 216 724 q 354 764 286 751 q 485 777 422 777 q 689 719 619 777 q 760 549 760 661 q 746 432 760 502 l 716 283 q 708 209 708 239 q 743 120 708 151 q 843 89 778 89 q 1016 156 943 89 q 1112 338 1089 223 l 1196 759 l 1320 759 l 1173 0 l 1048 0 l 1074 119 q 948 16 1021 52 q 784 -20 875 -20 q 637 35 693 -20 q 588 124 601 70 m 611 381 l 486 381 q 259 340 333 381 q 185 213 185 299 q 223 119 185 153 q 327 85 261 85 q 505 158 429 85 q 605 353 581 231 l 611 381 "},"▎":{"x_min":-13,"x_max":260,"ha":1068,"o":"m -13 -347 l -13 1069 l 260 1069 l 260 -347 l -13 -347 "},"ƀ":{"x_min":25.765625,"x_max":790.921875,"ha":882,"o":"m 649 378 q 634 594 676 516 q 494 673 593 673 q 323 594 395 673 q 224 378 251 516 q 239 162 198 240 q 379 84 280 84 q 550 162 478 84 q 649 378 622 240 m 276 643 q 395 743 328 711 q 545 777 461 777 q 748 667 683 777 q 778 378 813 557 q 636 89 743 199 q 389 -20 528 -20 q 252 12 306 -20 q 172 113 199 45 l 151 0 l 25 0 l 194 870 l 90 870 l 106 955 l 210 955 l 230 1055 l 356 1055 l 336 955 l 556 955 l 540 870 l 320 870 l 276 643 "},"⎢":{"x_min":119,"x_max":251,"ha":694,"o":"m 119 1070 l 251 1070 l 251 -350 l 119 -350 l 119 1070 "},"∺":{"x_min":146,"x_max":1017,"ha":1163,"o":"m 874 766 l 1017 766 l 1017 594 l 874 594 l 874 766 m 873 280 l 1016 280 l 1016 108 l 873 108 l 873 280 m 147 766 l 290 766 l 290 594 l 147 594 l 147 766 m 146 280 l 289 280 l 289 108 l 146 108 l 146 280 m 147 493 l 1016 493 l 1016 378 l 147 378 l 147 493 "},"Ϋ":{"x_min":87.484375,"x_max":938.59375,"ha":848,"o":"m 87 1013 l 234 1013 l 423 596 l 784 1013 l 938 1013 l 479 482 l 385 0 l 248 0 l 341 482 l 87 1013 m 351 1269 l 490 1269 l 462 1131 l 325 1131 l 351 1269 m 617 1269 l 754 1269 l 728 1131 l 590 1131 l 617 1269 "},"҆":{"x_min":-455.046875,"x_max":-236.6875,"ha":0,"o":"m -256 1006 q -455 826 -290 826 l -441 895 q -330 1000 -351 895 l -420 1000 l -400 1107 l -236 1107 l -256 1006 "},"▥":{"x_min":126,"x_max":1185,"ha":1311,"o":"m 126 -171 l 126 893 l 1185 893 l 1185 -171 l 126 -171 m 990 -92 l 1111 -92 l 1111 814 l 990 814 l 990 -92 m 793 -92 l 912 -92 l 912 814 l 793 814 l 793 -92 m 596 -92 l 716 -92 l 716 814 l 596 814 l 596 -92 m 398 -92 l 519 -92 l 519 814 l 398 814 l 398 -92 m 202 -92 l 321 -92 l 321 814 l 202 814 l 202 -92 "},"╧":{"x_min":-13,"x_max":850,"ha":837,"o":"m -13 220 l -13 337 l 850 337 l 850 220 l -13 220 m -13 453 l -13 570 l 364 570 l 364 1351 l 473 1351 l 473 570 l 850 570 l 850 453 l -13 453 "},"Ḽ":{"x_min":37.296875,"x_max":690.375,"ha":774,"o":"m 285 -79 l 385 -79 l 502 -333 l 408 -333 l 322 -173 l 163 -333 l 69 -333 l 285 -79 m 233 1012 l 370 1012 l 197 114 l 690 114 l 668 0 l 37 0 l 233 1012 "},"8":{"x_min":46,"x_max":823,"ha":883,"o":"m 618 306 q 564 431 618 383 q 423 480 510 480 q 248 416 317 480 q 180 256 180 353 q 232 134 180 179 q 374 89 285 89 q 549 150 481 89 q 618 306 618 212 m 687 778 q 639 882 687 843 q 513 922 592 922 q 360 869 420 922 q 301 738 301 817 q 348 629 301 670 q 473 588 395 588 q 626 641 566 588 q 687 778 687 695 m 594 532 q 711 444 670 503 q 753 301 753 385 q 644 70 753 161 q 364 -20 535 -20 q 132 51 218 -20 q 46 242 46 122 q 119 435 46 350 q 312 542 193 519 q 204 618 241 566 q 167 742 167 669 q 268 948 167 865 q 527 1031 370 1031 q 740 964 658 1031 q 823 793 823 897 q 761 633 823 704 q 594 532 700 563 "},"≭":{"x_min":146,"x_max":1017,"ha":1163,"o":"m 406 236 q 148 145 284 208 l 148 266 q 478 366 327 341 l 546 495 q 146 602 366 495 l 146 723 q 614 608 440 608 l 746 851 l 847 795 l 755 630 q 1015 723 879 658 l 1015 602 q 683 500 838 525 l 616 373 q 1017 266 800 373 l 1017 145 q 548 260 722 260 l 416 17 l 315 72 l 406 236 "},"☊":{"x_min":85,"x_max":1150,"ha":1234,"o":"m 1023 296 q 938 332 988 332 q 852 296 887 332 q 818 211 818 261 q 852 127 818 162 q 938 92 887 92 q 1022 127 987 92 q 1058 211 1058 162 q 1023 296 1058 261 m 296 332 q 211 297 246 332 q 176 212 176 262 q 211 127 176 162 q 296 92 246 92 q 381 127 346 92 q 416 212 416 162 q 381 297 416 262 q 296 332 346 332 m 1055 389 q 1087 363 1072 378 q 1150 212 1150 300 q 1088 62 1150 124 q 938 0 1026 0 q 788 62 850 0 q 727 213 727 125 q 788 365 727 302 q 918 421 843 421 q 1000 603 1000 499 q 886 812 1000 726 q 610 899 773 899 q 334 812 447 899 q 221 604 221 726 q 302 423 221 500 q 446 363 387 423 q 508 212 508 301 q 446 62 508 124 q 296 0 384 0 q 147 62 209 0 q 85 212 85 124 q 146 363 85 300 q 171 385 159 374 q 89 604 89 480 q 240 891 89 772 q 610 1010 392 1010 q 982 891 830 1010 q 1134 604 1134 772 q 1055 389 1134 484 "},"⚈":{"x_min":117,"x_max":1122,"ha":1236,"o":"m 619 1005 q 865 940 745 1005 q 1053 754 985 875 q 1122 502 1122 633 q 1055 252 1122 371 q 869 66 989 132 q 619 0 749 0 q 369 66 489 0 q 183 252 249 132 q 117 502 117 371 q 184 754 117 633 q 371 940 251 875 q 619 1005 492 1005 m 874 418 q 915 428 895 418 q 947 459 936 439 q 959 502 959 480 q 947 544 959 524 q 916 575 936 564 q 874 587 896 587 q 832 575 852 587 q 801 544 812 564 q 790 502 790 524 q 801 459 790 480 q 832 428 812 439 q 874 418 852 418 "},"ນ":{"x_min":-38.65625,"x_max":873.484375,"ha":890,"o":"m 248 599 q 284 609 272 599 q 300 642 295 620 q 295 676 305 667 q 265 686 286 686 q 228 674 240 686 q 213 642 217 663 q 217 608 208 617 q 248 599 226 599 m -38 -11 l -18 91 l 63 91 q 162 124 124 91 q 216 252 197 155 l 263 498 q 99 629 73 498 q 275 790 131 790 q 419 656 445 790 l 330 199 q 461 90 367 90 q 638 206 615 90 l 748 778 l 873 778 l 762 207 q 444 -12 720 -12 q 275 59 312 -12 q 37 -11 192 -11 l -38 -11 "},"𝌱":{"x_min":115,"x_max":1130,"ha":1245,"o":"m 345 260 l 115 260 l 115 396 l 345 396 l 345 260 m 900 260 l 900 396 l 1130 396 l 1130 260 l 900 260 m 737 260 l 508 260 l 508 396 l 737 396 l 737 260 m 119 136 l 519 136 l 523 131 l 523 4 l 519 0 l 119 0 l 115 4 l 115 131 l 119 136 m 716 136 l 1115 136 l 1120 131 l 1120 4 l 1115 0 l 716 0 l 712 4 l 712 131 l 716 136 m 119 657 l 519 657 l 523 652 l 523 525 l 519 521 l 119 521 l 115 525 l 115 652 l 119 657 m 716 657 l 1115 657 l 1120 652 l 1120 525 l 1115 521 l 716 521 l 712 525 l 712 652 l 716 657 m 119 917 l 519 917 l 523 912 l 523 785 l 519 781 l 119 781 l 115 785 l 115 912 l 119 917 m 716 917 l 1115 917 l 1120 912 l 1120 785 l 1115 781 l 716 781 l 712 785 l 712 912 l 716 917 "},"⊳":{"x_min":147,"x_max":1016.125,"ha":1163,"o":"m 262 195 l 846 435 l 262 675 l 262 195 m 147 20 l 147 850 l 1016 491 l 1016 379 l 147 20 "},"⪐":{"x_min":147,"x_max":1016,"ha":1163,"o":"m 1016 475 l 1016 355 q 884 278 944 301 q 757 255 823 255 q 584 294 683 255 l 572 299 q 558 304 568 300 q 389 346 453 346 q 271 320 330 346 q 147 238 213 294 l 147 359 q 278 435 218 412 q 405 459 339 459 q 579 419 479 459 l 589 415 l 604 409 q 773 368 709 368 q 888 393 831 368 q 1016 475 946 418 m 147 642 l 746 786 l 147 929 l 147 1049 l 1016 843 l 1016 728 l 147 522 l 147 642 m 1016 -215 l 1016 -335 l 147 -129 l 147 -14 l 1016 191 l 1016 71 l 416 -71 l 1016 -215 "},"מּ":{"x_min":-14.328125,"x_max":821.859375,"ha":915,"o":"m 428 431 l 530 431 l 509 329 l 408 329 l 428 431 m 602 760 q 821 541 821 760 q 807 411 821 484 l 727 0 l 346 0 l 365 96 l 620 96 l 681 411 q 693 521 693 470 q 672 605 693 573 q 574 663 636 663 q 340 549 421 663 q 226 336 259 436 l 111 0 l -14 0 l 98 336 q 233 580 144 472 l 133 760 l 280 760 l 329 673 q 602 760 450 760 "},"ᶪ":{"x_min":-11.53125,"x_max":234.640625,"ha":326,"o":"m 208 511 l 195 445 q 138 327 179 364 q 18 291 95 291 l -11 291 l 0 351 l 21 351 q 85 369 65 351 q 116 445 107 389 l 120 453 l 41 453 l 155 1044 l 234 1044 l 130 511 l 208 511 "},"˞":{"x_min":-6.78125,"x_max":448.265625,"ha":438,"o":"m 14 588 l 224 699 l 349 699 l 329 599 q 328 462 309 495 q 419 429 347 429 l 448 429 l 427 324 l 384 324 q 219 389 265 324 q 202 585 175 450 l -6 475 l 14 588 "},"‷":{"x_min":124.78125,"x_max":737.84375,"ha":722,"o":"m 534 760 l 475 760 l 328 1013 l 465 1013 l 534 760 m 737 760 l 678 760 l 531 1013 l 669 1013 l 737 760 m 330 760 l 271 760 l 124 1013 l 262 1013 l 330 760 "},"ᔴ":{"x_min":37.984375,"x_max":1069.46875,"ha":1137,"o":"m 931 572 l 1069 572 l 1042 433 l 904 433 l 931 572 m 37 0 l 139 522 l 656 522 l 362 1012 l 499 1012 l 793 524 l 771 407 l 254 407 l 174 0 l 37 0 m 436 1269 l 574 1269 l 547 1130 l 408 1130 l 436 1269 "},"Ϗ":{"x_min":65.78125,"x_max":1030.8125,"ha":911,"o":"m 263 1013 l 400 1013 l 316 584 l 854 1013 l 1030 1013 l 436 540 l 869 0 l 564 -289 l 474 -289 l 710 -25 l 297 487 l 202 0 l 65 0 l 263 1013 "},"⇓":{"x_min":285.234375,"x_max":879.125,"ha":1163,"o":"m 510 198 l 582 127 l 653 198 l 653 1012 l 734 1012 l 734 279 l 797 343 l 879 262 l 612 -5 l 550 -5 l 285 262 l 366 343 l 429 279 l 429 1012 l 510 1012 l 510 198 "},"𝘪":{"x_min":48.828125,"x_max":379.09375,"ha":386,"o":"m 254 1055 l 379 1055 l 348 897 l 223 897 l 254 1055 m 197 759 l 322 759 l 173 0 l 48 0 l 197 759 "},"р":{"x_min":-4.140625,"x_max":817.859375,"ha":882,"o":"m 689 467 q 645 620 689 567 q 520 673 602 673 q 414 644 465 673 q 324 561 364 616 q 263 432 286 508 q 240 281 240 356 q 283 135 240 186 q 406 84 326 84 q 516 111 465 84 q 602 192 566 139 q 665 323 641 248 q 689 467 689 398 m 302 643 q 420 743 352 709 q 572 777 488 777 q 753 700 688 777 q 817 486 817 624 q 777 272 817 374 q 662 89 737 170 q 549 8 612 36 q 416 -20 486 -20 q 280 13 335 -20 q 198 113 225 46 l 120 -289 l -4 -289 l 199 759 l 324 759 l 302 643 "},"Ö":{"x_min":56,"x_max":1038,"ha":1094,"o":"m 633 920 q 435 865 521 920 q 285 698 349 810 q 223 547 244 627 q 202 385 202 467 q 269 167 202 244 q 460 91 336 91 q 658 146 571 91 q 807 310 745 201 q 870 464 848 384 q 892 625 892 545 q 824 842 892 765 q 633 920 756 920 m 456 -20 q 162 90 269 -20 q 56 393 56 201 q 97 617 56 503 q 212 822 139 732 q 404 979 298 927 q 637 1031 510 1031 q 930 921 823 1031 q 1038 622 1038 811 q 997 393 1038 505 q 880 188 956 280 q 689 31 793 83 q 456 -20 584 -20 m 506 1268 l 644 1268 l 616 1130 l 479 1130 l 506 1268 m 771 1268 l 908 1268 l 882 1130 l 744 1130 l 771 1268 "},"Θ":{"x_min":63.109375,"x_max":1030.171875,"ha":1093,"o":"m 324 596 l 803 596 l 781 481 l 302 481 l 324 596 m 842 808 q 627 920 777 920 q 368 808 478 920 q 222 505 259 697 q 251 202 185 313 q 466 91 317 91 q 724 202 615 91 q 870 505 833 313 q 842 808 908 697 m 649 1031 q 962 888 862 1031 q 1015 504 1062 745 q 813 122 968 265 q 444 -20 657 -20 q 131 122 231 -20 q 77 505 31 265 q 280 888 124 745 q 649 1031 436 1031 "},"Ř":{"x_min":37.28125,"x_max":833,"ha":965,"o":"m 349 900 l 280 541 l 457 541 q 624 598 560 541 q 689 747 689 655 q 645 860 689 821 q 522 900 602 900 l 349 900 m 601 486 q 673 436 644 476 q 740 276 702 396 l 826 0 l 682 0 l 602 259 q 532 394 572 360 q 409 428 492 428 l 258 428 l 174 0 l 37 0 l 234 1013 l 542 1013 q 758 949 683 1013 q 833 766 833 886 q 769 583 833 660 q 601 486 705 506 m 585 1105 l 440 1105 l 333 1285 l 424 1285 l 518 1164 l 660 1285 l 762 1285 l 585 1105 "},"ϙ":{"x_min":90.71875,"x_max":812.21875,"ha":850,"o":"m 508 672 q 334 594 408 672 q 234 379 261 515 q 250 164 208 242 q 394 86 293 86 q 567 164 494 86 q 668 379 641 243 q 651 592 693 514 q 508 672 608 672 m 435 -16 l 382 -289 l 267 -289 l 320 -16 q 138 86 194 1 q 103 379 66 192 q 252 672 139 566 q 528 778 365 778 q 764 672 691 778 q 800 379 836 566 q 650 86 763 192 q 435 -16 562 3 "},"⬐":{"x_min":48.921875,"x_max":1066.578125,"ha":1161,"o":"m 316 -4 l 48 262 l 130 344 l 289 185 l 289 493 l 1066 493 l 1066 378 l 404 378 l 404 185 l 561 344 l 642 262 l 376 -4 l 316 -4 "},"ᶼ":{"x_min":11.53125,"x_max":478.78125,"ha":606,"o":"m 105 879 l 478 879 l 466 814 l 111 509 l 406 509 l 396 453 l 395 453 l 394 445 q 394 369 382 387 q 453 351 407 351 l 473 351 l 461 291 l 432 291 q 326 327 354 291 q 315 445 299 364 l 316 453 l 11 453 l 24 517 l 379 823 l 94 823 l 105 879 "},"и":{"x_min":52.21875,"x_max":850.421875,"ha":903,"o":"m 850 760 l 702 0 l 578 0 l 697 610 l 212 0 l 52 0 l 200 760 l 324 760 l 205 151 l 689 760 l 850 760 "},"א":{"x_min":52.21875,"x_max":821.265625,"ha":873,"o":"m 696 760 l 821 760 l 797 639 q 689 393 762 456 q 564 308 617 331 l 709 0 l 562 0 l 364 404 q 278 348 321 392 q 208 159 236 303 l 177 0 l 52 0 l 86 175 q 191 417 122 358 q 310 504 260 476 l 194 760 l 341 760 l 509 408 q 603 464 559 418 q 676 654 648 510 l 696 760 "},"³":{"x_min":22.421875,"x_max":511,"ha":556,"o":"m 145 1007 q 244 1025 202 1019 q 324 1031 287 1031 q 460 995 409 1031 q 511 901 511 959 q 472 810 511 849 q 368 759 433 772 q 445 717 418 749 q 473 636 473 685 q 397 496 473 550 q 197 443 321 443 q 109 450 153 443 q 22 470 65 457 l 38 552 q 112 525 74 534 q 193 517 150 517 q 323 548 276 517 q 371 635 371 579 q 338 698 371 677 q 238 720 305 720 l 180 720 l 196 793 l 258 793 q 366 817 327 793 q 405 885 405 841 q 377 939 405 921 q 294 957 349 957 q 214 949 256 957 q 130 929 172 942 l 145 1007 "},"♬":{"x_min":127.453125,"x_max":1117,"ha":1245,"o":"m 1114 1012 l 1117 1009 l 1117 147 q 939 2 1117 2 q 769 106 781 2 q 927 205 769 205 q 1054 169 1001 205 l 1057 169 l 1057 617 l 472 617 l 472 157 q 305 -7 472 17 l 302 -7 q 127 116 127 -7 q 287 203 127 203 q 415 164 355 203 l 415 1012 l 1114 1012 m 474 872 l 474 766 l 1057 766 l 1057 872 l 474 872 "},"͘":{"x_min":31.875,"x_max":197.34375,"ha":0,"o":"m 59 1052 l 197 1052 l 170 914 l 31 914 l 59 1052 "},"ᶣ":{"x_min":75.71875,"x_max":532.359375,"ha":562,"o":"m 81 620 l 131 877 l 210 877 l 160 622 q 169 532 149 562 q 242 502 189 502 q 350 538 306 502 q 406 636 394 574 l 453 878 l 532 878 l 418 291 l 339 291 l 383 517 q 305 460 347 479 q 214 442 264 442 q 98 487 132 442 q 81 620 64 532 "},"⣟":{"x_min":203,"x_max":813,"ha":1016,"o":"m 203 1085 l 406 1085 l 406 882 l 203 882 l 203 1085 m 203 701 l 406 701 l 406 498 l 203 498 l 203 701 m 203 317 l 406 317 l 406 114 l 203 114 l 203 317 m 610 1085 l 813 1085 l 813 882 l 610 882 l 610 1085 m 610 701 l 813 701 l 813 498 l 610 498 l 610 701 m 203 -68 l 406 -68 l 406 -271 l 203 -271 l 203 -68 m 610 -68 l 813 -68 l 813 -271 l 610 -271 l 610 -68 "},"Ρ":{"x_min":36.921875,"x_max":834,"ha":837,"o":"m 234 1013 l 550 1013 q 761 948 688 1013 q 834 759 834 884 q 727 499 834 592 q 426 407 620 407 l 253 407 l 174 0 l 36 0 l 234 1013 m 349 900 l 276 520 l 448 520 q 627 579 565 520 q 690 750 690 639 q 647 860 690 821 q 528 900 605 900 l 349 900 "},"⣥":{"x_min":203,"x_max":813,"ha":1016,"o":"m 203 1085 l 406 1085 l 406 882 l 203 882 l 203 1085 m 203 317 l 406 317 l 406 114 l 203 114 l 203 317 m 610 317 l 813 317 l 813 114 l 610 114 l 610 317 m 203 -68 l 406 -68 l 406 -271 l 203 -271 l 203 -68 m 610 -68 l 813 -68 l 813 -271 l 610 -271 l 610 -68 "},"Ṙ":{"x_min":37.28125,"x_max":833,"ha":965,"o":"m 497 1269 l 634 1269 l 608 1130 l 469 1130 l 497 1269 m 349 900 l 280 541 l 457 541 q 624 598 560 541 q 689 747 689 655 q 645 860 689 821 q 522 900 602 900 l 349 900 m 601 486 q 673 436 644 476 q 740 276 702 396 l 826 0 l 682 0 l 602 259 q 532 394 572 360 q 409 428 492 428 l 258 428 l 174 0 l 37 0 l 234 1013 l 542 1013 q 758 949 683 1013 q 833 766 833 886 q 769 583 833 660 q 601 486 705 506 "},"ᴄ":{"x_min":64,"x_max":745.34375,"ha":764,"o":"m 745 730 l 720 606 q 624 655 675 639 q 520 672 574 672 q 406 650 460 672 q 316 591 352 629 q 225 452 257 532 q 194 288 194 373 q 245 136 194 186 q 400 85 296 85 q 510 101 452 85 q 631 148 568 117 l 607 24 q 496 -8 553 2 q 378 -20 438 -20 q 145 55 226 -20 q 64 271 64 131 q 106 489 64 389 q 232 667 148 588 q 366 749 289 722 q 533 777 442 777 q 638 765 586 777 q 745 730 691 754 "},"š":{"x_min":15.234375,"x_max":726.875,"ha":723,"o":"m 694 736 l 670 618 q 566 659 621 645 q 452 673 511 673 q 297 639 354 673 q 241 548 241 605 q 372 445 241 480 q 387 440 382 442 l 427 428 q 594 356 552 394 q 636 252 636 318 q 540 55 636 131 q 288 -20 444 -20 q 161 -8 228 -20 q 15 27 95 2 l 39 155 q 174 102 108 120 q 301 84 240 84 q 450 123 393 84 q 508 223 508 162 q 357 328 508 288 l 344 331 l 301 342 q 163 408 207 367 q 119 513 119 449 q 210 705 119 634 q 458 777 301 777 q 578 766 519 777 q 694 736 637 756 m 509 856 l 409 856 l 293 1110 l 388 1110 l 474 949 l 631 1111 l 726 1111 l 509 856 "},"┭":{"x_min":-13,"x_max":850.75,"ha":837,"o":"m 364 -419 l 364 278 l -13 278 l -13 511 l 473 511 l 473 453 l 850 453 l 850 336 l 473 336 l 473 -419 l 364 -419 "},"┉":{"x_min":-13,"x_max":851,"ha":837,"o":"m -13 278 l -13 511 l 115 511 l 115 278 l -13 278 m 237 278 l 237 511 l 358 511 l 358 278 l 237 278 m 480 278 l 480 511 l 601 511 l 601 278 l 480 278 m 723 278 l 723 511 l 851 511 l 851 278 l 723 278 "},"ᐸ":{"x_min":65.78125,"x_max":1030.140625,"ha":1013,"o":"m 857 123 l 833 0 l 65 428 l 95 583 l 1030 1012 l 1005 885 l 185 506 l 857 123 "},"ჟ":{"x_min":11,"x_max":735.359375,"ha":727,"o":"m 591 -12 q 250 -287 540 -287 q 11 -105 11 -287 q 17 -38 11 -73 l 148 -38 q 143 -86 143 -64 q 265 -192 143 -192 q 468 -10 433 -192 l 588 603 l 318 568 l 314 547 q 420 384 420 498 q 413 325 420 357 q 48 118 373 118 l 70 231 q 306 325 289 231 q 312 374 312 351 q 135 566 312 511 l 149 640 l 735 728 l 591 -12 "},"1":{"x_min":67.8125,"x_max":673.421875,"ha":884,"o":"m 90 115 l 314 115 l 465 894 l 212 845 l 236 963 l 487 1012 l 625 1012 l 450 115 l 673 115 l 651 0 l 67 0 l 90 115 "},"ᕗ":{"x_min":-11.96875,"x_max":952.625,"ha":1009,"o":"m 278 671 q 336 691 312 671 q 364 735 359 712 q 366 749 366 742 q 352 787 366 770 q 304 810 334 810 q 246 794 270 810 q 215 735 223 778 q 213 719 213 726 q 225 686 213 698 q 278 671 243 671 m 471 711 q 385 602 450 645 q 256 559 321 559 q 138 613 182 559 q 104 705 104 655 q 106 735 104 719 q 193 875 125 831 q 308 919 260 919 q 397 893 352 919 l 952 583 l 922 428 l -11 0 l 12 123 l 833 506 l 471 711 "},"בֿ":{"x_min":-14.546875,"x_max":730.296875,"ha":845,"o":"m 264 970 l 671 970 l 650 868 l 243 868 l 264 970 m 555 429 q 568 539 568 493 q 553 612 568 585 q 435 663 526 663 l 149 663 l 168 760 l 453 760 q 661 677 607 760 q 693 555 693 627 q 678 411 693 484 l 617 97 l 730 97 l 711 0 l -14 0 l 4 97 l 491 97 l 555 429 "},"צ":{"x_min":-28.484375,"x_max":754.796875,"ha":807,"o":"m 119 759 l 267 759 l 439 408 q 537 463 493 417 q 609 654 581 510 l 630 759 l 754 759 l 731 638 q 621 393 696 460 q 483 307 547 327 l 642 0 l -28 0 l -9 96 l 443 96 l 119 759 "},"⟻":{"x_min":67.34375,"x_max":1911,"ha":1990,"o":"m 1796 378 l 257 378 l 415 219 l 333 138 l 67 405 l 67 465 l 333 732 l 415 651 l 257 493 l 1796 493 l 1796 727 l 1911 727 l 1911 144 l 1796 144 l 1796 378 "},"♏":{"x_min":46.921875,"x_max":1199.375,"ha":1246,"o":"m 868 183 q 903 65 868 108 q 998 23 938 23 l 1059 23 l 1059 103 l 1061 103 l 1199 -14 l 1061 -132 l 1059 -130 l 1059 -50 l 998 -50 q 815 31 861 -50 q 775 161 775 81 l 775 697 q 740 912 775 912 q 652 838 699 912 q 561 628 605 764 l 561 0 l 459 0 l 459 625 q 448 879 459 843 q 413 915 438 915 q 324 838 385 915 q 251 616 263 761 l 251 0 l 150 0 l 150 738 q 46 997 150 867 l 143 997 q 247 824 223 943 q 325 951 263 887 q 433 1015 387 1015 q 516 947 476 1015 q 556 793 556 880 q 651 944 584 874 q 769 1015 718 1015 q 840 958 812 1015 q 868 753 868 901 l 868 616 l 868 184 l 868 183 "},"ᵈ":{"x_min":27.03125,"x_max":534.390625,"ha":563,"o":"m 410 813 l 455 1044 l 534 1044 l 419 453 l 341 453 l 353 516 q 280 460 320 478 q 185 442 238 442 q 56 503 99 442 q 33 665 13 564 q 119 827 52 765 q 272 888 185 888 q 359 869 325 888 q 410 813 393 851 m 172 785 q 114 665 129 742 q 126 544 99 587 q 216 500 153 500 q 322 544 278 500 q 382 665 367 587 q 369 785 397 742 q 280 830 342 830 q 172 785 217 830 "},"˕":{"x_min":204.8125,"x_max":529.65625,"ha":694,"o":"m 204 521 l 224 623 l 529 623 l 509 521 l 408 521 l 368 317 l 266 317 l 306 521 l 204 521 "},"ḽ":{"x_min":-170.21875,"x_max":379.09375,"ha":386,"o":"m 46 -79 l 146 -79 l 263 -334 l 168 -334 l 82 -173 l -75 -334 l -170 -334 l 46 -79 m 254 1055 l 379 1055 l 173 0 l 48 0 l 254 1055 "},"𝟘":{"x_min":92,"x_max":792,"ha":884,"o":"m 181 896 q 441 1031 271 1031 q 701 896 611 1031 q 792 505 792 761 q 701 114 792 249 q 441 -20 611 -20 q 181 114 271 -20 q 92 505 92 249 q 181 896 92 761 m 586 90 q 724 505 724 187 q 586 920 724 823 l 586 90 m 518 952 q 441 963 483 963 q 365 952 400 963 l 365 58 q 441 48 400 48 q 518 58 483 48 l 518 952 m 297 920 q 160 505 160 822 q 297 90 160 188 l 297 920 "},"ᓌ":{"x_min":37,"x_max":1064.765625,"ha":1183,"o":"m 353 115 q 517 171 459 115 q 589 302 575 227 q 596 360 596 333 q 553 466 596 430 q 432 517 496 517 q 289 466 367 517 q 189 302 212 416 q 185 254 185 276 q 214 163 185 199 q 353 115 256 115 m 331 0 q 89 76 161 0 q 37 223 37 131 q 45 302 37 260 q 184 544 76 463 q 453 626 293 626 q 689 544 613 626 q 744 388 744 486 q 735 302 744 348 q 646 115 712 187 l 1063 115 l 1041 0 l 331 0 m 926 572 l 1064 572 l 1037 433 l 899 433 l 926 572 "},"ī":{"x_min":48.828125,"x_max":529.65625,"ha":386,"o":"m 197 760 l 322 760 l 173 0 l 48 0 l 197 760 m 124 1034 l 529 1034 l 509 934 l 104 934 l 124 1034 "},"∐":{"x_min":106,"x_max":945,"ha":1051,"o":"m 106 -267 l 106 998 l 268 998 l 268 -128 l 782 -128 l 782 998 l 945 998 l 945 -267 l 106 -267 "},"̢":{"x_min":-480.6875,"x_max":-96.984375,"ha":0,"o":"m -450 86 l -325 86 l -344 -13 q -345 -150 -364 -117 q -254 -183 -326 -183 l -96 -183 l -117 -289 l -289 -289 q -455 -223 -412 -289 q -469 -13 -497 -158 l -450 86 "},"Բ":{"x_min":20.34375,"x_max":931.28125,"ha":1017,"o":"m 158 0 l 20 0 l 143 631 q 299 930 181 829 q 609 1032 417 1032 q 878 930 798 1032 q 918 632 957 832 l 910 593 l 773 593 l 777 615 q 764 849 809 777 q 587 921 718 921 q 382 849 455 921 q 277 615 309 777 l 257 509 l 663 509 q 817 447 764 509 q 847 269 870 385 l 838 221 l 733 221 l 739 255 q 726 356 753 328 q 640 390 695 390 l 233 390 l 158 0 "},"ꞁ":{"x_min":29.15625,"x_max":357.390625,"ha":386,"o":"m 299 778 l 299 778 m 232 760 l 357 760 l 153 -289 l 29 -289 l 232 760 "},"Ễ":{"x_min":37.296875,"x_max":876.1875,"ha":878,"o":"m 234 1013 l 874 1013 l 852 898 l 348 898 l 290 597 l 773 597 l 751 482 l 267 482 l 197 115 l 712 115 l 690 0 l 37 0 l 234 1013 m 627 1329 l 603 1346 l 602 1347 q 547 1369 573 1369 q 506 1351 524 1369 q 476 1301 488 1334 l 391 1301 q 456 1411 415 1374 q 556 1449 498 1449 q 600 1441 579 1449 q 645 1417 621 1434 l 667 1400 q 692 1386 679 1390 q 718 1382 705 1382 q 764 1400 745 1382 q 791 1449 783 1418 l 876 1449 q 811 1338 853 1375 q 706 1301 769 1301 q 666 1308 685 1301 q 627 1329 648 1315 m 539 1289 l 685 1289 l 792 1109 l 701 1109 l 606 1229 l 464 1109 l 362 1109 l 539 1289 "},"ˣ":{"x_min":37.984375,"x_max":575.765625,"ha":616,"o":"m 575 878 l 362 671 l 501 453 l 409 453 l 302 619 l 130 453 l 37 453 l 267 675 l 136 878 l 229 878 l 326 726 l 482 878 l 575 878 "},"❉":{"x_min":66,"x_max":1098,"ha":1164,"o":"m 690 617 q 735 509 735 572 q 690 401 735 446 q 582 357 645 357 q 474 401 519 357 q 430 509 430 446 q 474 617 430 572 q 582 662 519 662 q 690 617 645 662 m 195 178 l 397 380 l 454 322 l 253 121 l 195 178 m 709 693 l 910 894 l 968 836 l 767 635 l 709 693 m 253 894 l 454 693 l 397 635 l 195 836 l 253 894 m 767 380 l 968 178 l 910 121 l 709 322 l 767 380 m 691 925 q 704 854 704 892 q 691 783 704 816 q 650 722 676 745 q 582 695 619 695 q 513 722 544 695 q 472 783 487 745 q 460 854 460 816 q 472 925 460 892 q 513 986 487 963 q 582 1014 544 1014 q 650 986 619 1014 q 691 925 676 963 m 691 212 q 704 141 704 179 q 691 70 704 103 q 650 9 676 32 q 582 -18 619 -18 q 513 9 544 -18 q 472 70 487 32 q 460 141 460 103 q 472 212 460 179 q 513 273 487 250 q 582 301 544 301 q 650 273 619 301 q 691 212 676 250 m 154 607 q 225 620 187 620 q 296 607 263 620 q 357 566 334 592 q 385 498 385 535 q 357 429 385 460 q 296 388 334 403 q 225 376 263 376 q 154 388 187 376 q 93 429 116 403 q 66 498 66 460 q 93 566 66 535 q 154 607 116 592 m 867 607 q 938 620 900 620 q 1009 607 976 620 q 1070 566 1047 592 q 1098 498 1098 535 q 1070 429 1098 460 q 1009 388 1047 403 q 938 376 976 376 q 867 388 900 376 q 806 429 829 403 q 779 498 779 460 q 806 566 779 535 q 867 607 829 592 "},"𝌸":{"x_min":115,"x_max":1130,"ha":1245,"o":"m 345 521 l 115 521 l 115 657 l 345 657 l 345 521 m 900 521 l 900 657 l 1130 657 l 1130 521 l 900 521 m 737 521 l 508 521 l 508 657 l 737 657 l 737 521 m 345 0 l 115 0 l 115 136 l 345 136 l 345 0 m 900 0 l 900 136 l 1130 136 l 1130 0 l 900 0 m 737 0 l 508 0 l 508 136 l 737 136 l 737 0 m 119 396 l 519 396 l 523 391 l 523 264 l 519 260 l 119 260 l 115 264 l 115 391 l 119 396 m 716 396 l 1115 396 l 1120 391 l 1120 264 l 1115 260 l 716 260 l 712 264 l 712 391 l 716 396 m 119 917 l 519 917 l 523 912 l 523 785 l 519 781 l 119 781 l 115 785 l 115 912 l 119 917 m 716 917 l 1115 917 l 1120 912 l 1120 785 l 1115 781 l 716 781 l 712 785 l 712 912 l 716 917 "},"╝":{"x_min":-13.546875,"x_max":581,"ha":837,"o":"m -13 453 l -13 570 l 255 570 l 255 1351 l 364 1351 l 364 453 l -13 453 m -13 220 l -13 337 l 472 337 l 472 1351 l 581 1351 l 581 220 l -13 220 "},"❒":{"x_min":83,"x_max":1163,"ha":1246,"o":"m 1039 56 l 1039 956 l 139 956 l 139 56 l 1039 56 m 1095 0 l 83 0 l 83 1012 l 170 1080 l 1163 1080 l 1163 87 l 1095 0 "},"╄":{"x_min":-13.8125,"x_max":850,"ha":837,"o":"m 363 -419 l 363 278 l 309 278 l 309 336 l -13 336 l -13 453 l 309 453 l 309 1351 l 526 1351 l 526 511 l 850 511 l 850 278 l 472 278 l 472 -419 l 363 -419 "},"⢣":{"x_min":203,"x_max":813,"ha":1016,"o":"m 203 1085 l 406 1085 l 406 882 l 203 882 l 203 1085 m 203 701 l 406 701 l 406 498 l 203 498 l 203 701 m 610 317 l 813 317 l 813 114 l 610 114 l 610 317 m 610 -68 l 813 -68 l 813 -271 l 610 -271 l 610 -68 "},"ƽ":{"x_min":-22.375,"x_max":764.296875,"ha":802,"o":"m 416 323 q 567 284 487 323 q 672 182 628 255 q 695 18 714 111 q 624 -142 675 -84 l 600 -170 q 547 -214 582 -189 q 238 -296 428 -296 q 109 -283 174 -296 q -22 -245 44 -270 l 3 -113 q 118 -164 54 -147 q 257 -181 183 -181 q 462 -130 385 -181 q 559 18 540 -79 q 524 158 577 109 q 358 209 470 209 l 118 209 l 141 323 l 141 323 l 228 759 l 764 759 l 741 644 l 330 644 l 266 323 l 416 323 "},"↢":{"x_min":68,"x_max":1084.578125,"ha":1164,"o":"m 68 405 l 68 465 l 334 732 l 415 651 l 257 493 l 763 493 l 1003 732 l 1084 651 l 868 435 l 1084 219 l 1003 138 l 763 378 l 257 378 l 415 219 l 334 138 l 68 405 "},"⧓":{"x_min":147,"x_max":1242,"ha":1389,"o":"m 147 -42 l 147 912 l 694 511 l 1242 912 l 1242 -42 l 694 358 l 147 -42 "},"ᾯ":{"x_min":151.90625,"x_max":1276.1875,"ha":1322,"o":"m 769 -289 l 668 -289 q 637 -266 651 -289 q 633 -217 627 -248 l 663 -62 l 764 -62 l 734 -217 q 738 -235 733 -227 q 754 -244 744 -244 l 777 -244 l 769 -289 m 387 1169 l 364 1186 l 363 1187 q 308 1209 334 1209 q 267 1191 285 1209 q 236 1141 248 1174 l 151 1141 q 217 1251 175 1214 q 316 1289 259 1289 q 361 1281 340 1289 q 406 1257 381 1274 l 427 1240 q 453 1226 440 1230 q 479 1222 465 1222 q 525 1240 505 1222 q 552 1289 544 1258 l 636 1289 q 572 1178 614 1215 q 467 1141 529 1141 q 427 1148 446 1141 q 387 1169 408 1155 m 249 1007 l 269 1108 l 432 1108 l 411 1001 l 320 1001 q 391 895 300 895 l 378 826 q 249 1007 214 826 m 1193 121 l 1169 0 l 762 0 l 786 121 q 1008 299 919 186 q 1123 548 1097 411 q 1085 809 1155 711 q 868 908 1014 908 q 613 809 721 908 q 472 548 503 710 q 491 299 445 411 q 644 121 537 186 l 621 0 l 214 0 l 238 121 l 454 121 q 335 316 365 215 q 330 542 306 417 q 528 891 372 757 q 891 1025 684 1025 q 1201 891 1096 1025 q 1264 548 1305 758 q 1171 316 1239 417 q 976 121 1104 216 l 1193 121 "},"⢈":{"x_min":610,"x_max":813,"ha":1016,"o":"m 610 1085 l 813 1085 l 813 882 l 610 882 l 610 1085 m 610 -68 l 813 -68 l 813 -271 l 610 -271 l 610 -68 "},"p":{"x_min":-4.140625,"x_max":817.859375,"ha":882,"o":"m 689 467 q 645 620 689 567 q 520 673 602 673 q 414 644 465 673 q 324 561 364 616 q 263 432 286 508 q 240 281 240 356 q 283 135 240 186 q 406 84 326 84 q 516 111 465 84 q 602 192 566 139 q 665 323 641 248 q 689 467 689 398 m 302 643 q 420 743 352 709 q 572 777 488 777 q 753 700 688 777 q 817 486 817 624 q 777 272 817 374 q 662 89 737 170 q 549 8 612 36 q 416 -20 486 -20 q 280 13 335 -20 q 198 113 225 46 l 120 -289 l -4 -289 l 199 759 l 324 759 l 302 643 "},"Ἤ":{"x_min":73.25,"x_max":1388.890625,"ha":1426,"o":"m 517 1111 l 652 1111 l 381 856 l 277 856 l 517 1111 m 271 1007 q 73 826 236 826 l 86 895 q 197 1001 177 895 l 107 1001 l 128 1108 l 291 1108 l 271 1007 m 616 1012 l 754 1012 l 673 597 l 1170 597 l 1251 1013 l 1388 1013 l 1191 0 l 1053 0 l 1148 482 l 651 482 l 556 0 l 419 0 l 616 1012 "},"Ѹ":{"x_min":85,"x_max":1411.875,"ha":1378,"o":"m 1411 760 l 916 -70 q 779 -247 834 -208 q 637 -289 721 -289 l 537 -289 l 557 -185 l 630 -185 q 715 -160 682 -185 q 801 -45 745 -138 l 926 165 l 804 760 l 936 760 l 1025 332 l 1279 760 l 1411 760 m 752 505 q 621 167 714 308 q 326 -20 500 -20 q 135 86 196 -20 q 85 321 85 173 q 103 505 85 410 q 234 843 142 701 q 530 1031 357 1031 q 771 691 771 1031 q 752 505 771 601 m 607 505 q 639 739 639 667 q 508 920 639 920 q 316 761 386 920 q 247 505 282 682 q 217 273 217 346 q 347 91 217 91 q 539 249 470 91 q 607 505 572 327 "},"䷯":{"x_min":115,"x_max":1120,"ha":1245,"o":"m 119 574 l 518 574 l 523 569 l 523 442 l 518 438 l 119 438 l 115 442 l 115 569 l 119 574 m 716 574 l 1115 574 l 1120 569 l 1120 442 l 1115 438 l 716 438 l 712 442 l 712 569 l 716 574 m 119 793 l 1115 793 l 1120 788 l 1120 661 l 1115 657 l 119 657 l 115 661 l 115 788 l 119 793 m 119 1013 l 518 1013 l 523 1008 l 523 881 l 518 877 l 119 877 l 115 881 l 115 1008 l 119 1013 m 716 1013 l 1115 1013 l 1120 1008 l 1120 881 l 1115 877 l 716 877 l 712 881 l 712 1008 l 716 1013 m 119 -84 l 518 -84 l 523 -88 l 523 -215 l 518 -220 l 119 -220 l 115 -215 l 115 -88 l 119 -84 m 716 -84 l 1115 -84 l 1120 -88 l 1120 -215 l 1115 -220 l 716 -220 l 712 -215 l 712 -88 l 716 -84 m 119 135 l 1115 135 l 1120 130 l 1120 3 l 1115 -1 l 119 -1 l 115 3 l 115 130 l 119 135 m 119 355 l 1115 355 l 1120 350 l 1120 223 l 1115 219 l 119 219 l 115 223 l 115 350 l 119 355 "},"ⱡ":{"x_min":-22.375,"x_max":403.515625,"ha":386,"o":"m 245 475 l 365 475 l 346 377 l 226 377 l 153 0 l 28 0 l 101 377 l -22 377 l -3 475 l 120 475 l 139 572 l 15 572 l 34 670 l 158 670 l 233 1055 l 358 1055 l 283 670 l 403 670 l 384 572 l 264 572 l 245 475 "},"►":{"x_min":4,"x_max":1063.984375,"ha":1068,"o":"m 4 14 l 4 706 l 1063 360 l 4 14 "},"Ӭ":{"x_min":-8.140625,"x_max":906.59375,"ha":970,"o":"m 379 1268 l 518 1268 l 490 1130 l 353 1130 l 379 1268 m 644 1268 l 781 1268 l 756 1130 l 618 1130 l 644 1268 m 502 1031 q 834 890 729 1031 q 891 505 939 749 q 684 120 844 261 q 297 -20 524 -20 q -8 78 116 -20 l 19 221 q 311 93 138 93 q 590 189 491 93 q 735 448 689 285 l 194 448 l 217 563 l 758 563 q 713 821 775 724 q 472 918 651 918 q 130 789 298 918 l 158 934 q 502 1031 318 1031 "},"῭":{"x_min":255.671875,"x_max":684.953125,"ha":694,"o":"m 430 1358 l 572 1105 l 467 1105 l 297 1358 l 430 1358 m 282 1053 l 421 1053 l 393 916 l 255 916 l 282 1053 m 547 1053 l 684 1053 l 658 916 l 520 916 l 547 1053 "},"ບ":{"x_min":10.71875,"x_max":847.03125,"ha":823,"o":"m 269 697 q 233 686 244 697 q 217 653 221 675 q 221 619 212 628 q 252 610 230 610 q 288 621 277 610 q 303 653 300 633 q 300 687 309 678 q 269 697 290 697 m 15 216 q 196 512 47 378 q 102 661 77 537 q 283 793 128 793 q 418 664 444 793 q 248 414 394 546 q 145 227 168 341 q 345 90 120 90 q 627 290 589 90 l 722 776 l 847 776 l 752 290 q 326 -12 694 -12 q 15 216 -28 -12 "},"ϕ":{"x_min":62.921875,"x_max":847.484375,"ha":916,"o":"m 649 1055 l 594 775 q 799 671 729 775 q 835 379 871 565 q 685 86 798 192 q 440 -17 575 -17 l 387 -289 l 263 -289 l 316 -17 q 110 86 181 -17 q 75 379 38 192 q 224 671 111 565 q 469 775 335 775 l 524 1055 l 649 1055 m 461 94 q 604 163 538 94 q 703 379 676 241 q 687 594 731 514 q 572 664 649 664 l 461 94 m 337 94 l 448 664 q 306 594 372 664 q 206 379 232 514 q 223 163 181 241 q 337 94 261 94 "},"y":{"x_min":-34.59375,"x_max":837.53125,"ha":822,"o":"m 344 -70 q 203 -252 257 -216 q 63 -289 148 -289 l -34 -289 l -13 -185 l 58 -185 q 147 -156 110 -185 q 229 -45 183 -128 l 267 27 l 99 759 l 231 759 l 358 177 l 706 760 l 837 760 l 344 -70 "},"Ⴌ":{"x_min":-12.40625,"x_max":791.53125,"ha":813,"o":"m 512 0 l 576 331 q 581 374 581 354 q 575 421 581 394 q 548 476 569 448 q 495 520 528 504 q 422 537 463 537 q 343 522 380 537 q 271 482 307 508 q 189 341 206 426 l 123 0 l -12 0 l 125 708 q 175 839 138 778 q 266 945 212 899 q 385 1016 320 990 q 521 1043 450 1043 l 791 1043 l 767 920 l 497 920 q 416 903 455 920 q 346 858 377 886 q 292 790 314 829 q 261 708 269 752 l 239 595 q 447 661 350 661 q 572 635 516 661 q 663 565 627 610 q 710 475 699 520 q 721 396 721 429 q 714 331 721 365 l 650 0 l 512 0 "},"ḓ":{"x_min":56.53125,"x_max":887.8125,"ha":882,"o":"m 273 -79 l 373 -79 l 489 -334 l 395 -334 l 309 -173 l 151 -334 l 56 -334 l 273 -79 m 580 113 q 462 13 530 47 q 310 -20 393 -20 q 130 57 196 -20 q 64 270 64 135 q 104 485 64 383 q 219 668 144 587 q 333 749 270 721 q 465 778 396 778 q 594 742 538 778 q 680 641 650 707 l 762 1055 l 887 1055 l 682 0 l 557 0 l 580 113 m 194 292 q 238 139 194 194 q 361 84 282 84 q 469 112 419 84 q 557 195 519 140 q 619 327 596 252 q 643 474 643 401 q 598 622 643 569 q 476 675 554 675 q 366 647 417 675 q 280 566 315 619 q 217 435 240 510 q 194 292 194 361 "},"∵":{"x_min":82,"x_max":801,"ha":883,"o":"m 82 839 l 225 839 l 225 667 l 82 667 l 82 839 m 658 839 l 801 839 l 801 667 l 658 667 l 658 839 m 370 311 l 513 311 l 513 139 l 370 139 l 370 311 "},"б":{"x_min":44,"x_max":810.46875,"ha":856,"o":"m 601 86 q 324 -20 487 -20 q 92 83 161 -20 q 44 265 44 153 q 54 378 44 317 l 80 534 q 97 642 92 615 q 173 831 119 751 q 377 1011 259 957 q 673 1066 494 1066 q 794 1078 756 1066 l 810 980 q 744 957 774 957 l 572 957 q 428 918 486 957 q 245 735 278 838 l 233 697 q 489 777 337 777 q 714 672 642 777 q 763 494 763 601 q 750 378 763 441 q 601 86 714 192 m 601 592 q 459 672 559 672 q 286 593 359 672 q 186 378 212 515 q 176 269 176 326 q 202 163 176 212 q 345 85 245 85 q 518 164 445 85 q 618 378 592 243 q 629 487 629 430 q 601 592 629 543 "},"☻":{"x_min":115,"x_max":1130,"ha":1245,"o":"m 115 506 q 263 866 115 717 q 622 1015 412 1015 q 981 866 833 1015 q 1130 506 1130 717 q 981 147 1130 295 q 622 0 833 0 q 263 147 412 0 q 115 506 115 295 m 383 502 l 337 502 q 618 212 337 212 q 908 504 908 212 l 860 504 q 622 293 795 293 q 383 502 467 293 m 915 698 q 826 795 915 795 q 728 695 728 795 q 819 602 728 602 q 915 698 915 602 m 520 700 q 430 795 520 795 q 332 695 332 795 q 424 602 332 602 q 520 700 520 602 "},"‐":{"x_min":62.390625,"x_max":450.296875,"ha":501,"o":"m 84 436 l 450 436 l 429 325 l 62 325 l 84 436 "},"ᒜ":{"x_min":122.75,"x_max":1046.421875,"ha":1132,"o":"m 149 571 l 288 571 l 261 432 l 122 432 l 149 571 m 909 302 l 1046 302 q 900 56 1013 132 q 639 -20 786 -20 q 403 61 479 -20 q 358 303 326 142 l 495 1012 l 632 1012 l 494 302 q 532 140 473 191 q 660 89 591 89 q 818 146 747 89 q 909 302 890 203 "},"⨛":{"x_min":79.671875,"x_max":651,"ha":724,"o":"m 305 848 q 364 1006 305 961 q 480 1052 424 1052 q 582 1009 536 1052 q 644 871 629 967 l 543 861 q 481 950 532 950 q 418 831 418 950 l 418 -91 q 358 -249 418 -204 q 242 -295 298 -295 q 140 -252 187 -295 q 79 -114 94 -210 l 179 -104 q 241 -193 191 -193 q 305 -74 305 -193 l 305 848 m 651 1211 l 651 1102 l 119 1102 l 119 1211 l 651 1211 "},"➩":{"x_min":79,"x_max":1061.234375,"ha":1163,"o":"m 561 104 l 561 266 l 79 266 l 79 605 l 561 605 l 561 766 l 730 766 l 1061 435 l 730 104 l 561 104 m 615 320 l 615 158 l 891 435 l 615 712 l 615 551 l 133 551 l 133 320 l 615 320 "},"┼":{"x_min":-13,"x_max":850,"ha":837,"o":"m 473 336 l 473 -419 l 364 -419 l 364 336 l -13 336 l -13 453 l 364 453 l 364 1351 l 473 1351 l 473 453 l 850 453 l 850 336 l 473 336 "},"₰":{"x_min":13.109375,"x_max":803,"ha":884,"o":"m 94 349 l 13 414 q 219 578 143 578 q 336 524 303 578 q 405 452 382 452 q 484 496 437 452 q 380 721 380 592 q 386 789 380 754 q 475 965 409 906 q 640 1031 548 1031 q 772 965 718 1031 q 803 862 803 928 q 794 789 803 830 q 669 519 765 635 q 751 329 751 430 q 746 279 751 304 q 617 56 720 147 q 359 -20 530 -20 l 381 90 q 543 140 472 90 q 620 280 601 180 q 622 298 622 289 q 566 417 622 351 q 382 332 456 332 q 269 402 306 332 q 209 450 245 450 q 94 349 174 450 m 582 597 q 665 789 642 670 q 671 840 671 818 q 664 881 671 864 q 616 924 650 924 q 550 881 581 924 q 516 789 527 848 q 512 746 512 767 q 582 597 512 661 "},"ц":{"x_min":71.203125,"x_max":874.15625,"ha":945,"o":"m 727 0 l 71 0 l 218 759 l 343 759 l 215 100 l 620 100 l 748 759 l 874 759 l 745 100 l 845 100 l 789 -192 l 689 -192 l 727 0 "},"⌌":{"x_min":513,"x_max":1055,"ha":1124,"o":"m 513 300 l 611 300 l 611 -107 l 513 -107 l 513 300 m 649 338 l 649 436 l 1055 436 l 1055 338 l 649 338 "},"о":{"x_min":64,"x_max":786,"ha":850,"o":"m 352 -20 q 141 62 219 -20 q 64 287 64 144 q 90 455 64 370 q 160 600 117 541 q 310 734 227 690 q 497 777 392 777 q 706 697 626 777 q 786 486 786 616 q 759 306 786 395 q 690 157 733 216 q 541 23 623 66 q 352 -20 458 -20 m 194 291 q 236 137 194 188 q 367 85 279 85 q 574 195 492 85 q 657 473 657 304 q 613 621 657 571 q 483 672 569 672 q 358 639 413 672 q 260 539 303 606 q 211 424 228 488 q 194 291 194 359 "},"𝌛":{"x_min":115,"x_max":1130,"ha":1245,"o":"m 345 521 l 115 521 l 115 657 l 345 657 l 345 521 m 900 521 l 900 657 l 1130 657 l 1130 521 l 900 521 m 737 521 l 508 521 l 508 657 l 737 657 l 737 521 m 119 136 l 1115 136 l 1120 131 l 1120 4 l 1115 0 l 119 0 l 115 4 l 115 131 l 119 136 m 119 917 l 1115 917 l 1120 912 l 1120 785 l 1115 781 l 119 781 l 115 785 l 115 912 l 119 917 m 119 396 l 519 396 l 523 391 l 523 264 l 519 260 l 119 260 l 115 264 l 115 391 l 119 396 m 716 396 l 1115 396 l 1120 391 l 1120 264 l 1115 260 l 716 260 l 712 264 l 712 391 l 716 396 "},"⋜":{"x_min":147,"x_max":1016,"ha":1163,"o":"m 1016 119 l 1016 0 l 147 248 l 147 364 l 1016 613 l 1016 492 l 365 307 l 1016 119 m 147 693 l 147 808 l 1016 808 l 1016 693 l 147 693 "},"⊥":{"x_min":119,"x_max":1092,"ha":1211,"o":"m 562 86 l 562 972 l 649 972 l 649 86 l 1092 86 l 1092 0 l 119 0 l 119 86 l 562 86 "},"Д":{"x_min":-50.859375,"x_max":1020.640625,"ha":1085,"o":"m 261 115 l 709 115 l 861 897 l 532 897 l 504 753 q 319 190 438 414 q 261 115 294 144 m 61 115 q 202 239 160 157 q 381 821 309 448 l 418 1012 l 1020 1012 l 846 115 l 961 115 l 897 -218 l 781 -218 l 823 0 l 106 0 l 64 -218 l -50 -218 l 13 115 l 61 115 "},"ᒷ":{"x_min":37.296875,"x_max":993.515625,"ha":1061,"o":"m 855 572 l 993 572 l 966 433 l 828 433 l 855 572 m 233 1012 l 370 1012 l 197 114 l 690 114 l 668 0 l 37 0 l 233 1012 "},"❿":{"x_min":103,"x_max":1142,"ha":1245,"o":"m 1142 505 q 989 137 1142 289 q 621 -14 837 -14 q 255 137 407 -14 q 103 505 103 289 q 172 765 103 639 q 367 957 242 890 q 621 1025 492 1025 q 877 957 752 1025 q 1072 765 1002 890 q 1142 505 1142 641 m 298 234 l 603 234 l 603 321 l 496 321 l 496 806 l 416 806 l 289 777 l 289 684 l 405 711 l 405 322 l 298 322 l 298 234 m 912 520 q 888 359 912 410 q 822 308 864 308 q 755 359 778 308 q 732 520 732 410 q 755 681 732 630 q 822 733 778 733 q 888 681 864 733 q 912 520 912 630 m 641 519 q 687 301 641 378 q 821 224 733 224 q 955 301 909 224 q 1002 519 1002 378 q 955 738 1002 661 q 821 816 909 816 q 687 738 733 816 q 641 519 641 661 "},"Ӂ":{"x_min":-71.203125,"x_max":1543.515625,"ha":1496,"o":"m 686 1289 l 767 1289 q 802 1229 775 1247 q 880 1211 828 1211 q 975 1229 938 1211 q 1031 1289 1011 1248 l 1112 1289 q 1026 1168 1089 1212 q 877 1125 964 1125 q 748 1166 795 1125 q 686 1289 700 1207 m 777 1013 l 914 1013 l 817 512 l 1377 1013 l 1543 1013 l 1096 613 l 1370 0 l 1227 0 l 994 521 l 782 332 l 718 0 l 581 0 l 645 332 l 507 521 l 71 0 l -71 0 l 441 613 l 149 1013 l 315 1013 l 680 512 l 777 1013 "},"◜":{"x_min":4,"x_max":534,"ha":538,"o":"m 4 361 q 269 819 4 666 q 534 896 401 896 l 534 816 q 309 750 421 816 q 83 361 83 620 l 4 361 "},"͌":{"x_min":-589.328125,"x_max":-104.4375,"ha":0,"o":"m -353 1019 l -377 1036 l -377 1037 q -432 1059 -406 1059 q -474 1041 -455 1059 q -504 991 -492 1024 l -589 991 q -523 1101 -565 1064 q -424 1139 -482 1139 q -380 1131 -400 1139 q -335 1107 -359 1124 l -313 1090 q -288 1076 -301 1080 q -261 1072 -275 1072 q -216 1090 -235 1072 q -189 1139 -196 1108 l -104 1139 q -169 1028 -126 1065 q -273 991 -211 991 q -313 998 -295 991 q -353 1019 -332 1005 m -353 857 l -377 874 l -377 875 q -432 897 -406 897 q -474 879 -455 897 q -504 828 -492 862 l -589 828 q -523 939 -565 902 q -424 977 -482 977 q -380 969 -400 977 q -335 945 -359 962 l -313 927 q -288 913 -301 917 q -261 909 -275 909 q -216 927 -235 909 q -189 977 -196 945 l -104 977 q -169 865 -126 902 q -273 828 -211 828 q -313 835 -295 828 q -353 857 -332 842 "},"Ĵ":{"x_min":-227.859375,"x_max":535.75,"ha":410,"o":"m 282 1290 l 428 1290 l 535 1109 l 444 1109 l 349 1230 l 207 1109 l 105 1109 l 282 1290 m 231 1013 l 369 1013 l 185 70 q 64 -195 149 -113 q -173 -278 -20 -278 l -227 -278 l -205 -163 l -162 -163 q -23 -110 -71 -163 q 48 70 23 -58 l 231 1013 "},"Ҕ":{"x_min":38.09375,"x_max":864.71875,"ha":774,"o":"m 272 483 l 175 0 l 38 0 l 234 1013 l 864 1013 l 842 898 l 349 898 l 295 598 l 577 598 q 765 517 704 598 q 803 381 803 467 q 792 278 803 334 l 752 70 q 631 -195 716 -111 q 391 -278 546 -278 l 339 -278 l 362 -163 l 404 -163 q 543 -112 495 -163 q 615 70 590 -62 l 653 267 q 662 345 662 309 q 643 429 662 397 q 527 483 613 483 l 272 483 "},"⪶":{"x_min":147,"x_max":1016,"ha":1163,"o":"m 372 -159 l 147 -159 l 147 -44 l 468 -44 l 533 34 l 147 34 l 147 149 l 629 149 l 722 260 l 816 182 l 788 149 l 1016 149 l 1016 34 l 691 34 l 627 -44 l 1016 -44 l 1016 -159 l 532 -159 l 438 -270 l 344 -192 l 372 -159 m 147 772 l 147 918 q 1016 606 383 664 l 1016 493 q 147 181 383 434 l 147 327 q 729 565 359 495 q 147 772 355 565 "},"г":{"x_min":52.21875,"x_max":735.8125,"ha":730,"o":"m 52 0 l 200 760 l 735 760 l 716 660 l 305 660 l 177 0 l 52 0 "},"⚤":{"x_min":110,"x_max":1525,"ha":1587,"o":"m 1150 273 q 877 162 1037 162 q 683 213 769 162 q 560 178 625 185 l 560 0 l 745 0 l 745 -84 l 560 -84 l 560 -258 l 443 -258 l 443 -84 l 272 -84 l 272 0 l 443 0 l 443 178 q 224 276 317 189 q 110 544 110 383 q 223 819 110 706 q 500 932 337 932 q 689 883 604 932 q 871 925 772 925 q 1102 850 1026 925 l 1346 1087 l 1095 1087 l 1190 1183 l 1525 1183 l 1525 849 l 1428 752 l 1428 1005 l 1183 767 q 1257 539 1257 694 q 1150 273 1257 383 m 1060 728 q 873 807 980 807 q 793 798 831 807 q 888 544 888 692 q 791 292 888 392 q 875 278 830 278 q 1062 356 985 278 q 1140 543 1140 435 q 1060 728 1140 650 m 579 300 q 492 545 492 404 l 490 547 q 585 798 490 691 q 499 813 545 813 q 310 735 388 813 q 232 546 232 658 q 310 362 232 436 q 499 289 388 289 q 579 300 541 289 m 684 360 q 766 546 766 432 q 688 735 766 657 q 610 545 610 657 q 684 360 610 435 "},"⭔":{"x_min":53,"x_max":1154.046875,"ha":1207,"o":"m 703 1002 l 130 816 l 130 212 l 703 25 l 1059 514 l 703 1002 m 733 1093 l 1154 514 l 733 -65 l 53 156 l 53 872 l 733 1093 "},"ᾙ":{"x_min":104.3125,"x_max":1123.046875,"ha":1160,"o":"m 603 -289 l 503 -289 q 472 -266 485 -289 q 467 -217 462 -248 l 498 -62 l 599 -62 l 568 -217 q 573 -235 567 -227 q 588 -244 579 -244 l 612 -244 l 603 -289 m 110 1007 l 130 1108 l 293 1108 l 272 1001 l 181 1001 q 252 895 161 895 l 239 826 q 110 1007 75 826 m 350 1012 l 488 1012 l 407 597 l 904 597 l 985 1013 l 1123 1013 l 925 0 l 788 0 l 882 482 l 385 482 l 290 0 l 153 0 l 350 1012 "},"⡳":{"x_min":203,"x_max":813,"ha":1016,"o":"m 203 1085 l 406 1085 l 406 882 l 203 882 l 203 1085 m 203 701 l 406 701 l 406 498 l 203 498 l 203 701 m 610 701 l 813 701 l 813 498 l 610 498 l 610 701 m 610 317 l 813 317 l 813 114 l 610 114 l 610 317 m 203 -68 l 406 -68 l 406 -271 l 203 -271 l 203 -68 "},"Յ":{"x_min":45.71875,"x_max":963.5,"ha":1017,"o":"m 176 810 q 313 972 195 907 q 611 1032 422 1032 q 886 972 798 1032 q 960 810 979 907 q 881 661 943 723 q 729 579 820 601 q 866 489 823 556 q 885 303 908 422 q 747 58 852 137 q 406 -20 642 -20 q 97 58 171 -20 q 55 304 23 136 l 192 304 q 217 141 170 194 q 427 89 262 89 q 659 141 593 89 q 748 303 726 193 q 724 468 769 416 q 512 521 678 521 l 120 521 l 141 629 l 533 629 q 747 673 689 629 q 821 795 806 717 q 772 889 832 856 q 590 922 712 922 q 395 889 467 922 q 314 810 330 860 l 176 810 "},"ʟ":{"x_min":52.21875,"x_max":630.015625,"ha":704,"o":"m 200 759 l 324 759 l 196 100 l 630 100 l 610 0 l 52 0 l 200 759 "},"Җ":{"x_min":-50.1875,"x_max":1564.53125,"ha":1496,"o":"m 798 1012 l 935 1012 l 838 511 l 1398 1012 l 1564 1012 l 1117 612 l 1340 115 l 1432 115 l 1367 -218 l 1234 -218 l 1276 0 l 1248 0 l 1015 521 l 803 331 l 739 0 l 602 0 l 666 331 l 528 521 l 92 0 l -50 0 l 462 612 l 170 1012 l 336 1012 l 701 511 l 798 1012 "},"⊻":{"x_min":136,"x_max":881,"ha":1017,"o":"m 136 0 l 136 115 l 881 115 l 881 0 l 136 0 m 179 1027 l 311 1027 l 508 390 l 705 1027 l 837 1027 l 593 224 l 424 224 l 179 1027 "},"ᓅ":{"x_min":19.28125,"x_max":1142,"ha":1183,"o":"m 751 115 q 909 164 848 115 q 987 302 970 213 q 994 360 994 333 q 951 466 994 430 q 830 517 894 517 q 688 466 765 517 q 588 302 610 416 q 584 261 584 281 q 609 171 584 211 q 751 115 645 115 m 728 0 l 19 0 l 41 115 l 458 115 q 435 222 435 159 q 443 302 435 259 q 582 544 474 462 q 850 626 691 626 q 1087 544 1011 626 q 1142 388 1142 486 q 1133 302 1142 348 q 1001 76 1104 152 q 728 0 898 0 m 844 884 l 982 884 l 956 745 l 817 745 l 844 884 "},"։":{"x_min":85.453125,"x_max":340.4375,"ha":468,"o":"m 118 172 l 261 172 l 228 0 l 85 0 l 118 172 m 197 576 l 340 576 l 307 404 l 164 404 l 197 576 "},"ﬗ":{"x_min":90.46875,"x_max":2088.078125,"ha":2124,"o":"m 1014 936 l 832 936 q 760 906 767 936 q 760 857 756 880 l 788 729 q 795 596 805 648 l 679 -1 l 554 -1 l 577 115 q 452 12 518 46 q 306 -21 385 -21 q 123 60 175 -21 q 101 298 71 141 l 191 758 l 316 758 l 227 303 q 238 141 206 195 q 354 88 269 88 q 526 152 455 88 q 618 328 597 216 l 671 600 q 674 669 680 643 l 646 797 q 650 972 619 923 q 845 1055 703 1055 l 1163 1055 l 1082 641 q 1194 743 1166 728 q 1334 778 1262 778 q 1517 696 1465 778 q 1538 457 1568 615 l 1507 303 q 1518 141 1487 201 q 1620 88 1546 88 q 1786 152 1715 88 q 1879 328 1858 216 l 1963 759 l 2088 759 l 1940 -1 l 1815 -1 l 1838 115 q 1713 12 1779 46 q 1573 -21 1646 -21 q 1403 60 1454 -21 q 1382 299 1352 144 l 1411 453 q 1401 615 1432 561 q 1285 669 1369 669 q 1133 604 1204 669 q 1040 428 1062 540 l 901 -289 l 775 -289 l 1014 936 "},"Ἀ":{"x_min":-73.921875,"x_max":854.5,"ha":950,"o":"m 381 1007 q 183 826 346 826 l 196 895 q 307 1001 286 895 l 217 1001 l 238 1108 l 401 1108 l 381 1007 m 511 1012 l 666 1012 l 854 0 l 711 0 l 669 260 l 213 260 l 70 0 l -73 0 l 511 1012 m 560 877 l 276 374 l 648 374 l 560 877 "},"𝟜":{"x_min":61.390625,"x_max":819.328125,"ha":884,"o":"m 634 945 l 497 945 l 497 68 l 634 68 l 634 945 m 431 893 l 138 353 l 431 353 l 431 893 m 428 1013 l 702 1013 l 702 353 l 819 353 l 819 285 l 702 285 l 702 0 l 431 0 l 431 285 l 61 285 l 61 371 l 428 1013 "},"└":{"x_min":363,"x_max":849.75,"ha":836,"o":"m 363 336 l 363 1351 l 472 1351 l 472 453 l 849 453 l 849 336 l 363 336 "},"Ὕ":{"x_min":102.265625,"x_max":1496.046875,"ha":1406,"o":"m 556 1111 l 691 1111 l 420 856 l 316 856 l 556 1111 m 108 1006 l 128 1107 l 291 1107 l 270 1000 l 179 1000 q 250 895 159 895 l 237 826 q 108 1006 73 826 m 644 1013 l 792 1013 l 981 596 l 1342 1013 l 1496 1013 l 1036 482 l 943 0 l 806 0 l 899 482 l 644 1013 "},"պ":{"x_min":96.40625,"x_max":1305.46875,"ha":1353,"o":"m 590 146 q 454 22 528 64 q 292 -18 381 -18 q 126 65 174 -18 q 107 302 77 148 l 196 761 l 322 761 l 233 306 q 240 143 212 196 q 348 91 269 91 q 514 156 445 91 q 604 331 583 219 l 688 761 l 813 761 l 725 306 q 732 143 703 196 q 841 91 760 91 q 1006 156 937 91 q 1096 331 1074 221 l 1180 761 l 1305 761 l 1101 -289 l 975 -289 l 1055 119 q 933 16 1000 50 q 784 -18 866 -18 q 651 24 701 -18 q 590 146 602 66 "},"Ԥ":{"x_min":59,"x_max":1027.421875,"ha":1101,"o":"m 693 0 l 868 897 l 370 897 l 195 0 l 59 0 l 255 1012 l 1027 1012 l 853 115 l 989 115 l 925 -218 l 788 -218 l 830 0 l 693 0 "},"⨒":{"x_min":79.15625,"x_max":644.359375,"ha":724,"o":"m 294 460 l 437 460 l 437 288 l 294 288 l 294 460 m 286 -74 l 286 177 l 549 177 l 549 556 l 323 556 l 323 847 q 381 1006 323 959 q 488 1052 436 1052 q 591 1005 542 1052 q 644 871 630 969 l 543 861 q 489 950 532 950 q 438 830 438 950 l 438 650 l 643 650 l 643 83 l 397 83 l 397 -91 q 339 -250 397 -203 q 233 -294 279 -300 q 131 -247 180 -287 q 79 -115 93 -216 l 179 -104 q 233 -193 191 -193 q 286 -74 286 -193 "},"ᔾ":{"x_min":90.203125,"x_max":516.09375,"ha":581,"o":"m 147 1020 l 245 1020 l 202 797 l 516 797 l 500 714 l 214 452 l 115 452 l 415 722 l 90 722 l 147 1020 "},"ḳ":{"x_min":48.828125,"x_max":849.75,"ha":804,"o":"m 254 1055 l 379 1055 l 259 439 l 687 759 l 849 759 l 372 395 l 720 -1 l 569 -1 l 245 370 l 173 0 l 48 0 l 254 1055 m 252 -118 l 389 -118 l 363 -256 l 224 -256 l 252 -118 "},"ѫ":{"x_min":-1.078125,"x_max":847.703125,"ha":849,"o":"m 615 644 l 331 644 l 424 398 l 615 644 m 847 759 l 552 376 q 659 292 620 351 q 708 115 708 222 q 695 0 708 62 l 563 0 q 574 94 574 50 q 546 213 574 164 q 463 284 518 267 l 407 0 l 283 0 l 338 283 q 230 214 278 265 q 130 0 156 136 l -1 0 q 148 292 35 187 q 288 376 209 350 l 142 759 l 847 759 "},"Ѝ":{"x_min":37.984375,"x_max":1000.984375,"ha":1039,"o":"m 594 1288 l 694 1109 l 599 1109 l 470 1288 l 594 1288 m 1000 1013 l 804 0 l 671 0 l 836 847 l 222 0 l 37 0 l 234 1013 l 367 1013 l 202 165 l 816 1013 l 1000 1013 "},"䷼":{"x_min":115,"x_max":1121,"ha":1245,"o":"m 119 574 l 518 574 l 523 569 l 523 442 l 518 438 l 119 438 l 115 442 l 115 569 l 119 574 m 716 574 l 1115 574 l 1120 569 l 1120 442 l 1115 438 l 716 438 l 712 442 l 712 569 l 716 574 m 119 793 l 1115 793 l 1120 788 l 1120 661 l 1115 657 l 119 657 l 115 661 l 115 788 l 119 793 m 119 1013 l 1115 1013 l 1120 1008 l 1120 881 l 1115 877 l 119 877 l 115 881 l 115 1008 l 119 1013 m 119 -84 l 1115 -84 l 1120 -88 l 1120 -215 l 1115 -220 l 119 -220 l 115 -215 l 115 -88 l 119 -84 m 120 135 l 1116 135 l 1121 130 l 1121 3 l 1116 -1 l 120 -1 l 116 3 l 116 130 l 120 135 m 119 355 l 518 355 l 523 350 l 523 223 l 518 219 l 119 219 l 115 223 l 115 350 l 119 355 m 716 355 l 1115 355 l 1120 350 l 1120 223 l 1115 219 l 716 219 l 712 223 l 712 350 l 716 355 "},"ǲ":{"x_min":37.734375,"x_max":1823.578125,"ha":1798,"o":"m 235 1013 l 529 1013 q 883 913 763 1013 q 1003 618 1003 814 q 957 368 1003 488 q 832 166 912 249 q 627 41 751 82 q 333 0 503 0 l 37 0 l 235 1013 m 350 900 l 197 113 l 376 113 q 732 245 606 113 q 859 618 859 377 q 777 831 859 763 q 522 900 696 900 l 350 900 m 1230 760 l 1823 760 l 1801 645 l 1229 100 l 1701 100 l 1681 0 l 1065 0 l 1087 114 l 1659 660 l 1211 660 l 1230 760 "},"͞":{"x_min":-413,"x_max":833.46875,"ha":0,"o":"m -393 1288 l 833 1288 l 813 1188 l -413 1188 l -393 1288 "},"⤆":{"x_min":67.703125,"x_max":1084,"ha":1163,"o":"m 969 283 l 352 283 l 415 219 l 334 138 l 67 404 l 67 466 l 334 732 l 415 651 l 352 588 l 969 588 l 969 727 l 1084 727 l 1084 144 l 969 144 l 969 283 m 969 364 l 969 507 l 271 507 l 199 435 l 271 364 l 969 364 "},"У":{"x_min":33.90625,"x_max":920.953125,"ha":846,"o":"m 122 1012 l 269 1012 l 405 418 l 773 1013 l 920 1013 l 369 122 q 322 63 348 88 q 86 0 256 0 l 33 0 l 56 115 l 99 115 q 207 129 179 115 q 253 173 235 144 l 297 245 l 122 1012 "},"ᴎ":{"x_min":52.21875,"x_max":850.421875,"ha":903,"o":"m 850 760 l 702 0 l 578 0 l 697 610 l 212 0 l 52 0 l 200 760 l 324 760 l 205 151 l 689 760 l 850 760 "},"⟦":{"x_min":-0.671875,"x_max":673.421875,"ha":688,"o":"m 294 987 l 80 -116 l 215 -116 l 429 987 l 294 987 m 239 1055 l 673 1055 l 660 987 l 497 987 l 283 -116 l 446 -116 l 433 -184 l 0 -184 l 239 1055 "},"➍":{"x_min":6,"x_max":1158,"ha":1164,"o":"m 626 815 l 626 382 l 349 382 l 626 815 m 598 911 l 261 397 l 261 292 l 627 292 l 627 101 l 736 101 l 736 292 l 851 292 l 851 383 l 736 383 l 736 911 l 598 911 m 360 1039 q 582 1083 463 1083 q 803 1039 700 1083 q 989 912 904 997 q 1115 726 1074 827 q 1158 503 1158 623 q 1115 284 1158 387 q 989 98 1074 183 q 803 -28 904 13 q 582 -72 700 -72 q 360 -28 463 -72 q 174 98 259 13 q 48 284 89 183 q 6 503 6 387 q 48 726 6 623 q 174 912 89 827 q 360 1039 259 997 "},"Ģ":{"x_min":62,"x_max":1006.234375,"ha":1075,"o":"m 480 -130 l 623 -130 l 470 -346 l 383 -346 l 480 -130 m 757 150 l 810 416 l 585 416 l 606 529 l 965 529 l 878 82 q 681 6 787 33 q 467 -20 575 -20 q 169 85 276 -20 q 62 380 62 191 q 127 678 62 537 q 308 914 192 820 q 466 1002 380 973 q 657 1031 552 1031 q 839 1006 752 1031 q 1006 934 926 982 l 978 788 q 835 886 917 852 q 660 920 753 920 q 470 878 552 920 q 324 751 388 837 q 237 578 269 678 q 206 376 206 479 q 278 162 206 234 q 494 91 351 91 q 633 106 566 91 q 757 150 701 121 "},"⣂":{"x_min":203,"x_max":812,"ha":1015,"o":"m 203 701 l 406 701 l 406 498 l 203 498 l 203 701 m 203 -68 l 406 -68 l 406 -271 l 203 -271 l 203 -68 m 609 -68 l 812 -68 l 812 -271 l 609 -271 l 609 -68 "},"⡞":{"x_min":203,"x_max":813,"ha":1016,"o":"m 203 701 l 406 701 l 406 498 l 203 498 l 203 701 m 203 317 l 406 317 l 406 114 l 203 114 l 203 317 m 610 1085 l 813 1085 l 813 882 l 610 882 l 610 1085 m 610 701 l 813 701 l 813 498 l 610 498 l 610 701 m 203 -68 l 406 -68 l 406 -271 l 203 -271 l 203 -68 "},"ᕻ":{"x_min":104.9375,"x_max":689,"ha":782,"o":"m 250 622 l 309 926 l 141 751 l 104 792 l 316 1020 l 425 1020 l 378 775 q 503 803 438 803 q 646 763 603 803 q 689 665 689 723 q 684 622 689 645 q 595 484 666 527 q 432 442 525 442 q 288 481 331 442 q 246 578 246 520 q 250 622 246 598 m 447 517 q 539 546 507 517 q 581 622 572 575 q 585 652 585 638 q 561 707 585 686 q 488 728 538 728 q 392 699 425 728 q 348 622 358 670 q 346 594 346 607 q 370 538 346 560 q 447 517 394 517 "},"⁵":{"x_min":17.625,"x_max":498.453125,"ha":557,"o":"m 152 1019 l 498 1019 l 485 955 l 220 955 l 193 816 q 233 825 213 822 q 272 828 253 828 q 435 775 381 828 q 472 635 488 724 q 378 493 453 544 q 183 443 303 443 q 101 449 143 443 q 17 467 60 455 l 32 543 q 107 515 67 525 q 195 507 148 507 q 321 541 270 507 q 383 635 372 576 q 357 729 395 694 q 244 764 320 764 q 172 757 209 764 q 96 736 136 750 l 152 1019 "},"ớ":{"x_min":67,"x_max":912,"ha":850,"o":"m 604 1110 l 739 1110 l 469 856 l 364 856 l 604 1110 m 622 666 l 637 747 q 700 701 673 716 q 748 687 727 687 q 798 705 779 687 q 825 761 817 724 q 828 804 828 783 q 821 846 828 825 l 912 846 q 912 797 912 820 q 907 753 912 774 q 854 632 891 671 q 754 593 817 593 q 689 611 721 593 q 622 666 656 629 m 355 -20 q 144 62 222 -20 q 67 287 67 144 q 93 455 67 370 q 163 600 120 541 q 313 734 230 690 q 500 777 395 777 q 709 697 629 777 q 789 486 789 616 q 762 306 789 395 q 693 157 736 216 q 544 23 626 66 q 355 -20 461 -20 m 197 291 q 239 137 197 188 q 370 85 282 85 q 577 195 495 85 q 660 473 660 304 q 616 621 660 571 q 486 672 572 672 q 361 639 416 672 q 263 539 306 606 q 214 424 231 488 q 197 291 197 359 "},"á":{"x_min":57,"x_max":793.234375,"ha":852,"o":"m 746 432 l 661 0 l 536 0 l 559 114 q 434 13 504 46 q 278 -20 364 -20 q 119 39 181 -20 q 57 191 57 98 q 163 401 57 324 q 455 479 269 479 l 629 479 l 636 512 q 638 524 637 517 q 639 544 639 530 q 589 638 639 604 q 451 672 540 672 q 326 656 390 672 q 194 609 262 640 l 216 724 q 354 764 286 751 q 485 777 422 777 q 689 719 619 777 q 760 549 760 661 q 756 497 760 527 q 746 432 753 466 m 611 381 l 486 381 q 259 340 333 381 q 185 213 185 299 q 223 119 185 153 q 327 85 261 85 q 505 158 429 85 q 605 353 581 231 l 611 381 m 658 1111 l 793 1111 l 522 856 l 417 856 l 658 1111 "},"ᵡ":{"x_min":-31.875,"x_max":537.109375,"ha":505,"o":"m 268 357 l 233 503 l 61 291 l -31 291 l 212 592 l 168 770 q 91 819 157 819 l 70 819 l 82 877 l 111 877 q 236 812 221 877 l 271 666 l 444 879 l 537 879 l 293 577 l 336 398 q 413 351 347 351 l 434 351 l 423 293 l 393 293 q 268 357 283 293 "},"ꟽ":{"x_min":37.984375,"x_max":1161.03125,"ha":1198,"o":"m 37 0 l 234 1013 l 367 1013 l 194 123 l 590 818 l 728 818 l 854 123 l 1027 1013 l 1161 1013 l 964 0 l 760 0 l 634 689 l 242 0 l 37 0 "},"Ⅎ":{"x_min":37.296875,"x_max":815.15625,"ha":799,"o":"m 617 0 l 37 0 l 59 115 l 503 115 l 562 414 l 160 414 l 183 529 l 584 529 l 678 1013 l 815 1013 l 617 0 "},"໔":{"x_min":21.28125,"x_max":777.1875,"ha":868,"o":"m 520 320 q 555 276 512 276 q 607 320 598 276 q 572 364 615 364 q 520 320 528 364 m 727 -114 q 359 -64 543 -64 q 78 15 141 -64 q 26 226 4 112 q 232 566 71 456 l 397 678 q 652 987 621 830 l 777 987 q 451 583 735 775 l 282 468 q 151 226 185 403 q 181 91 136 152 q 374 51 212 51 q 512 34 447 51 q 416 309 390 168 q 589 464 445 464 q 712 317 749 464 q 592 179 678 179 q 747 -8 647 42 l 727 -114 "},"☦":{"x_min":115,"x_max":786,"ha":901,"o":"m 377 912 l 377 871 l 514 871 l 514 912 l 377 912 m 390 946 l 390 1016 l 506 1016 l 506 946 l 591 946 l 591 836 l 506 836 l 506 776 l 512 776 l 786 776 l 786 657 l 506 657 l 506 293 l 603 199 l 603 93 l 511 183 l 511 -2 l 390 -2 l 390 299 l 299 389 l 299 495 l 390 406 l 390 657 l 115 657 l 115 777 l 390 777 l 390 836 l 310 836 l 310 946 l 390 946 m 422 392 l 469 392 l 469 692 l 651 692 l 651 741 l 469 741 l 469 808 l 421 808 l 421 741 l 240 741 l 240 692 l 422 692 l 422 392 "},"ứ":{"x_min":81,"x_max":1000,"ha":881,"o":"m 602 1111 l 737 1111 l 466 856 l 362 856 l 602 1111 m 94 301 l 183 759 l 308 759 l 219 306 q 210 249 213 272 q 207 209 207 225 q 242 120 207 152 q 342 89 277 89 q 515 156 442 89 q 611 339 588 224 l 694 759 l 819 759 l 672 0 l 547 0 l 572 119 q 446 16 519 53 q 291 -20 373 -20 q 136 34 192 -20 q 81 187 81 89 q 84 238 81 207 q 94 301 87 268 m 710 674 l 726 755 q 788 709 761 724 q 836 695 815 695 q 886 713 867 695 q 913 769 905 732 q 916 812 916 791 q 909 854 916 833 l 1000 854 q 1000 805 1000 828 q 995 761 1000 782 q 942 640 979 679 q 842 601 905 601 q 777 618 809 601 q 710 674 745 636 "},"ȴ":{"x_min":-18.3125,"x_max":532.78125,"ha":659,"o":"m 238 87 q 273 84 248 84 q 405 203 382 84 q 376 234 410 234 q 238 87 341 234 m 199 212 q 390 338 298 338 q 528 198 556 338 q 254 -20 486 -20 q 171 -9 205 -20 q 114 -98 139 -58 l -18 -98 q 75 48 10 -51 q 63 150 50 88 l 238 1051 l 362 1051 l 199 212 "},"ⱴ":{"x_min":54.25,"x_max":849.0625,"ha":822,"o":"m 167 572 q 444 813 208 780 q 552 647 588 833 q 395 480 532 543 l 300 437 l 355 122 l 716 760 l 849 760 l 416 0 l 246 0 l 179 380 l 54 323 l 80 456 q 160 488 115 469 l 167 572 m 282 542 q 450 652 443 617 q 425 688 456 688 q 286 579 307 688 q 282 542 281 554 "},"ᴇ":{"x_min":52.21875,"x_max":680.203125,"ha":682,"o":"m 200 759 l 680 759 l 660 659 l 306 659 l 267 455 l 605 455 l 585 355 l 247 355 l 198 100 l 560 100 l 541 0 l 52 0 l 200 759 "},"K":{"x_min":37.296875,"x_max":1003.015625,"ha":911,"o":"m 234 1013 l 372 1013 l 288 586 l 820 1013 l 1003 1013 l 401 529 l 841 0 l 674 0 l 270 493 l 174 0 l 37 0 l 234 1013 "},"ן":{"x_min":24.421875,"x_max":354,"ha":378,"o":"m 150 -289 l 24 -289 l 227 760 l 354 760 l 150 -289 "},"ᔫ":{"x_min":77.3125,"x_max":916.203125,"ha":871,"o":"m 832 1011 l 731 490 l 214 490 l 507 0 l 370 0 l 77 487 l 99 605 l 616 605 l 695 1011 l 832 1011 m 778 1269 l 916 1269 l 889 1130 l 750 1130 l 778 1269 "},"b":{"x_min":49.828125,"x_max":815,"ha":881,"o":"m 687 463 q 641 617 687 561 q 517 673 596 673 q 409 644 459 673 q 321 563 359 616 q 259 432 282 506 q 237 284 237 358 q 281 137 237 190 q 403 84 325 84 q 512 111 462 84 q 600 192 562 138 q 663 322 639 248 q 687 463 687 396 m 299 643 q 414 741 345 706 q 560 777 484 777 q 746 698 677 777 q 815 485 815 619 q 774 272 815 375 q 659 89 734 169 q 547 8 610 36 q 413 -20 483 -20 q 285 13 339 -20 q 196 114 230 47 l 174 0 l 49 0 l 255 1055 l 380 1055 l 299 643 "},"≕":{"x_min":139,"x_max":1250,"ha":1389,"o":"m 1107 382 l 1250 382 l 1250 210 l 1107 210 l 1107 382 m 1107 659 l 1250 659 l 1250 487 l 1107 487 l 1107 659 m 139 631 l 1008 631 l 1008 517 l 139 517 l 139 631 m 139 354 l 1008 354 l 1008 239 l 139 239 l 139 354 "},"≮":{"x_min":147,"x_max":1016,"ha":1163,"o":"m 626 324 l 1016 187 l 1016 63 l 578 222 l 474 3 l 382 46 l 482 257 l 147 379 l 147 491 l 685 687 l 803 936 l 895 892 l 821 736 l 1016 807 l 1016 683 l 751 589 l 626 324 m 616 541 l 316 434 l 530 358 l 616 541 "},"ɢ":{"x_min":65.859375,"x_max":790.75,"ha":874,"o":"m 581 120 l 618 312 l 513 312 l 531 407 l 749 407 l 680 48 q 564 12 626 25 q 373 0 509 0 q 121 107 201 0 q 76 398 41 215 q 236 691 112 584 q 535 797 358 797 q 646 785 577 797 q 790 723 714 774 l 767 606 q 625 677 696 658 q 520 692 568 692 q 317 614 399 692 q 208 398 235 538 q 233 183 181 259 q 406 105 285 105 q 581 120 524 105 "},"ຣ":{"x_min":51.953125,"x_max":929.09375,"ha":949,"o":"m 210 233 q 174 222 185 233 q 158 189 162 211 q 163 155 153 165 q 193 146 172 146 q 229 157 218 146 q 245 189 241 168 q 241 223 250 214 q 210 233 231 233 m 705 222 q 475 380 735 380 q 139 591 97 380 q 562 789 179 789 q 929 640 802 789 l 833 557 q 534 684 689 684 q 263 587 280 684 q 515 481 246 481 q 832 231 880 481 q 396 -12 783 -12 q 88 62 166 -12 q 56 193 39 109 q 225 331 84 331 q 350 188 377 331 q 322 122 339 135 q 492 97 367 97 q 705 222 682 97 "},"⧐":{"x_min":147,"x_max":1241.125,"ha":1388,"o":"m 147 20 l 147 850 l 262 850 l 262 20 l 147 20 m 487 194 l 1071 435 l 487 675 l 487 194 m 372 20 l 372 850 l 1241 491 l 1241 378 l 372 20 "},"ᑾ":{"x_min":122.75,"x_max":1055.4375,"ha":1132,"o":"m 149 571 l 288 571 l 261 432 l 122 432 l 149 571 m 660 89 q 812 144 743 89 q 901 302 882 199 q 866 465 924 415 q 743 516 808 516 q 585 458 657 516 q 494 302 514 401 q 532 140 473 191 q 660 89 591 89 m 547 574 q 764 624 644 624 q 1000 542 924 624 q 1046 301 1077 461 q 900 56 1013 132 q 639 -20 786 -20 q 403 61 479 -20 q 358 303 326 142 l 495 1012 l 632 1012 l 547 574 "},"⍺":{"x_min":77,"x_max":849,"ha":915,"o":"m 574 353 l 544 510 q 393 671 513 671 q 261 596 302 671 q 209 379 209 502 q 259 158 209 229 q 393 86 311 86 q 532 230 483 86 l 574 353 m 643 561 l 710 759 l 821 759 l 683 348 l 710 199 q 739 138 716 166 q 789 105 767 105 l 849 105 l 849 0 l 774 0 q 653 56 710 0 q 614 145 626 85 q 519 10 583 69 q 392 -17 489 -17 q 156 86 233 -17 q 77 379 77 192 q 163 672 77 578 q 393 776 259 776 q 643 561 603 776 "},"Ḡ":{"x_min":62,"x_max":1006.234375,"ha":1075,"o":"m 757 150 l 810 416 l 585 416 l 606 529 l 965 529 l 878 82 q 681 6 787 33 q 467 -20 575 -20 q 169 85 276 -20 q 62 380 62 191 q 127 678 62 537 q 308 914 192 820 q 466 1002 380 973 q 657 1031 552 1031 q 839 1006 752 1031 q 1006 934 926 982 l 978 788 q 835 886 917 852 q 660 920 753 920 q 470 878 552 920 q 324 751 388 837 q 237 578 269 678 q 206 376 206 479 q 278 162 206 234 q 494 91 351 91 q 633 106 566 91 q 757 150 701 121 m 508 1249 l 914 1249 l 894 1149 l 488 1149 l 508 1249 "},"ȭ":{"x_min":64,"x_max":803.625,"ha":850,"o":"m 352 -20 q 141 62 219 -20 q 64 287 64 144 q 90 455 64 370 q 160 600 117 541 q 310 734 227 690 q 497 777 392 777 q 706 697 626 777 q 786 486 786 616 q 759 306 786 395 q 690 157 733 216 q 541 23 623 66 q 352 -20 458 -20 m 194 291 q 236 137 194 188 q 367 85 279 85 q 574 195 492 85 q 657 473 657 304 q 613 621 657 571 q 483 672 569 672 q 358 639 413 672 q 260 539 303 606 q 211 424 228 488 q 194 291 194 359 m 546 914 l 523 931 l 522 932 q 467 954 493 954 q 426 936 444 954 q 395 885 407 919 l 311 885 q 376 996 334 959 q 475 1034 418 1034 q 520 1026 499 1034 q 565 1002 540 1019 l 586 984 q 611 970 598 974 q 638 966 624 966 q 683 984 664 966 q 710 1034 703 1002 l 795 1034 q 730 923 773 960 q 626 885 688 885 q 586 892 605 885 q 546 914 567 900 m 398 1195 l 803 1195 l 783 1095 l 378 1095 l 398 1195 "},"Ŋ":{"x_min":64.078125,"x_max":947,"ha":1039,"o":"m 700 1031 q 947 761 947 1031 q 930 605 947 691 l 810 -13 q 713 -223 781 -158 q 523 -289 645 -289 l 464 -289 l 484 -183 l 517 -183 q 620 -152 587 -183 q 673 -13 652 -122 l 794 606 q 806 717 806 668 q 642 897 806 897 q 431 810 521 897 q 312 573 341 724 l 201 0 l 64 0 l 260 1013 l 397 1013 l 365 848 q 516 985 436 939 q 700 1031 597 1031 "},"Ẋ":{"x_min":-59.671875,"x_max":976.5625,"ha":951,"o":"m 565 1269 l 703 1269 l 676 1130 l 537 1130 l 565 1269 m 190 1013 l 328 1013 l 502 647 l 816 1013 l 976 1013 l 559 529 l 811 0 l 673 0 l 469 426 l 99 0 l -59 0 l 413 544 l 190 1013 "},"ͷ":{"x_min":52.21875,"x_max":850.421875,"ha":903,"o":"m 850 760 l 702 0 l 578 0 l 697 610 l 212 0 l 52 0 l 200 760 l 324 760 l 205 151 l 689 760 l 850 760 "},"ď":{"x_min":64,"x_max":1138.0625,"ha":882,"o":"m 580 113 q 462 13 530 47 q 310 -20 393 -20 q 130 57 196 -20 q 64 270 64 135 q 104 485 64 383 q 219 668 144 587 q 333 749 270 721 q 465 778 396 778 q 594 742 538 778 q 680 641 650 707 l 762 1055 l 887 1055 l 682 0 l 557 0 l 580 113 m 194 292 q 238 139 194 194 q 361 84 282 84 q 469 112 419 84 q 557 195 519 140 q 619 327 596 252 q 643 474 643 401 q 598 622 643 569 q 476 675 554 675 q 366 647 417 675 q 280 566 315 619 q 217 435 240 510 q 194 292 194 361 m 1003 1054 l 1138 1054 l 1020 799 l 915 799 l 1003 1054 "},"Ⴠ":{"x_min":98.03125,"x_max":1075.53125,"ha":1109,"o":"m 1011 331 q 960 200 997 261 q 870 95 923 140 q 750 25 816 50 q 613 0 684 0 q 485 25 542 0 q 391 95 428 50 q 343 186 354 140 q 332 265 332 231 q 338 331 332 297 l 452 919 l 279 919 l 239 708 l 98 708 l 162 1042 l 616 1042 l 478 331 q 474 289 474 309 q 480 241 474 269 q 509 185 487 212 q 563 141 530 157 q 637 126 596 126 q 718 141 680 126 q 788 185 757 157 q 840 250 819 212 q 870 331 861 287 l 934 661 l 1075 661 l 1011 331 "},"䷨":{"x_min":115,"x_max":1121,"ha":1245,"o":"m 119 574 l 518 574 l 523 569 l 523 442 l 518 438 l 119 438 l 115 442 l 115 569 l 119 574 m 716 574 l 1115 574 l 1120 569 l 1120 442 l 1115 438 l 716 438 l 712 442 l 712 569 l 716 574 m 119 793 l 518 793 l 523 788 l 523 661 l 518 657 l 119 657 l 115 661 l 115 788 l 119 793 m 716 793 l 1115 793 l 1120 788 l 1120 661 l 1115 657 l 716 657 l 712 661 l 712 788 l 716 793 m 119 1013 l 1115 1013 l 1120 1008 l 1120 881 l 1115 877 l 119 877 l 115 881 l 115 1008 l 119 1013 m 119 -84 l 1115 -84 l 1120 -88 l 1120 -215 l 1115 -220 l 119 -220 l 115 -215 l 115 -88 l 119 -84 m 120 135 l 1116 135 l 1121 130 l 1121 3 l 1116 -1 l 120 -1 l 116 3 l 116 130 l 120 135 m 119 355 l 518 355 l 523 350 l 523 223 l 518 219 l 119 219 l 115 223 l 115 350 l 119 355 m 716 355 l 1115 355 l 1120 350 l 1120 223 l 1115 219 l 716 219 l 712 223 l 712 350 l 716 355 "},"⟸":{"x_min":68,"x_max":1912,"ha":1991,"o":"m 271 364 l 1912 364 l 1912 283 l 352 283 l 415 219 l 334 138 l 68 404 l 68 466 l 334 732 l 415 651 l 352 588 l 1912 588 l 1912 507 l 271 507 l 200 435 l 271 364 "},"Ώ":{"x_min":73.25,"x_max":1161.578125,"ha":1147,"o":"m 1078 121 l 1055 0 l 648 0 l 672 121 q 893 299 804 186 q 1009 548 982 411 q 970 809 1040 711 q 753 908 899 908 q 498 809 606 908 q 357 548 389 710 q 376 299 330 411 q 530 121 422 186 l 506 0 l 99 0 l 123 121 l 339 121 q 221 316 250 215 q 215 542 191 417 q 413 891 257 757 q 776 1025 569 1025 q 1086 891 981 1025 q 1150 548 1190 758 q 1057 316 1125 417 q 861 121 989 216 l 1078 121 m 313 1111 l 448 1111 l 177 856 l 73 856 l 313 1111 "},"ᴧ":{"x_min":-32.546875,"x_max":706.65625,"ha":822,"o":"m 706 0 l 574 0 l 461 637 l 99 0 l -32 0 l 400 760 l 569 760 l 706 0 "},"̟":{"x_min":-504.5625,"x_max":-189.890625,"ha":0,"o":"m -396 -225 l -504 -225 l -488 -144 l -379 -144 l -358 -34 l -277 -34 l -298 -144 l -189 -144 l -206 -225 l -314 -225 l -335 -334 l -417 -334 l -396 -225 "},"䷋":{"x_min":115,"x_max":1120,"ha":1245,"o":"m 119 -84 l 518 -84 l 523 -88 l 523 -215 l 518 -220 l 119 -220 l 115 -215 l 115 -88 l 119 -84 m 716 -84 l 1115 -84 l 1120 -88 l 1120 -215 l 1115 -220 l 716 -220 l 712 -215 l 712 -88 l 716 -84 m 119 135 l 518 135 l 523 130 l 523 3 l 518 -1 l 119 -1 l 115 3 l 115 130 l 119 135 m 716 135 l 1115 135 l 1120 130 l 1120 3 l 1115 -1 l 716 -1 l 712 3 l 712 130 l 716 135 m 119 355 l 518 355 l 523 350 l 523 223 l 518 219 l 119 219 l 115 223 l 115 350 l 119 355 m 716 355 l 1115 355 l 1120 350 l 1120 223 l 1115 219 l 716 219 l 712 223 l 712 350 l 716 355 m 119 574 l 1115 574 l 1120 569 l 1120 442 l 1115 438 l 119 438 l 115 442 l 115 569 l 119 574 m 119 794 l 1115 794 l 1120 789 l 1120 662 l 1115 658 l 119 658 l 115 662 l 115 789 l 119 794 m 119 1013 l 1115 1013 l 1120 1008 l 1120 881 l 1115 877 l 119 877 l 115 881 l 115 1008 l 119 1013 "},"סּ":{"x_min":116.53125,"x_max":908,"ha":971,"o":"m 492 431 l 593 431 l 573 329 l 471 329 l 492 431 m 253 662 l 116 662 l 135 759 l 607 759 q 859 661 786 759 q 908 491 908 595 q 896 379 908 439 q 741 67 851 154 q 458 -20 631 -20 q 222 77 288 -20 q 183 238 183 136 q 198 379 183 300 l 253 662 m 473 78 q 659 139 585 78 q 771 380 734 200 q 785 509 785 447 q 751 606 785 572 q 538 662 696 662 l 378 662 l 323 379 q 308 244 308 299 q 346 125 308 155 q 473 78 408 78 "},"ჼ":{"x_min":45,"x_max":406,"ha":422,"o":"m 235 892 q 347 775 347 892 q 339 706 347 744 q 156 513 302 513 q 45 633 45 513 q 53 707 45 666 l 96 932 q 246 1055 121 1055 l 406 1055 l 395 1000 l 220 1000 q 161 945 172 1000 l 141 838 l 235 892 m 276 707 q 282 755 282 734 q 216 829 282 829 q 114 703 139 829 q 108 643 108 669 q 167 567 108 567 q 276 707 249 567 "},"Ѿ":{"x_min":50,"x_max":1227,"ha":1296,"o":"m 1060 1250 l 967 1114 l 933 1114 l 912 1182 l 794 1182 l 747 1114 l 713 1114 l 692 1182 l 573 1182 l 527 1114 l 493 1114 l 451 1250 l 1060 1250 m 219 233 q 339 160 254 160 q 479 231 416 160 q 567 436 541 301 l 599 599 l 733 599 l 702 436 q 690 330 690 377 q 709 231 690 271 q 821 160 743 160 q 970 233 912 160 q 1073 514 1034 314 q 1085 634 1085 576 q 1072 746 1085 692 q 976 1012 1023 964 l 1145 1012 q 1210 818 1193 923 q 1227 626 1227 712 q 1216 498 1227 556 q 1055 99 1161 220 q 806 -20 948 -20 q 651 43 708 -20 q 595 224 595 107 q 463 43 544 107 q 283 -20 382 -20 q 81 100 140 -20 q 50 270 50 164 q 75 498 50 367 q 205 818 102 635 q 346 1012 266 925 l 515 1012 q 315 746 449 964 q 225 514 249 638 q 203 329 203 402 q 219 233 203 267 "},"Ⴃ":{"x_min":34,"x_max":1101.75,"ha":1055,"o":"m 848 462 q 856 535 856 500 q 856 573 856 546 q 842 642 856 601 q 804 717 828 683 q 748 775 781 750 q 676 814 716 800 q 589 827 635 827 q 452 797 519 827 q 330 717 385 767 q 237 600 276 666 q 184 462 199 534 q 178 393 178 426 q 188 314 178 360 q 234 222 198 268 q 326 151 270 177 q 450 125 381 125 q 588 150 522 125 q 707 220 654 175 q 797 328 760 266 q 848 462 834 390 m 989 462 q 917 280 970 364 q 789 133 865 196 q 620 35 713 71 q 427 0 527 0 q 250 35 329 0 q 118 133 171 71 q 50 260 66 196 q 34 373 34 324 q 42 462 34 416 q 103 623 59 548 q 212 755 147 697 q 358 853 277 813 q 529 909 439 892 l 131 909 l 156 1043 l 1101 1043 l 1075 909 l 677 909 q 825 853 760 893 q 933 755 891 814 q 986 641 974 696 q 998 548 998 586 q 989 462 998 506 "},"ṏ":{"x_min":64,"x_max":809.0625,"ha":850,"o":"m 352 -20 q 141 62 219 -20 q 64 287 64 144 q 90 455 64 370 q 160 600 117 541 q 310 734 227 690 q 497 777 392 777 q 706 697 626 777 q 786 486 786 616 q 759 306 786 395 q 690 157 733 216 q 541 23 623 66 q 352 -20 458 -20 m 194 291 q 236 137 194 188 q 367 85 279 85 q 574 195 492 85 q 657 473 657 304 q 613 621 657 571 q 483 672 569 672 q 358 639 413 672 q 260 539 303 606 q 211 424 228 488 q 194 291 194 359 m 554 922 l 531 939 l 530 940 q 475 962 501 962 q 434 944 452 962 q 403 894 416 927 l 319 894 q 384 1004 342 967 q 483 1042 426 1042 q 528 1034 507 1042 q 573 1010 548 1027 l 594 993 q 619 979 607 983 q 646 975 632 975 q 692 993 672 975 q 718 1042 711 1011 l 803 1042 q 738 931 781 968 q 634 894 696 894 q 594 901 613 894 q 554 922 575 908 m 407 1229 l 545 1229 l 517 1091 l 380 1091 l 407 1229 m 672 1229 l 809 1229 l 783 1091 l 645 1091 l 672 1229 "},"ᖒ":{"x_min":110.59375,"x_max":1430.265625,"ha":1392,"o":"m 312 755 q 408 783 379 755 q 444 851 437 812 q 422 928 455 902 q 351 955 390 955 q 269 928 311 955 q 217 851 227 902 q 230 779 208 804 q 312 755 252 755 m 298 680 q 148 725 198 680 q 114 854 98 770 q 196 977 129 931 q 364 1023 263 1023 q 514 977 465 1023 q 548 855 563 931 q 497 755 537 795 l 623 755 l 600 641 q 609 544 586 566 q 662 522 632 522 q 736 545 708 522 q 777 641 764 569 l 800 755 l 897 755 l 875 642 q 791 506 858 552 q 651 461 724 461 q 535 506 585 461 q 503 641 486 552 l 511 680 l 298 680 m 665 302 q 695 146 646 203 q 831 89 744 89 q 979 140 900 89 q 1080 302 1059 191 l 1218 1012 l 1355 1012 l 1217 302 q 1078 61 1186 142 q 810 -20 970 -20 q 579 56 663 -20 q 528 302 495 132 l 665 302 m 1292 1269 l 1430 1269 l 1403 1130 l 1264 1130 l 1292 1269 "},"Ć":{"x_min":58,"x_max":964.265625,"ha":969,"o":"m 964 934 l 936 790 q 798 888 871 856 q 640 920 725 920 q 436 864 524 920 q 285 694 349 808 q 223 539 244 621 q 202 374 202 457 q 273 163 202 236 q 481 91 345 91 q 662 121 575 91 q 831 211 749 151 l 799 49 q 636 -2 718 15 q 471 -20 554 -20 q 167 85 276 -20 q 58 380 58 191 q 99 617 58 501 q 218 831 141 734 q 407 982 301 933 q 655 1031 513 1031 q 819 1006 741 1031 q 964 934 897 982 m 728 1288 l 868 1288 l 660 1109 l 553 1109 l 728 1288 "},"ẓ":{"x_min":-4.0625,"x_max":754.125,"ha":729,"o":"m 161 760 l 754 760 l 731 645 l 160 100 l 632 100 l 612 0 l -4 0 l 18 114 l 590 660 l 141 660 l 161 760 m 198 -118 l 335 -118 l 309 -256 l 170 -256 l 198 -118 "},"↫":{"x_min":68,"x_max":1084,"ha":1164,"o":"m 793 493 l 881 493 q 914 499 899 493 q 943 518 930 506 q 962 548 955 530 q 969 581 969 563 q 962 615 969 600 q 943 645 955 633 q 914 664 930 657 q 881 671 899 671 q 847 664 862 671 q 818 645 831 657 q 799 615 807 634 q 793 581 793 600 l 793 493 m 678 493 l 678 581 q 692 659 678 623 q 737 726 708 698 q 803 771 769 756 q 880 786 838 786 q 958 771 924 786 q 1024 726 997 753 q 1069 660 1054 695 q 1084 581 1084 623 q 1069 504 1084 541 q 1024 437 1053 465 q 958 392 992 407 q 881 378 922 378 l 793 378 l 793 229 l 678 229 l 678 378 l 257 378 l 415 220 l 334 138 l 68 405 l 68 465 l 334 733 l 415 651 l 257 493 l 678 493 "},"Ͱ":{"x_min":37.984375,"x_max":788.703125,"ha":909,"o":"m 766 482 l 268 482 l 174 0 l 37 0 l 234 1012 l 371 1012 l 290 597 l 788 597 l 766 482 "},"Ğ":{"x_min":62,"x_max":1006.234375,"ha":1075,"o":"m 757 150 l 810 416 l 585 416 l 606 529 l 965 529 l 878 82 q 681 6 787 33 q 467 -20 575 -20 q 169 85 276 -20 q 62 380 62 191 q 127 678 62 537 q 308 914 192 820 q 466 1002 380 973 q 657 1031 552 1031 q 839 1006 752 1031 q 1006 934 926 982 l 978 788 q 835 886 917 852 q 660 920 753 920 q 470 878 552 920 q 324 751 388 837 q 237 578 269 678 q 206 376 206 479 q 278 162 206 234 q 494 91 351 91 q 633 106 566 91 q 757 150 701 121 m 463 1288 l 543 1288 q 578 1229 551 1247 q 656 1211 604 1211 q 751 1229 714 1211 q 807 1289 787 1248 l 888 1289 q 802 1168 865 1212 q 653 1125 740 1125 q 524 1165 571 1125 q 463 1288 476 1206 "},"Ї":{"x_min":37.296875,"x_max":535.75,"ha":410,"o":"m 133 1269 l 271 1269 l 244 1131 l 107 1131 l 133 1269 m 398 1269 l 535 1269 l 509 1131 l 372 1131 l 398 1269 m 234 1013 l 372 1013 l 174 0 l 37 0 l 234 1013 "},"Ṁ":{"x_min":37.296875,"x_max":1161.03125,"ha":1198,"o":"m 669 1269 l 807 1269 l 780 1130 l 641 1130 l 669 1269 m 234 1013 l 440 1013 l 558 330 l 950 1013 l 1161 1013 l 963 0 l 830 0 l 1003 888 l 605 195 l 472 195 l 343 890 l 170 0 l 37 0 l 234 1013 "},"𝕒":{"x_min":83,"x_max":794,"ha":919,"o":"m 726 433 q 675 622 726 576 q 583 683 624 667 q 634 528 634 620 l 634 68 l 726 68 l 726 433 m 794 433 l 794 0 l 566 0 l 566 115 q 459 12 523 45 q 337 -20 395 -20 q 151 45 220 -20 q 83 220 83 110 q 168 413 83 348 q 424 479 254 479 l 566 479 l 566 528 q 526 661 566 614 q 384 709 486 709 q 257 693 319 709 q 139 646 195 677 l 139 725 q 295 764 219 751 q 408 778 370 778 q 698 692 602 778 q 794 433 794 607 m 566 353 l 566 411 l 424 411 q 356 408 387 411 l 356 50 q 453 76 419 50 q 526 151 486 103 q 566 353 566 200 m 288 52 l 288 396 q 196 349 242 384 q 151 220 151 314 q 192 100 151 140 q 288 52 233 61 "},"ໝ":{"x_min":62.359375,"x_max":1389.8125,"ha":1428,"o":"m 338 654 q 303 697 347 697 q 251 654 260 697 q 286 611 242 611 q 338 654 329 611 m 663 654 q 629 698 672 698 q 577 654 585 698 q 612 611 568 611 q 663 654 655 611 m 1094 580 l 1008 135 q 1065 99 1008 99 q 1154 209 1133 99 l 1265 780 l 1389 780 l 1279 209 q 1047 -10 1236 -10 q 958 20 981 -10 q 706 -10 908 -10 l 731 116 q 906 254 879 116 l 970 579 q 932 668 987 668 q 828 630 872 668 q 769 585 797 604 l 696 209 q 354 -16 653 -16 q 66 188 26 -16 q 240 512 101 369 q 135 647 114 544 q 319 793 164 793 q 451 648 481 793 q 337 475 432 554 q 197 193 226 381 q 373 86 181 86 q 571 209 548 86 l 628 504 q 594 500 614 500 l 592 500 q 470 662 438 500 q 640 799 497 799 q 773 731 750 799 q 965 798 863 798 q 1094 580 1136 798 "},"Ⴋ":{"x_min":18,"x_max":1067.390625,"ha":1101,"o":"m 404 537 q 321 521 361 537 q 250 478 282 505 q 195 413 218 450 q 164 331 172 375 q 160 288 160 308 q 166 240 160 268 q 193 185 172 212 q 248 141 214 157 q 325 126 282 126 q 406 141 367 126 q 476 185 444 157 q 528 250 507 212 q 558 331 550 287 l 598 537 l 404 537 m 811 20 l 912 537 l 738 537 l 698 331 q 647 202 685 262 q 556 97 609 141 q 436 26 502 52 q 301 0 371 0 q 173 26 230 0 q 78 97 116 52 q 29 187 41 141 q 18 268 18 234 q 24 331 18 299 q 76 462 38 401 q 169 566 114 522 q 291 635 224 610 q 429 661 358 661 l 623 661 l 673 918 l 240 918 l 264 1043 l 836 1043 l 762 661 l 1067 661 l 942 20 l 811 20 "},"┐":{"x_min":-13.0625,"x_max":473,"ha":837,"o":"m 364 -419 l 364 336 l -13 336 l -13 453 l 473 453 l 473 -419 l 364 -419 "},"ʚ":{"x_min":40.703125,"x_max":839.0625,"ha":922,"o":"m 450 670 q 316 638 369 670 q 254 564 263 607 q 286 485 245 516 q 404 456 325 456 l 509 456 l 489 353 l 389 353 q 240 318 295 353 q 168 220 180 280 q 206 121 156 159 q 358 84 256 84 q 587 162 501 84 q 696 378 668 237 q 671 595 723 518 q 450 670 620 670 m 461 779 q 782 671 700 779 q 828 379 863 565 q 670 87 792 195 q 335 -20 548 -20 q 98 41 174 -20 q 46 220 23 103 q 116 343 60 293 q 260 409 172 392 q 155 469 187 425 q 134 576 122 513 q 241 725 153 672 q 461 779 328 779 "},"↶":{"x_min":30.921875,"x_max":1110,"ha":1164,"o":"m 386 472 l 543 630 l 624 549 l 358 283 l 298 283 l 30 549 l 112 630 l 271 472 l 271 506 q 302 668 271 592 q 394 805 332 741 q 530 896 455 863 q 690 928 603 928 q 850 896 777 928 q 986 805 925 863 q 1078 668 1048 741 q 1110 506 1110 592 l 995 506 q 972 624 995 569 q 905 724 950 679 q 806 790 864 764 q 691 813 756 813 q 574 790 627 813 q 475 724 518 766 q 408 624 432 680 q 386 506 386 569 l 386 472 "},"ῖ":{"x_min":81.953125,"x_max":570.34375,"ha":470,"o":"m 314 929 l 284 966 q 264 984 275 977 q 242 993 253 990 q 199 968 216 993 q 170 888 181 943 l 85 888 q 149 1029 105 980 q 254 1079 193 1079 q 301 1068 280 1079 q 341 1037 323 1058 l 373 1000 q 390 983 381 989 q 413 974 400 977 q 455 998 438 974 q 485 1079 472 1022 l 570 1079 q 506 937 550 986 q 400 888 463 888 q 352 898 375 888 q 314 929 330 908 m 314 759 l 219 267 q 217 138 200 169 q 307 105 234 105 l 368 105 l 347 0 l 272 0 q 107 65 150 0 q 92 275 65 131 l 186 759 l 314 759 "},"𝌔":{"x_min":115,"x_max":1130,"ha":1245,"o":"m 119 917 l 1115 917 l 1120 912 l 1120 785 l 1115 781 l 119 781 l 115 785 l 115 912 l 119 917 m 119 657 l 519 657 l 523 652 l 523 525 l 519 521 l 119 521 l 115 525 l 115 652 l 119 657 m 716 657 l 1115 657 l 1120 652 l 1120 525 l 1115 521 l 716 521 l 712 525 l 712 652 l 716 657 m 119 396 l 519 396 l 523 391 l 523 264 l 519 260 l 119 260 l 115 264 l 115 391 l 119 396 m 716 396 l 1115 396 l 1120 391 l 1120 264 l 1115 260 l 716 260 l 712 264 l 712 391 l 716 396 m 345 0 l 115 0 l 115 136 l 345 136 l 345 0 m 900 0 l 900 136 l 1130 136 l 1130 0 l 900 0 m 737 0 l 508 0 l 508 136 l 737 136 l 737 0 "},"ᓿ":{"x_min":-50.859375,"x_max":979.953125,"ha":1047,"o":"m 841 572 l 979 572 l 952 433 l 814 433 l 841 572 m 92 30 l 86 0 l -50 0 l -36 74 q 211 479 18 354 q 583 604 405 604 l 662 1012 l 799 1012 l 698 493 l 631 493 q 275 383 412 493 q 92 30 139 274 m 741 1269 l 878 1269 l 852 1130 l 713 1130 l 741 1269 "},"ԝ":{"x_min":144,"x_max":1137.046875,"ha":1136,"o":"m 144 760 l 257 760 l 257 148 l 556 760 l 722 760 l 722 148 l 1012 760 l 1137 760 l 789 0 l 625 0 l 625 629 l 316 0 l 144 0 l 144 760 "},"𝕠":{"x_min":77,"x_max":774,"ha":850,"o":"m 425 778 q 681 672 588 778 q 774 379 774 566 q 681 86 774 192 q 425 -20 588 -20 q 169 86 262 -20 q 77 379 77 192 q 169 672 77 566 q 425 778 262 778 m 350 55 q 425 48 384 48 q 501 55 466 48 l 501 702 q 425 710 466 710 q 350 702 384 710 l 350 55 m 282 80 l 282 677 q 220 627 246 657 q 145 379 145 540 q 220 130 145 217 q 282 80 246 100 m 569 676 l 569 81 q 630 130 603 100 q 706 379 706 218 q 630 627 706 540 q 569 676 603 657 "},"⠘":{"x_min":610,"x_max":813,"ha":1016,"o":"m 610 1085 l 813 1085 l 813 882 l 610 882 l 610 1085 m 610 700 l 813 700 l 813 497 l 610 497 l 610 700 "},"ᕈ":{"x_min":37.984375,"x_max":837.796875,"ha":838,"o":"m 212 900 l 234 1013 l 543 1013 q 786 935 714 1013 q 829 710 858 858 q 698 483 800 560 q 426 407 596 407 l 254 407 l 174 0 l 37 0 l 139 520 l 448 520 q 605 569 543 520 q 684 710 667 618 q 660 850 702 801 q 522 900 617 900 l 212 900 "},"à":{"x_min":57,"x_max":760,"ha":852,"o":"m 746 432 l 661 0 l 536 0 l 559 114 q 434 13 504 46 q 278 -20 364 -20 q 119 39 181 -20 q 57 191 57 98 q 163 401 57 324 q 455 479 269 479 l 629 479 l 636 512 q 638 524 637 517 q 639 544 639 530 q 589 638 639 604 q 451 672 540 672 q 326 656 390 672 q 194 609 262 640 l 216 724 q 354 764 286 751 q 485 777 422 777 q 689 719 619 777 q 760 549 760 661 q 756 497 760 527 q 746 432 753 466 m 611 381 l 486 381 q 259 340 333 381 q 185 213 185 299 q 223 119 185 153 q 327 85 261 85 q 505 158 429 85 q 605 353 581 231 l 611 381 m 465 1110 l 607 857 l 502 857 l 331 1110 l 465 1110 "},"⡂":{"x_min":203,"x_max":406,"ha":1016,"o":"m 203 701 l 406 701 l 406 498 l 203 498 l 203 701 m 203 -68 l 406 -68 l 406 -271 l 203 -271 l 203 -68 "},"♲":{"x_min":117,"x_max":1129,"ha":1245,"o":"m 548 984 l 816 984 q 875 935 855 984 l 927 845 l 994 883 l 999 883 q 1003 878 1003 883 l 885 675 l 649 675 l 646 678 l 646 681 q 714 721 658 693 l 714 725 q 575 959 586 945 q 545 977 545 974 l 545 980 l 548 984 m 468 972 l 483 972 q 597 885 559 972 q 618 845 618 851 q 487 621 498 632 l 485 621 q 278 742 280 737 l 278 744 q 396 940 385 935 q 468 972 426 972 m 613 956 l 613 954 l 749 714 l 735 704 l 735 702 l 871 702 l 936 819 l 917 810 q 829 952 840 944 l 816 956 l 613 956 m 315 750 l 478 657 l 586 846 q 492 944 544 944 l 473 944 q 386 874 416 944 l 315 750 m 1013 693 q 1125 497 1025 682 l 1129 469 l 1129 456 q 1075 358 1129 403 q 1035 346 1059 346 l 936 346 q 806 568 928 353 l 806 572 l 1013 693 m 842 561 l 948 373 l 1038 373 q 1100 443 1075 373 l 1100 461 q 1068 546 1100 499 l 1004 655 q 842 561 849 568 m 341 640 l 354 640 q 440 495 360 640 q 475 433 475 442 l 471 430 l 468 430 l 400 468 q 267 236 278 258 l 265 221 l 269 194 l 264 191 l 262 191 q 130 414 247 209 q 117 452 117 432 l 117 457 q 174 565 117 476 l 188 593 l 186 593 l 119 632 l 119 636 l 122 640 l 341 640 m 209 614 l 209 610 l 221 602 l 223 602 l 223 600 q 145 461 223 595 l 145 454 q 250 264 145 436 l 386 501 l 387 501 l 407 495 l 407 497 l 342 614 l 209 614 m 775 411 l 778 411 l 782 407 l 782 329 l 1033 329 q 1086 351 1061 329 l 1087 351 l 1091 347 l 1091 346 q 954 104 1086 331 q 914 85 937 85 l 782 85 l 782 2 l 778 0 l 773 0 q 656 204 656 195 l 656 206 l 775 411 m 600 329 l 606 323 l 606 88 l 602 85 l 400 85 q 289 175 321 85 l 285 201 l 285 210 q 344 329 285 244 l 600 329 m 751 320 l 687 203 l 751 88 l 755 88 l 755 93 q 760 113 755 113 l 917 113 q 964 178 932 113 l 1035 301 l 760 301 q 755 314 755 301 l 755 320 l 751 320 m 358 301 q 313 210 317 234 l 313 203 q 374 117 313 146 l 394 113 l 578 113 l 578 301 l 358 301 "},"ᔖ":{"x_min":37,"x_max":1202,"ha":1239,"o":"m 544 292 l 593 368 q 736 549 645 454 q 944 645 827 645 q 1178 539 1144 645 q 1202 404 1202 470 q 1195 332 1202 368 q 1080 109 1172 219 q 818 0 987 0 l 840 112 q 993 189 949 112 q 1050 332 1037 267 q 1056 389 1056 362 q 1037 473 1056 436 q 921 530 1008 530 q 786 460 844 530 q 694 332 728 391 l 645 256 q 502 75 593 170 q 294 -20 412 -20 q 60 85 94 -20 q 37 220 37 154 q 43 292 37 256 q 155 517 66 409 q 420 625 244 625 l 398 513 q 241 435 282 513 q 188 292 201 357 q 183 237 183 263 q 203 151 183 188 q 317 95 234 95 q 453 164 395 95 q 544 292 511 233 m 650 883 l 788 883 l 761 744 l 622 744 l 650 883 "},"ᒰ":{"x_min":122.75,"x_max":1127.125,"ha":1036,"o":"m 149 572 l 288 572 l 261 433 l 122 433 l 149 572 m 300 0 l 497 1013 l 1127 1013 l 1104 898 l 611 898 l 437 0 l 300 0 m 773 1269 l 910 1269 l 884 1130 l 745 1130 l 773 1269 "},"ҁ":{"x_min":64,"x_max":742.25,"ha":764,"o":"m 373 0 q 120 101 196 0 q 64 285 64 178 q 73 379 64 329 q 232 671 109 565 q 532 778 354 778 q 643 766 590 778 q 742 730 695 754 l 719 613 q 622 657 672 643 q 517 672 572 672 q 314 595 396 672 q 205 379 232 518 q 197 304 197 339 q 232 176 197 229 q 406 100 285 100 l 572 100 l 496 -288 l 360 -288 l 416 0 l 373 0 "},"ꜞ":{"x_min":77.3125,"x_max":273.984375,"ha":351,"o":"m 255 924 l 168 924 l 187 1020 l 273 1020 l 255 924 m 164 453 l 77 453 l 125 702 l 160 838 l 229 838 l 212 702 l 164 453 "},"☯":{"x_min":115,"x_max":1130,"ha":1245,"o":"m 623 515 l 623 497 q 690 336 623 401 q 857 271 758 271 q 1026 341 957 271 q 1096 515 1096 411 q 954 842 1096 704 q 619 981 813 981 q 287 849 420 981 q 155 505 155 717 q 225 682 164 622 q 388 743 286 743 q 554 677 486 743 q 623 515 623 612 m 927 505 q 906 458 927 478 q 860 439 885 439 q 811 458 831 439 q 791 505 791 478 q 811 554 791 534 q 860 575 831 575 q 907 554 887 575 q 927 505 927 534 m 453 505 q 433 554 453 534 q 385 575 413 575 q 338 554 357 575 q 318 505 318 534 q 338 458 318 478 q 385 439 357 439 q 433 459 413 439 q 453 505 453 479 m 1130 506 q 981 147 1130 295 q 622 0 833 0 q 263 147 412 0 q 115 506 115 295 q 263 866 115 717 q 622 1015 412 1015 q 981 866 833 1015 q 1130 506 1130 717 "},"⡫":{"x_min":203,"x_max":813,"ha":1016,"o":"m 203 1085 l 406 1085 l 406 882 l 203 882 l 203 1085 m 203 701 l 406 701 l 406 498 l 203 498 l 203 701 m 610 1085 l 813 1085 l 813 882 l 610 882 l 610 1085 m 610 317 l 813 317 l 813 114 l 610 114 l 610 317 m 203 -68 l 406 -68 l 406 -271 l 203 -271 l 203 -68 "},"ງ":{"x_min":33.625,"x_max":630.546875,"ha":669,"o":"m 152 632 q 229 749 167 709 q 442 789 292 789 q 615 433 684 789 l 532 10 q 429 -249 497 -168 q 222 -331 361 -331 q 52 -259 78 -331 q 36 -90 26 -187 l 163 -90 q 244 -229 163 -229 q 393 -64 361 -229 l 489 433 q 449 678 537 678 q 443 641 449 663 q 266 502 413 502 q 152 632 125 502 m 306 682 q 253 638 260 682 q 289 594 244 594 q 340 638 333 594 q 306 682 350 682 "},"ᑯ":{"x_min":0.390625,"x_max":836.859375,"ha":873,"o":"m 312 89 q 461 140 381 89 q 561 302 540 191 q 532 458 581 401 q 396 516 482 516 q 253 465 331 516 q 153 302 176 415 q 182 144 134 199 q 312 89 229 89 m 615 574 l 699 1012 l 836 1012 l 699 302 q 559 61 668 142 q 291 -20 451 -20 q 60 56 144 -20 q 9 301 -23 132 q 149 542 40 461 q 417 624 257 624 q 615 574 537 624 "},"e":{"x_min":64,"x_max":793,"ha":855,"o":"m 667 447 q 670 469 669 457 q 672 492 672 481 q 623 623 672 575 q 491 672 575 672 q 327 613 398 672 q 219 447 256 554 l 667 447 m 776 350 l 195 350 q 190 309 191 324 q 189 283 189 294 q 247 137 189 189 q 410 85 305 85 q 564 104 492 85 q 699 157 637 122 l 676 34 q 537 -6 608 7 q 392 -20 465 -20 q 149 55 234 -20 q 64 270 64 131 q 106 491 64 389 q 230 673 148 593 q 356 750 283 723 q 511 777 429 777 q 716 700 640 777 q 793 493 793 623 q 788 426 793 461 q 776 350 784 390 "},"⊏":{"x_min":147,"x_max":1016.125,"ha":1163,"o":"m 147 789 l 1016 789 l 1016 674 l 262 674 l 262 115 l 1016 115 l 1016 0 l 147 0 l 147 789 "},"ᐮ":{"x_min":65.78125,"x_max":1429.578125,"ha":1551,"o":"m 878 826 l 185 506 l 754 184 l 878 826 m 833 0 l 65 428 l 95 583 l 1030 1012 l 833 0 m 1429 558 l 1342 495 l 1062 929 l 1149 992 l 1429 558 "},"ᑦ":{"x_min":84.984375,"x_max":581.1875,"ha":603,"o":"m 485 528 l 471 453 l 396 453 q 138 521 212 453 q 92 736 64 590 q 221 951 121 882 q 506 1020 321 1020 l 581 1020 l 566 945 l 479 945 q 278 895 340 945 q 195 736 217 845 q 227 569 171 611 q 398 528 284 528 l 485 528 "},"𝌀":{"x_min":115,"x_max":1130,"ha":1245,"o":"m 345 326 l 115 326 l 115 462 l 345 462 l 345 326 m 900 326 l 900 462 l 1130 462 l 1130 326 l 900 326 m 737 326 l 508 326 l 508 462 l 737 462 l 737 326 "},"ò":{"x_min":64,"x_max":786,"ha":850,"o":"m 352 -20 q 141 62 219 -20 q 64 287 64 144 q 90 455 64 370 q 160 600 117 541 q 310 734 227 690 q 497 777 392 777 q 706 697 626 777 q 786 486 786 616 q 759 306 786 395 q 690 157 733 216 q 541 23 623 66 q 352 -20 458 -20 m 194 291 q 236 137 194 188 q 367 85 279 85 q 574 195 492 85 q 657 473 657 304 q 613 621 657 571 q 483 672 569 672 q 358 639 413 672 q 260 539 303 606 q 211 424 228 488 q 194 291 194 359 m 475 1110 l 617 857 l 512 857 l 342 1110 l 475 1110 "},"ℎ":{"x_min":48.609375,"x_max":786,"ha":880,"o":"m 773 458 l 684 0 l 559 0 l 648 453 q 657 509 654 485 q 661 548 661 534 q 625 637 661 605 q 524 669 589 669 q 350 601 424 669 q 255 420 277 533 l 173 0 l 48 0 l 254 1055 l 378 1055 l 298 639 q 419 740 345 703 q 574 778 493 778 q 730 723 675 778 q 786 571 786 669 q 782 518 786 546 q 773 458 779 490 "},"♻":{"x_min":116.21875,"x_max":1127,"ha":1245,"o":"m 549 977 l 813 977 q 875 920 852 977 l 925 835 l 991 873 l 996 873 l 996 871 q 879 670 889 685 l 647 670 l 647 674 q 716 716 712 710 l 581 956 q 549 974 557 974 l 549 977 m 479 970 q 579 908 551 970 l 612 849 l 481 625 q 282 743 300 730 q 398 938 383 919 q 479 970 431 970 m 1013 681 q 1127 477 1127 493 l 1127 450 q 1061 342 1127 381 q 1024 337 1051 337 l 939 337 q 811 560 929 347 q 963 651 827 575 l 1013 681 m 351 632 q 468 429 467 437 l 392 471 q 259 237 261 248 l 259 209 l 261 190 l 258 190 l 121 425 l 116 447 q 173 555 118 468 q 191 590 191 583 l 123 629 l 123 632 l 277 632 l 351 632 m 771 396 l 773 396 l 773 318 l 1040 318 q 1082 336 1062 318 l 1085 336 q 948 93 1085 329 q 910 78 931 78 l 773 78 l 773 0 l 769 0 l 655 198 l 771 396 m 591 318 l 595 313 l 595 81 l 591 78 l 394 78 q 284 164 316 78 l 281 197 q 338 318 281 229 l 591 318 "},"Ȣ":{"x_min":26,"x_max":921,"ha":970,"o":"m 479 480 q 272 427 354 480 q 171 284 189 375 q 168 245 168 264 q 216 141 168 181 q 402 89 277 89 q 610 141 527 89 q 710 284 693 193 q 715 323 715 304 q 667 427 715 387 q 479 480 605 480 m 512 853 q 358 810 424 853 q 282 714 292 768 q 281 701 281 707 q 327 618 281 660 q 500 588 362 588 q 686 632 614 588 q 778 768 760 676 q 785 827 785 802 q 753 905 785 884 q 603 960 689 960 l 616 1031 q 859 960 770 1031 q 921 823 921 909 q 915 768 921 797 q 829 620 898 681 q 652 538 760 560 q 816 448 764 515 q 855 333 855 398 q 849 284 855 310 q 699 58 820 137 q 381 -20 579 -20 q 95 58 184 -20 q 26 217 26 118 q 32 284 26 249 q 130 448 51 381 q 329 538 208 515 q 180 607 217 559 q 145 702 145 655 q 146 727 145 715 q 263 871 164 815 q 525 922 351 922 l 512 853 "},"￼":{"x_min":0,"x_max":0,"ha":0},"⠆":{"x_min":203,"x_max":406,"ha":1016,"o":"m 203 700 l 406 700 l 406 497 l 203 497 l 203 700 m 203 316 l 406 316 l 406 113 l 203 113 l 203 316 "},"┲":{"x_min":-13.8125,"x_max":849.484375,"ha":836,"o":"m 309 -419 l 309 336 l -13 336 l -13 453 l 309 453 l 309 511 l 849 511 l 849 278 l 526 278 l 526 -419 l 309 -419 "},"⁻":{"x_min":93,"x_max":640,"ha":733,"o":"m 93 729 l 640 729 l 640 665 l 93 665 l 93 729 "},"ṉ":{"x_min":48.609375,"x_max":786,"ha":880,"o":"m 773 458 l 684 0 l 559 0 l 648 453 q 657 509 654 485 q 661 548 661 534 q 625 637 661 605 q 524 669 589 669 q 351 602 424 669 q 256 420 279 535 l 173 0 l 48 0 l 195 759 l 320 759 l 295 639 q 420 741 347 705 q 574 778 494 778 q 730 723 675 778 q 786 571 786 669 q 782 518 786 546 q 773 458 779 490 m 104 -118 l 510 -118 l 490 -218 l 85 -218 l 104 -118 "},"ᵒ":{"x_min":41.984375,"x_max":493.78125,"ha":574,"o":"m 390 784 q 299 829 362 829 q 191 784 236 829 q 130 665 145 741 q 143 545 115 588 q 236 501 172 501 q 344 545 299 501 q 404 665 389 589 q 390 784 419 740 m 311 888 q 461 829 413 888 q 487 665 507 770 q 397 501 467 560 q 224 442 326 442 q 74 501 121 442 q 48 665 27 560 q 138 829 68 770 q 311 888 208 888 "},"ѻ":{"x_min":64,"x_max":983,"ha":1053,"o":"m 542 111 l 573 111 q 744 176 682 111 q 841 379 817 254 q 849 455 849 418 q 822 581 849 523 q 677 647 792 647 l 647 647 q 632 632 640 639 q 601 614 618 621 q 567 608 585 608 q 536 614 550 608 q 513 632 523 621 q 504 647 507 639 l 474 647 q 303 582 364 647 q 205 379 229 504 q 196 292 196 332 q 223 175 196 223 q 370 111 259 111 l 400 111 q 414 125 406 118 q 445 144 429 137 q 479 151 461 151 q 510 144 496 151 q 534 125 527 135 q 542 111 538 118 m 383 19 l 352 19 q 114 111 178 19 q 64 286 64 185 q 73 379 64 330 q 218 646 104 536 q 492 739 315 739 l 523 739 q 536 752 529 745 q 567 770 547 762 q 601 777 583 777 q 632 770 618 777 q 655 752 649 762 q 664 739 660 745 l 695 739 q 932 646 869 739 q 983 471 983 572 q 973 379 983 428 q 828 111 943 221 q 555 19 732 19 l 524 19 q 510 5 518 12 q 479 -12 500 -4 q 445 -19 463 -19 q 414 -12 428 -19 q 391 5 398 -4 q 383 19 387 12 "},"ˆ":{"x_min":229.21875,"x_max":662.578125,"ha":694,"o":"m 445 1111 l 545 1111 l 662 856 l 568 856 l 482 1016 l 323 856 l 229 856 l 445 1111 "},"ū":{"x_min":79,"x_max":817.390625,"ha":880,"o":"m 92 301 l 181 759 l 306 759 l 217 306 q 208 249 211 272 q 205 209 205 225 q 240 120 205 152 q 339 89 275 89 q 513 156 440 89 q 609 339 586 224 l 692 759 l 817 759 l 670 0 l 545 0 l 570 119 q 444 16 517 53 q 289 -20 371 -20 q 134 34 190 -20 q 79 187 79 89 q 82 238 79 207 q 92 301 85 268 m 366 1034 l 771 1034 l 752 934 l 346 934 l 366 1034 "},"䷌":{"x_min":115,"x_max":1120,"ha":1245,"o":"m 119 574 l 1115 574 l 1120 569 l 1120 442 l 1115 438 l 119 438 l 115 442 l 115 569 l 119 574 m 119 794 l 1115 794 l 1120 789 l 1120 662 l 1115 658 l 119 658 l 115 662 l 115 789 l 119 794 m 119 1013 l 1115 1013 l 1120 1008 l 1120 881 l 1115 877 l 119 877 l 115 881 l 115 1008 l 119 1013 m 119 -84 l 1115 -84 l 1120 -88 l 1120 -215 l 1115 -220 l 119 -220 l 115 -215 l 115 -88 l 119 -84 m 119 135 l 518 135 l 523 130 l 523 3 l 518 -1 l 119 -1 l 115 3 l 115 130 l 119 135 m 716 135 l 1115 135 l 1120 130 l 1120 3 l 1115 -1 l 716 -1 l 712 3 l 712 130 l 716 135 m 119 355 l 1115 355 l 1120 350 l 1120 223 l 1115 219 l 119 219 l 115 223 l 115 350 l 119 355 "},"ꙗ":{"x_min":57.15625,"x_max":1085,"ha":1177,"o":"m 936 381 l 811 381 q 584 340 658 381 q 510 213 510 299 q 548 119 510 153 q 652 85 586 85 q 830 158 754 85 q 930 353 906 231 l 936 381 m 1071 432 l 986 0 l 861 0 l 884 114 q 759 13 829 47 q 603 -20 689 -20 q 444 39 506 -20 q 382 191 382 98 q 436 353 382 286 l 251 353 l 181 0 l 57 0 l 205 759 l 329 759 l 270 456 l 601 456 q 780 479 679 479 l 954 479 l 961 512 q 963 524 962 517 q 964 544 964 530 q 914 638 964 604 q 776 672 865 672 q 651 656 715 672 q 519 609 587 640 l 541 724 q 679 764 611 751 q 810 777 747 777 q 1014 719 944 777 q 1085 549 1085 661 q 1081 497 1085 527 q 1071 432 1078 468 "},"☬":{"x_min":115,"x_max":871,"ha":986,"o":"m 493 1016 q 593 964 538 1016 l 581 954 l 570 869 q 691 784 656 838 q 729 671 729 729 q 591 470 729 536 l 591 420 l 510 420 l 510 338 q 688 426 591 338 q 779 666 779 532 q 694 863 779 785 l 708 876 l 712 876 q 871 589 871 764 q 769 182 871 393 q 634 301 688 301 q 596 270 596 301 q 678 151 596 251 q 699 94 699 124 q 661 54 690 54 q 613 75 617 48 q 508 270 572 237 l 508 168 q 564 40 508 119 q 493 0 564 0 q 418 41 418 0 q 472 171 472 119 l 472 270 q 368 77 368 207 q 320 54 363 54 q 283 94 292 54 q 335 194 283 137 q 385 273 387 251 q 353 301 385 301 q 219 183 298 301 q 115 605 115 379 q 269 876 115 763 l 272 876 l 287 863 q 202 663 202 781 q 347 382 202 492 q 473 338 390 350 l 473 420 l 392 420 l 392 470 q 253 671 253 532 q 414 869 253 800 l 398 954 l 387 966 q 493 1016 446 1016 m 307 667 q 398 518 307 568 l 401 518 q 449 683 449 589 q 429 825 449 739 q 334 758 368 808 q 307 667 307 715 m 556 825 q 534 680 534 747 q 577 518 534 587 q 675 673 675 559 q 556 825 675 776 "},"ᕂ":{"x_min":129.328125,"x_max":1251.90625,"ha":1272,"o":"m 197 605 l 334 605 l 275 303 q 313 140 253 191 q 441 89 373 89 q 586 139 505 89 q 691 303 668 189 l 750 605 l 1251 605 l 1229 490 l 864 490 l 828 303 q 688 61 796 143 q 420 -20 579 -20 q 183 61 260 -20 q 138 302 107 142 l 197 605 "},"ֺ":{"x_min":-9.5,"x_max":112.578125,"ha":0,"o":"m 10 970 l 112 970 l 92 868 l -9 868 l 10 970 "},"✘":{"x_min":171,"x_max":1047,"ha":1164,"o":"m 925 1027 q 963 1006 944 1027 q 982 952 976 991 q 1006 949 999 952 q 1037 932 1028 941 q 1047 909 1047 923 q 1036 871 1047 882 q 713 510 873 722 q 914 261 814 371 q 926 233 926 249 q 905 182 926 199 q 866 170 892 170 q 856 134 865 157 q 818 95 839 95 q 773 111 793 95 q 758 91 767 99 q 715 73 733 73 q 682 92 700 73 q 539 286 622 156 q 324 17 383 109 q 298 0 312 0 q 273 24 285 -1 q 262 54 263 45 q 236 46 248 46 q 199 66 219 46 q 175 101 175 90 q 195 150 175 120 q 183 161 189 152 q 171 193 171 177 q 187 229 171 208 q 408 492 275 348 q 258 801 325 620 q 244 862 244 843 q 259 913 244 880 q 285 935 270 935 q 335 908 302 935 q 342 935 335 918 q 369 969 358 969 q 408 950 399 969 q 581 691 480 817 q 907 1018 738 871 q 925 1027 915 1027 "},"⟱":{"x_min":60.234375,"x_max":1101.78125,"ha":1163,"o":"m 549 -5 l 60 485 l 141 567 l 204 504 l 204 1012 l 285 1012 l 285 422 l 428 279 l 428 1012 l 509 1012 l 509 198 l 581 127 l 653 198 l 653 1012 l 734 1012 l 734 279 l 877 422 l 877 1012 l 958 1012 l 958 504 l 1020 567 l 1101 485 l 612 -5 l 549 -5 "},"ᐰ":{"x_min":-87.671875,"x_max":839.75,"ha":950,"o":"m 56 0 l -87 0 l 495 1013 l 650 1013 l 839 0 l 697 0 l 546 878 l 56 0 m 835 1254 q 781 1122 835 1176 q 648 1068 727 1068 q 516 1122 570 1068 q 463 1254 463 1176 q 516 1386 463 1332 q 648 1440 570 1440 q 781 1386 727 1440 q 835 1254 835 1332 m 752 1254 q 722 1327 752 1297 q 648 1357 692 1357 q 574 1328 603 1357 q 546 1254 546 1299 q 574 1180 546 1209 q 648 1151 603 1151 q 723 1180 694 1151 q 752 1254 752 1209 "},"ȝ":{"x_min":-86.625,"x_max":679,"ha":724,"o":"m 454 312 q 512 295 486 308 q 555 265 538 283 q 582 227 571 248 q 598 185 594 205 q 603 144 603 164 q 555 13 603 78 q 420 -109 508 -51 q 202 -214 333 -166 q -86 -294 72 -262 l -67 -205 q 347 -44 214 -129 q 481 146 481 40 q 449 222 481 193 q 363 250 417 250 q 276 233 323 250 l 118 175 l 138 269 l 301 327 q 487 440 422 370 q 552 584 552 511 q 539 632 552 612 q 504 664 526 653 q 459 679 482 674 q 409 684 436 684 q 301 663 362 684 q 127 582 240 643 l 150 687 q 440 778 349 778 q 561 758 507 778 q 646 699 614 738 q 679 606 679 659 q 673 559 679 582 q 661 517 668 536 q 640 478 653 498 q 616 444 627 458 q 587 412 605 429 q 557 385 569 395 q 527 361 546 375 q 499 341 507 347 q 473 324 491 336 q 454 312 456 313 "},"∡":{"x_min":118.640625,"x_max":1091,"ha":1245,"o":"m 759 137 q 682 322 733 231 q 579 463 638 400 l 372 137 l 759 137 m 526 638 l 764 1012 l 929 1012 l 633 547 q 765 369 710 469 q 858 137 828 256 l 1091 137 l 1091 0 l 882 0 q 882 -73 882 -35 l 788 -73 q 784 0 788 -35 l 118 0 l 474 557 q 433 585 454 571 l 487 664 q 526 638 507 651 "},"☡":{"x_min":116.265625,"x_max":1129.21875,"ha":1245,"o":"m 738 1014 q 912 918 835 1014 q 948 813 948 866 q 863 653 948 719 l 416 240 l 409 198 q 474 120 409 138 l 1070 262 q 1129 196 1123 262 l 1129 194 q 1057 134 1129 134 l 472 0 q 290 117 363 0 q 272 191 272 153 l 272 207 q 366 374 272 301 q 800 778 787 759 q 808 811 808 796 q 741 887 808 865 l 734 887 l 162 749 q 116 803 123 749 l 116 823 q 182 875 116 866 l 192 875 l 738 1014 "},"ℕ":{"x_min":134,"x_max":978,"ha":1112,"o":"m 889 68 l 383 945 l 222 945 l 728 68 l 889 68 m 134 1013 l 421 1013 l 910 165 l 910 1013 l 978 1013 l 978 0 l 690 0 l 202 847 l 202 0 l 134 0 l 134 1013 "},"ᕕ":{"x_min":33,"x_max":843.015625,"ha":951,"o":"m 208 92 q 266 112 242 92 q 294 156 289 133 q 296 170 296 163 q 281 208 296 191 q 234 231 264 231 q 176 215 200 231 q 145 156 153 199 q 143 140 143 147 q 155 107 143 119 q 208 92 172 92 m 94 310 l 498 1013 l 653 1013 l 843 0 l 700 0 l 549 878 l 247 334 q 375 280 332 334 q 409 188 409 239 q 406 156 409 172 q 324 29 390 78 q 186 -20 258 -20 q 185 -20 185 -20 q 71 32 120 -20 q 33 125 33 73 q 36 156 33 140 q 94 310 52 238 "},"œ":{"x_min":64,"x_max":1367,"ha":1428,"o":"m 1350 350 l 770 350 q 766 314 767 331 q 764 283 764 297 q 821 137 764 189 q 985 85 879 85 q 1139 104 1066 85 q 1275 157 1213 122 l 1250 34 q 1111 -6 1182 7 q 966 -20 1040 -20 q 779 17 857 -20 q 669 121 701 54 q 522 15 601 50 q 352 -20 444 -20 q 143 60 223 -20 q 64 271 64 141 q 89 452 64 364 q 160 600 115 540 q 310 734 227 690 q 497 777 393 777 q 653 738 585 777 q 757 625 720 698 q 906 739 824 701 q 1084 777 988 777 q 1290 700 1214 777 q 1367 493 1367 623 q 1362 426 1367 461 q 1350 350 1358 390 m 1241 447 q 1244 469 1243 457 q 1246 492 1246 481 q 1197 623 1246 575 q 1065 672 1149 672 q 901 613 972 672 q 793 447 830 554 l 1241 447 m 194 291 q 237 137 194 188 q 367 85 280 85 q 575 194 492 85 q 657 471 657 302 q 613 621 657 571 q 483 672 569 672 q 358 639 413 672 q 260 539 303 606 q 211 424 228 488 q 194 291 194 359 "},"Ὲ":{"x_min":145.8125,"x_max":1114.90625,"ha":1118,"o":"m 279 1111 l 421 857 l 316 857 l 145 1111 l 279 1111 m 474 1013 l 1114 1013 l 1092 898 l 588 898 l 530 597 l 1013 597 l 991 482 l 507 482 l 437 115 l 952 115 l 930 0 l 277 0 l 474 1013 "},"⇦":{"x_min":37.296875,"x_max":1084,"ha":1163,"o":"m 314 616 l 133 435 l 314 254 l 314 344 l 1016 344 l 1016 527 l 314 527 l 314 616 m 382 90 l 37 435 l 382 780 l 382 595 l 1084 595 l 1084 276 l 382 276 l 382 90 "},"Ɵ":{"x_min":56,"x_max":1038,"ha":1094,"o":"m 456 -20 q 162 90 269 -20 q 56 393 56 201 q 97 617 56 503 q 212 822 139 732 q 404 979 298 927 q 637 1031 510 1031 q 930 921 823 1031 q 1038 622 1038 811 q 997 393 1038 505 q 880 188 956 280 q 689 31 793 83 q 456 -20 584 -20 m 866 481 l 218 481 q 209 377 209 425 q 251 202 209 273 q 466 91 317 91 q 721 198 616 91 q 866 481 826 306 m 884 596 q 884 635 884 616 q 841 808 884 736 q 627 920 776 920 q 368 808 478 920 q 246 596 288 726 l 884 596 "},"℆":{"x_min":31,"x_max":1373.515625,"ha":1433,"o":"m 576 970 l 551 844 q 461 894 496 883 q 389 906 427 906 q 311 891 348 906 q 250 851 275 877 q 185 751 208 808 q 162 632 162 693 q 195 527 162 560 q 300 494 229 494 q 377 505 336 494 q 495 554 418 516 l 470 425 q 375 395 420 404 q 283 387 330 387 q 96 448 162 387 q 31 619 31 509 q 63 786 31 710 q 161 925 96 863 q 267 989 206 967 q 399 1012 328 1012 q 482 1002 441 1012 q 576 970 524 993 m 1010 1044 l 1172 1044 l 315 -33 l 152 -33 l 1010 1044 m 793 227 l 862 583 l 990 583 l 920 227 q 913 185 915 202 q 911 157 911 168 q 932 99 911 118 q 995 80 954 80 q 1113 127 1062 80 q 1180 256 1164 174 l 1245 583 l 1373 583 l 1257 -14 l 1129 -14 l 1137 25 q 1082 0 1140 29 q 957 -28 1024 -28 q 829 17 875 -28 q 783 140 783 62 q 785 179 783 155 q 793 227 787 202 "},"ᓄ":{"x_min":19.28125,"x_max":1142,"ha":1183,"o":"m 751 115 q 909 164 848 115 q 987 302 970 213 q 994 360 994 333 q 951 466 994 430 q 830 517 894 517 q 688 466 765 517 q 588 302 610 416 q 584 261 584 281 q 609 171 584 211 q 751 115 645 115 m 728 0 l 19 0 l 41 115 l 458 115 q 435 222 435 159 q 443 302 435 259 q 582 544 474 462 q 850 626 691 626 q 1087 544 1011 626 q 1142 388 1142 486 q 1133 302 1142 348 q 1001 76 1104 152 q 728 0 898 0 "},"ᵛ":{"x_min":67.140625,"x_max":533.046875,"ha":579,"o":"m 67 878 l 150 878 l 231 521 l 449 878 l 533 878 l 271 453 l 164 453 l 67 878 "},"ș":{"x_min":15.234375,"x_max":694.328125,"ha":723,"o":"m 289 -117 l 432 -117 l 279 -334 l 192 -334 l 289 -117 m 694 736 l 670 618 q 566 659 621 645 q 452 673 511 673 q 297 639 354 673 q 241 548 241 605 q 372 445 241 480 q 387 440 382 442 l 427 428 q 594 356 552 394 q 636 252 636 318 q 540 55 636 131 q 288 -20 444 -20 q 161 -8 228 -20 q 15 27 95 2 l 39 155 q 174 102 108 120 q 301 84 240 84 q 450 123 393 84 q 508 223 508 162 q 357 328 508 288 l 344 331 l 301 342 q 163 408 207 367 q 119 513 119 449 q 210 705 119 634 q 458 777 301 777 q 578 766 519 777 q 694 736 637 756 "},"ἱ":{"x_min":81.953125,"x_max":387.234375,"ha":470,"o":"m 204 1007 l 223 1108 l 387 1108 l 366 1001 l 275 1001 q 346 895 254 895 l 332 826 q 204 1007 168 826 m 314 759 l 219 267 q 217 138 200 169 q 307 105 234 105 l 368 105 l 347 0 l 272 0 q 107 65 150 0 q 92 275 65 131 l 186 759 l 314 759 "},"𝘐":{"x_min":4.0625,"x_max":611.03125,"ha":616,"o":"m 200 1013 l 611 1013 l 588 898 l 452 898 l 300 115 l 437 115 l 415 0 l 4 0 l 26 115 l 162 115 l 314 898 l 177 898 l 200 1013 "},"ˈ":{"x_min":145,"x_max":237,"ha":381,"o":"m 237 1054 l 237 678 l 145 678 l 145 1054 l 237 1054 "},"ɘ":{"x_min":39.328125,"x_max":790.71875,"ha":855,"o":"m 82 411 q 223 679 115 580 q 485 777 332 777 q 735 668 656 777 q 779 372 815 558 q 617 85 743 191 q 309 -20 491 -20 q 168 -5 236 -20 q 39 38 101 9 l 62 156 q 186 103 122 121 q 322 85 250 85 q 528 153 446 85 q 644 350 611 220 l 71 350 l 82 411 m 214 447 l 659 447 q 619 613 670 554 q 463 672 568 672 q 303 610 371 672 q 214 447 236 549 "},"𝘏":{"x_min":37.296875,"x_max":1007.078125,"ha":1044,"o":"m 234 1012 l 372 1012 l 291 597 l 788 597 l 869 1012 l 1007 1012 l 809 0 l 672 0 l 766 482 l 269 482 l 174 0 l 37 0 l 234 1012 "},"ạ":{"x_min":57,"x_max":760,"ha":852,"o":"m 746 432 l 661 0 l 536 0 l 559 114 q 434 13 504 46 q 278 -20 364 -20 q 119 39 181 -20 q 57 191 57 98 q 163 401 57 324 q 455 479 269 479 l 629 479 l 636 512 q 638 524 637 517 q 639 544 639 530 q 589 638 639 604 q 451 672 540 672 q 326 656 390 672 q 194 609 262 640 l 216 724 q 354 764 286 751 q 485 777 422 777 q 689 719 619 777 q 760 549 760 661 q 756 497 760 527 q 746 432 753 466 m 611 381 l 486 381 q 259 340 333 381 q 185 213 185 299 q 223 119 185 153 q 327 85 261 85 q 505 158 429 85 q 605 353 581 231 l 611 381 m 229 -118 l 367 -118 l 341 -256 l 202 -256 l 229 -118 "},"❥":{"x_min":233,"x_max":1011.53125,"ha":1163,"o":"m 1011 507 q 686 130 850 412 q 487 0 608 0 q 390 18 437 0 q 307 74 344 36 q 251 156 272 109 q 233 252 233 200 q 251 348 233 304 q 307 431 270 394 q 390 487 342 466 q 487 507 435 506 q 390 525 435 507 q 307 581 342 544 q 251 664 270 618 q 233 760 233 707 q 251 856 233 811 q 307 938 272 902 q 390 994 344 975 q 487 1013 437 1013 q 686 882 610 1013 q 1011 507 850 599 "},"ӥ":{"x_min":52.21875,"x_max":850.421875,"ha":903,"o":"m 850 760 l 702 0 l 578 0 l 697 610 l 212 0 l 52 0 l 200 760 l 324 760 l 205 151 l 689 760 l 850 760 m 381 1053 l 520 1053 l 492 916 l 354 916 l 381 1053 m 646 1053 l 783 1053 l 757 916 l 619 916 l 646 1053 "},"ʛ":{"x_min":40.6875,"x_max":1112.125,"ha":983,"o":"m 556 120 l 593 312 l 488 312 l 507 407 l 724 407 l 655 48 q 539 12 601 25 q 347 0 484 0 q 96 107 175 0 q 51 398 16 216 q 210 691 88 584 q 511 797 332 797 q 621 785 553 797 q 653 778 642 781 l 653 778 q 749 988 681 924 q 939 1054 817 1054 l 1112 1054 l 1091 948 l 933 948 q 830 915 861 948 q 777 778 798 881 l 758 678 l 756 678 l 743 606 q 600 676 671 658 q 495 692 545 692 q 292 614 374 692 q 183 398 210 538 q 208 183 155 259 q 381 105 260 105 q 556 120 501 105 "},"ᐔ":{"x_min":122.75,"x_max":1277,"ha":1343,"o":"m 149 572 l 288 572 l 261 433 l 122 433 l 149 572 m 588 826 l 463 184 l 1157 506 l 588 826 m 312 0 l 509 1012 l 1277 583 l 1247 428 l 312 0 m 759 1269 l 897 1269 l 870 1130 l 731 1130 l 759 1269 "},"כּ":{"x_min":-14.171875,"x_max":711,"ha":772,"o":"m 269 431 l 371 431 l 350 329 l 248 329 l 269 431 m -14 0 l 4 96 l 257 96 q 476 149 416 96 q 570 379 536 203 q 586 522 586 459 q 559 613 586 585 q 366 663 512 663 l 114 663 l 133 760 l 437 760 q 677 670 620 760 q 711 539 711 617 q 695 380 711 461 q 553 81 653 162 q 289 0 453 0 l -14 0 "},"➱":{"x_min":86.09375,"x_max":1109.203125,"ha":1163,"o":"m 187 398 l 86 622 l 120 690 l 670 690 l 670 730 l 703 797 l 778 797 l 1109 466 l 1075 398 l 744 67 l 670 67 l 670 175 l 86 175 l 187 398 m 250 398 l 172 229 l 724 229 l 724 122 l 1000 398 l 724 675 l 724 568 l 172 568 l 250 398 "},"Ḙ":{"x_min":37.296875,"x_max":874.84375,"ha":878,"o":"m 234 1013 l 874 1013 l 852 898 l 348 898 l 290 597 l 773 597 l 751 482 l 267 482 l 197 115 l 712 115 l 690 0 l 37 0 l 234 1013 m 351 -41 l 452 -41 l 568 -296 l 474 -296 l 388 -135 l 229 -296 l 135 -296 l 351 -41 "},"ﬢ":{"x_min":114.609375,"x_max":1070.15625,"ha":1075,"o":"m 914 663 l 785 0 l 659 0 l 788 663 l 114 663 l 133 760 l 1070 760 l 1051 663 l 914 663 "},"ᐧ":{"x_min":122.75,"x_max":288.21875,"ha":355,"o":"m 149 572 l 288 572 l 261 433 l 122 433 l 149 572 "},"✡":{"x_min":126.8125,"x_max":1036.921875,"ha":1164,"o":"m 581 1033 l 733 770 l 1036 770 l 885 507 l 1036 245 l 733 245 l 581 -18 l 429 245 l 126 245 l 278 507 l 126 770 l 429 770 l 581 1033 m 469 702 l 356 507 l 469 312 l 694 312 l 807 507 l 694 702 l 469 702 m 581 896 l 508 770 l 655 770 l 581 896 m 772 702 l 846 575 l 919 702 l 772 702 m 846 439 l 772 312 l 919 312 l 846 439 m 655 245 l 508 245 l 581 117 l 655 245 m 391 312 l 317 439 l 244 312 l 391 312 m 317 575 l 391 702 l 244 702 l 317 575 "},"ữ":{"x_min":81,"x_max":1000,"ha":881,"o":"m 472 929 l 442 966 q 422 984 433 977 q 401 993 411 990 q 357 968 374 993 q 328 888 339 943 l 243 888 q 307 1029 264 980 q 413 1079 351 1079 q 460 1068 438 1079 q 499 1037 481 1058 l 531 1000 q 548 983 539 989 q 571 974 558 977 q 613 998 597 974 q 643 1079 630 1022 l 728 1079 q 665 937 709 986 q 559 888 621 888 q 510 898 533 888 q 472 929 488 908 m 94 301 l 183 759 l 308 759 l 219 306 q 210 249 213 272 q 207 209 207 225 q 242 120 207 152 q 342 89 277 89 q 515 156 442 89 q 611 339 588 224 l 694 759 l 819 759 l 672 0 l 547 0 l 572 119 q 446 16 519 53 q 291 -20 373 -20 q 136 34 192 -20 q 81 187 81 89 q 84 238 81 207 q 94 301 87 268 m 710 674 l 726 755 q 788 709 761 724 q 836 695 815 695 q 886 713 867 695 q 913 769 905 732 q 916 812 916 791 q 909 854 916 833 l 1000 854 q 1000 805 1000 828 q 995 761 1000 782 q 942 640 979 679 q 842 601 905 601 q 777 618 809 601 q 710 674 745 636 "},"ᓲ":{"x_min":-50.859375,"x_max":878.90625,"ha":838,"o":"m 92 30 l 86 0 l -50 0 l -36 74 q 211 479 18 354 q 583 604 405 604 l 662 1012 l 799 1012 l 698 493 l 631 493 q 275 383 412 493 q 92 30 139 273 m 741 1269 l 878 1269 l 852 1130 l 713 1130 l 741 1269 "},"ʐ":{"x_min":14.234375,"x_max":771.078125,"ha":729,"o":"m 178 760 l 771 760 l 749 645 l 173 100 l 642 100 l 623 0 l 622 0 l 619 -13 q 618 -150 599 -117 q 709 -183 638 -183 l 742 -183 l 722 -289 l 674 -289 q 509 -223 552 -289 q 495 -13 466 -158 l 497 0 l 14 0 l 35 114 l 611 660 l 159 660 l 178 760 "},"ὂ":{"x_min":64,"x_max":787.359375,"ha":850,"o":"m 645 1110 l 787 857 l 682 857 l 512 1110 l 645 1110 m 428 1006 q 230 826 393 826 l 244 895 q 354 1000 334 895 l 264 1000 l 285 1107 l 448 1107 l 428 1006 m 352 -20 q 141 62 219 -20 q 64 287 64 144 q 90 455 64 370 q 160 600 117 541 q 310 734 227 690 q 497 777 392 777 q 706 697 626 777 q 786 486 786 616 q 759 306 786 395 q 690 157 733 216 q 541 23 623 66 q 352 -20 458 -20 m 194 291 q 236 137 194 188 q 367 85 279 85 q 574 195 492 85 q 657 473 657 304 q 613 621 657 571 q 483 672 569 672 q 358 639 413 672 q 260 539 303 606 q 211 424 228 488 q 194 291 194 359 "},"î":{"x_min":48.828125,"x_max":487.609375,"ha":386,"o":"m 197 760 l 322 760 l 173 0 l 48 0 l 197 760 m 270 1111 l 370 1111 l 487 856 l 393 856 l 307 1016 l 148 856 l 54 856 l 270 1111 "},"ύ":{"x_min":72.90625,"x_max":748.140625,"ha":804,"o":"m 302 759 l 206 267 q 216 137 189 176 q 318 105 239 105 q 513 226 429 105 q 603 433 568 306 q 622 589 622 502 q 564 759 622 670 l 690 759 l 690 759 q 740 614 725 697 q 733 432 753 536 q 590 142 703 279 q 284 -1 472 -1 q 107 64 150 -1 q 81 274 55 144 l 175 759 l 302 759 m 613 1111 l 748 1111 l 477 856 l 373 856 l 613 1111 "},"ັ":{"x_min":-800.625,"x_max":-56.734375,"ha":0,"o":"m -58 1061 q -479 887 -93 887 q -739 952 -670 887 q -799 1073 -810 1016 q -618 1220 -769 1220 q -474 1100 -474 1220 q -520 994 -474 1040 q -455 992 -499 992 q -208 1050 -219 992 q -252 1129 -202 1081 l -140 1222 q -58 1061 -45 1125 m -648 1030 q -599 1073 -607 1030 q -636 1116 -590 1116 q -681 1074 -674 1116 q -648 1030 -691 1030 "},"ϰ":{"x_min":10.1875,"x_max":898.8125,"ha":921,"o":"m 354 277 q 102 13 254 97 q 12 51 -4 -46 q 73 154 20 97 q 264 328 155 244 q 347 580 347 465 q 246 651 347 651 q 130 577 206 651 l 160 729 q 303 759 222 771 q 462 575 462 737 q 412 404 462 480 l 554 477 q 806 741 654 657 q 896 703 913 801 q 835 600 888 657 q 644 426 753 510 q 562 174 562 289 q 662 104 562 104 q 778 177 702 104 l 748 25 q 605 -4 686 -16 q 447 179 447 17 q 496 350 447 274 l 354 277 "},"ɓ":{"x_min":25.765625,"x_max":790.84375,"ha":882,"o":"m 649 378 q 634 594 676 516 q 494 673 593 673 q 322 594 395 673 q 224 378 251 516 q 238 162 198 240 q 379 84 280 84 q 550 162 478 84 q 649 378 622 240 m 275 643 q 395 743 328 711 q 545 777 461 777 q 748 667 683 777 q 778 378 813 557 q 635 89 743 199 q 389 -20 528 -20 q 252 13 306 -20 q 172 113 199 45 l 151 0 l 25 0 l 157 679 l 177 779 q 273 989 205 924 q 463 1055 341 1055 l 636 1055 l 615 949 l 457 949 q 354 916 383 949 q 301 779 321 881 l 282 679 l 275 643 "},"ᒂ":{"x_min":80.03125,"x_max":1055.4375,"ha":1132,"o":"m 660 89 q 812 144 743 89 q 901 302 882 199 q 866 465 924 415 q 743 516 808 516 q 585 458 657 516 q 494 302 514 401 q 532 140 473 191 q 660 89 591 89 m 547 574 q 764 624 644 624 q 1000 542 924 624 q 1046 301 1077 461 q 900 56 1013 132 q 639 -20 786 -20 q 403 61 479 -20 q 358 303 326 142 l 495 1012 l 632 1012 l 547 574 m 113 386 l 256 386 l 223 214 l 80 214 l 113 386 m 192 797 l 335 797 l 302 625 l 159 625 l 192 797 "},"ǫ":{"x_min":64,"x_max":786,"ha":850,"o":"m 352 -20 q 141 62 219 -20 q 64 287 64 144 q 90 456 64 370 q 160 600 117 541 q 310 734 227 691 q 497 778 392 778 q 706 697 626 778 q 786 486 786 616 q 759 306 786 395 q 690 157 733 216 q 541 23 623 66 q 352 -20 458 -20 m 194 291 q 236 137 194 188 q 367 86 279 86 q 574 195 492 86 q 657 473 657 305 q 613 621 657 571 q 483 672 569 672 q 358 639 413 672 q 260 539 303 606 q 211 424 228 489 q 194 291 194 360 m 327 -11 l 407 -11 q 343 -90 364 -56 q 322 -148 322 -124 q 337 -183 322 -172 q 382 -195 352 -195 q 425 -189 402 -195 q 474 -174 449 -184 l 458 -264 q 409 -276 433 -272 q 364 -280 385 -280 q 259 -254 294 -280 q 224 -177 224 -228 q 250 -100 224 -142 q 327 -11 276 -59 "},"⋕":{"x_min":147,"x_max":1016,"ha":1163,"o":"m 755 -138 l 640 -138 l 640 239 l 524 239 l 524 -138 l 409 -138 l 409 239 l 147 239 l 147 354 l 409 354 l 409 517 l 147 517 l 147 631 l 409 631 l 409 1013 l 524 1013 l 524 631 l 640 631 l 640 1013 l 755 1013 l 755 631 l 1016 631 l 1016 517 l 755 517 l 755 354 l 1016 354 l 1016 239 l 755 239 l 755 -138 m 640 354 l 640 517 l 524 517 l 524 354 l 640 354 "},"₠":{"x_min":69.265625,"x_max":1200.359375,"ha":1218,"o":"m 630 298 q 505 243 569 261 q 374 225 441 225 q 123 330 202 225 q 80 619 44 435 q 235 907 115 802 q 527 1013 355 1013 q 652 994 596 1013 q 754 940 709 976 l 733 832 q 637 904 691 880 q 517 928 583 928 q 302 848 387 928 q 188 619 217 769 q 213 389 159 468 q 397 310 267 310 q 526 333 463 310 q 651 405 590 357 l 720 760 l 1200 760 l 1183 673 l 805 673 l 761 448 l 1123 448 l 1106 361 l 744 361 l 691 87 l 1078 87 l 1061 0 l 572 0 l 630 298 "},"ᕩ":{"x_min":66,"x_max":1182.6875,"ha":1250,"o":"m 1044 572 l 1182 572 l 1155 433 l 1017 433 l 1044 572 m 912 836 q 914 852 914 845 q 901 884 914 872 q 849 900 884 900 q 846 900 849 900 q 790 884 811 900 q 761 836 767 868 q 759 820 759 827 q 771 788 759 799 q 823 772 788 772 q 882 787 859 772 q 912 836 905 803 m 677 896 q 381 808 488 896 q 225 508 265 713 q 213 383 213 440 q 265 208 213 271 q 553 113 343 113 l 855 113 l 834 0 l 552 0 q 145 122 259 0 q 66 359 66 207 q 81 507 66 426 q 293 890 132 768 q 749 1013 455 1013 l 870 1013 q 989 958 944 1013 q 1024 866 1024 916 q 1021 836 1024 852 q 943 709 1006 760 q 808 661 882 661 q 802 661 804 661 q 675 712 712 661 q 648 798 648 750 q 652 836 648 816 q 677 896 658 869 m 652 1269 l 790 1269 l 764 1130 l 624 1130 l 652 1269 "},"⠗":{"x_min":203,"x_max":813,"ha":1016,"o":"m 203 1085 l 406 1085 l 406 882 l 203 882 l 203 1085 m 203 700 l 406 700 l 406 497 l 203 497 l 203 700 m 203 316 l 406 316 l 406 113 l 203 113 l 203 316 m 610 700 l 813 700 l 813 497 l 610 497 l 610 700 "},"⌅":{"x_min":284.21875,"x_max":878.078125,"ha":1164,"o":"m 551 185 l 365 0 l 284 81 l 551 349 l 612 349 l 878 81 l 796 0 l 612 185 l 551 185 m 874 564 l 874 449 l 291 449 l 291 564 l 874 564 "},"℁":{"x_min":24,"x_max":1305.15625,"ha":1347,"o":"m 937 548 q 1119 595 1008 595 q 1305 561 1231 595 l 1282 443 l 1265 452 q 1108 492 1196 492 q 967 419 981 492 q 980 377 962 393 q 1068 345 998 361 l 1099 338 q 1235 273 1198 315 q 1257 156 1271 232 l 1257 155 q 1164 21 1240 71 q 972 -28 1087 -28 q 768 11 857 -28 l 792 138 l 809 128 q 978 76 900 76 q 1134 149 1120 76 q 1122 198 1140 181 q 1022 235 1105 215 l 991 242 q 869 304 902 264 q 850 415 837 343 l 852 423 q 937 548 867 501 m 574 739 l 509 402 l 380 402 l 389 441 q 332 414 389 441 q 207 388 276 388 q 75 436 126 388 q 24 560 24 485 q 109 727 24 665 q 340 789 194 789 l 456 789 l 458 802 q 460 810 459 806 q 461 824 461 814 q 429 885 461 864 q 337 907 397 907 q 247 895 294 907 q 122 847 201 884 l 145 969 q 260 1002 207 992 q 362 1013 313 1013 q 527 965 469 1013 q 585 828 585 917 q 582 787 585 810 q 574 739 580 764 m 437 689 l 363 689 q 204 661 253 689 q 155 576 155 634 q 178 515 155 536 q 244 495 201 495 q 365 545 313 495 q 435 683 418 595 l 437 689 m 1058 1044 l 1219 1044 l 362 -32 l 199 -32 l 1058 1044 "},"‸":{"x_min":7.453125,"x_max":463.1875,"ha":471,"o":"m 463 -328 l 362 -328 l 236 -159 l 108 -328 l 7 -328 l 236 -41 l 463 -328 "},"↨":{"x_min":285.578125,"x_max":878.078125,"ha":1164,"o":"m 639 304 l 796 463 l 878 382 l 611 115 l 874 115 l 874 0 l 291 0 l 291 115 l 551 115 l 285 382 l 366 463 l 524 304 l 524 827 l 366 668 l 285 749 l 551 1017 l 611 1017 l 878 749 l 796 668 l 639 827 l 639 304 "},"Ξ":{"x_min":37.984375,"x_max":859.234375,"ha":878,"o":"m 225 597 l 707 597 l 684 482 l 202 482 l 225 597 m 234 1013 l 859 1013 l 836 898 l 212 898 l 234 1013 m 60 115 l 684 115 l 662 0 l 37 0 l 60 115 "},"⎩":{"x_min":458,"x_max":928,"ha":1042,"o":"m 584 1084 l 584 17 q 622 -145 584 -87 q 737 -215 668 -215 l 928 -215 l 928 -334 l 741 -334 q 533 -227 619 -334 q 458 22 458 -123 l 458 1084 l 584 1084 "},"Ԃ":{"x_min":50,"x_max":1309.5625,"ha":1397,"o":"m 674 483 l 454 483 q 282 437 343 483 q 201 297 219 391 q 196 244 196 268 q 226 148 196 186 q 365 84 278 84 q 552 157 487 84 q 649 350 628 242 l 674 483 m 632 153 q 607 114 620 133 q 481 13 560 49 q 336 -20 410 -20 q 104 67 174 -20 q 50 228 50 136 q 56 297 50 261 q 192 522 85 448 q 469 596 299 596 l 696 596 l 777 1012 l 914 1012 l 775 303 q 769 235 769 267 q 788 145 769 183 q 889 95 813 95 q 1010 145 960 95 q 1083 303 1063 198 l 1172 759 l 1309 759 l 1220 299 q 1099 61 1190 147 q 866 -20 1012 -20 q 666 61 719 -20 q 632 153 640 99 "},"𝕗":{"x_min":31.640625,"x_max":675,"ha":647,"o":"m 358 985 q 257 948 288 978 q 219 811 219 910 l 219 67 l 310 67 l 310 811 q 324 922 310 876 q 358 985 337 960 m 675 1055 l 675 987 l 556 987 q 416 948 455 987 q 378 811 378 910 l 378 744 l 641 744 l 641 676 l 378 676 l 378 -1 l 151 -1 l 151 676 l 31 676 l 31 744 l 151 744 l 151 811 q 210 996 151 939 q 397 1055 269 1055 l 675 1055 "},"⡉":{"x_min":203,"x_max":812,"ha":1015,"o":"m 203 1085 l 406 1085 l 406 882 l 203 882 l 203 1085 m 609 1085 l 812 1085 l 812 882 l 609 882 l 609 1085 m 203 -68 l 406 -68 l 406 -271 l 203 -271 l 203 -68 "},"ŵ":{"x_min":144,"x_max":1137.046875,"ha":1136,"o":"m 646 1111 l 747 1111 l 863 856 l 769 856 l 683 1016 l 524 856 l 430 856 l 646 1111 m 144 760 l 257 760 l 257 148 l 556 760 l 722 760 l 722 148 l 1012 760 l 1137 760 l 789 0 l 625 0 l 625 629 l 316 0 l 144 0 l 144 760 "},"ᾚ":{"x_min":71.890625,"x_max":1470.953125,"ha":1508,"o":"m 951 -289 l 851 -289 q 819 -266 833 -289 q 815 -217 810 -248 l 846 -62 l 947 -62 l 916 -217 q 920 -235 915 -227 q 936 -244 927 -244 l 960 -244 l 951 -289 m 487 1111 l 629 857 l 524 857 l 354 1111 l 487 1111 m 270 1007 q 71 826 235 826 l 85 895 q 195 1001 175 895 l 105 1001 l 126 1108 l 290 1108 l 270 1007 m 698 1012 l 836 1012 l 755 597 l 1252 597 l 1333 1013 l 1470 1013 l 1273 0 l 1135 0 l 1230 482 l 733 482 l 638 0 l 501 0 l 698 1012 "},"╠":{"x_min":255,"x_max":850.234375,"ha":837,"o":"m 472 453 l 472 1351 l 581 1351 l 581 570 l 850 570 l 850 453 l 472 453 m 255 -419 l 255 1351 l 364 1351 l 364 -419 l 255 -419 m 472 -418 l 472 337 l 850 337 l 850 220 l 581 220 l 581 -418 l 472 -418 "},"№":{"x_min":-61.484375,"x_max":1336,"ha":1445,"o":"m 1074 580 q 1205 645 1136 645 q 1311 580 1275 645 q 1336 495 1336 537 q 1250 263 1336 354 q 1119 198 1188 198 q 1013 263 1049 198 q 989 348 989 306 q 1074 580 989 489 m 1138 298 q 1198 333 1172 298 q 1240 467 1240 389 q 1186 545 1240 545 q 1125 509 1152 545 q 1085 376 1085 454 q 1138 298 1085 298 m 929 83 l 1264 83 l 1248 0 l 913 0 l 929 83 m 234 1013 l 419 1013 l 703 165 l 831 825 q 1100 1013 868 1013 l 1078 898 q 964 825 978 898 l 804 0 l 620 0 l 335 847 l 207 187 q -61 0 171 0 l -39 115 q 74 187 60 115 l 234 1013 "},"⁐":{"x_min":-60,"x_max":1177,"ha":1117,"o":"m 557 1290 q 863 1250 709 1290 q 1177 1130 1017 1210 l 1177 1044 q 868 1150 1021 1115 q 557 1186 714 1186 q 248 1151 401 1186 q -60 1044 95 1116 l -60 1130 q 253 1250 100 1210 q 557 1290 406 1290 m 248 -190 q 557 -225 401 -225 q 868 -189 714 -225 q 1177 -83 1021 -154 l 1177 -169 q 863 -289 1017 -249 q 557 -329 709 -329 q 253 -289 406 -329 q -60 -169 100 -249 l -60 -83 q 248 -190 95 -155 "},"╹":{"x_min":309,"x_max":526,"ha":836,"o":"m 309 395 l 309 1351 l 526 1351 l 526 395 l 309 395 "},"ᐛ":{"x_min":65.78125,"x_max":1030.140625,"ha":1068,"o":"m 878 825 l 185 505 l 754 184 l 878 825 m 833 0 l 65 428 l 95 583 l 1030 1012 l 833 0 m 663 1269 l 801 1269 l 775 1130 l 636 1130 l 663 1269 m 283 1049 l 421 1049 l 394 910 l 255 910 l 283 1049 "},"𝌦":{"x_min":115,"x_max":1130,"ha":1245,"o":"m 119 396 l 519 396 l 523 391 l 523 264 l 519 260 l 119 260 l 115 264 l 115 391 l 119 396 m 716 396 l 1115 396 l 1120 391 l 1120 264 l 1115 260 l 716 260 l 712 264 l 712 391 l 716 396 m 119 657 l 1115 657 l 1120 652 l 1120 525 l 1115 521 l 119 521 l 115 525 l 115 652 l 119 657 m 345 0 l 115 0 l 115 136 l 345 136 l 345 0 m 900 0 l 900 136 l 1130 136 l 1130 0 l 900 0 m 737 0 l 508 0 l 508 136 l 737 136 l 737 0 m 119 917 l 519 917 l 523 912 l 523 785 l 519 781 l 119 781 l 115 785 l 115 912 l 119 917 m 716 917 l 1115 917 l 1120 912 l 1120 785 l 1115 781 l 716 781 l 712 785 l 712 912 l 716 917 "},"ƫ":{"x_min":99.6875,"x_max":592.046875,"ha":545,"o":"m 377 975 l 335 760 l 592 760 l 573 663 l 316 663 l 236 250 q 238 130 218 156 q 337 104 259 104 l 465 104 l 441 -13 q 345 -223 413 -158 q 154 -289 277 -289 l 107 -289 l 128 -183 l 161 -183 q 264 -150 232 -183 q 316 -13 297 -117 l 319 0 l 316 0 q 127 54 172 0 q 110 250 83 107 l 191 663 l 99 663 l 118 760 l 209 760 l 251 975 l 377 975 "},"ᒋ":{"x_min":35.9375,"x_max":872.421875,"ha":873,"o":"m 726 710 q 696 866 745 809 q 560 924 646 924 q 411 872 491 924 q 311 710 332 821 l 172 0 l 35 0 l 173 709 q 312 951 204 870 q 581 1033 421 1033 q 812 956 728 1033 q 863 710 895 880 l 726 710 "},"ເ":{"x_min":39.328125,"x_max":518.125,"ha":500,"o":"m 391 109 q 325 7 375 33 q 169 -20 273 -20 q 48 201 5 -20 l 130 623 q 317 778 160 778 q 518 727 455 778 l 455 647 q 314 678 406 678 q 254 624 265 678 l 158 125 q 205 191 172 160 q 292 223 238 223 q 391 109 414 223 m 259 61 q 295 71 284 61 q 311 104 306 82 q 306 138 316 128 q 276 148 297 148 q 240 137 251 148 q 224 104 229 126 q 228 70 219 80 q 259 61 238 61 "},"̆":{"x_min":-346,"x_max":80.234375,"ha":0,"o":"m -345 1091 l -267 1091 l -267 1080 q -238 1011 -267 1034 q -151 989 -210 989 q -56 1013 -94 989 q 1 1091 -19 1038 l 80 1091 q -5 946 58 996 q -169 896 -70 896 q -301 939 -256 896 q -346 1068 -346 983 q -345 1080 -346 1072 q -345 1091 -345 1087 "},"⚯":{"x_min":7,"x_max":1157,"ha":1164,"o":"m 688 557 q 701 598 693 577 q 753 675 717 639 q 830 727 787 708 q 920 745 871 745 q 1010 727 971 745 q 1087 675 1056 706 q 1139 598 1121 641 q 1157 506 1157 555 q 1139 415 1157 458 q 1087 338 1121 372 q 1010 286 1053 305 q 920 269 969 269 q 830 286 869 269 q 753 338 784 307 q 701 415 717 373 q 688 455 692 438 l 474 455 q 462 415 470 435 q 410 338 444 372 q 333 286 376 305 q 243 269 292 269 q 153 286 192 269 q 76 338 107 307 q 24 415 42 372 q 7 505 7 458 q 24 598 7 555 q 76 675 42 641 q 153 727 110 708 q 243 745 194 745 q 333 727 294 745 q 410 675 379 706 q 462 598 446 639 q 475 557 470 577 l 688 557 m 972 632 q 920 643 948 643 q 869 632 892 643 q 824 603 844 622 q 795 559 805 582 q 785 506 785 534 q 795 455 785 479 q 824 410 805 431 q 869 381 844 391 q 920 371 892 371 q 972 381 948 371 q 1016 410 996 391 q 1045 455 1035 431 q 1056 506 1056 479 q 1045 559 1056 534 q 1016 603 1035 582 q 972 632 996 622 m 294 632 q 243 643 271 643 q 192 632 215 643 q 147 603 164 620 q 118 559 128 582 q 108 506 108 534 q 118 455 108 479 q 147 411 129 429 q 192 381 167 392 q 243 371 215 371 q 295 381 271 371 q 339 410 319 391 q 368 455 358 431 q 379 506 379 479 q 368 559 379 534 q 339 603 357 585 q 294 632 319 622 "},"₩":{"x_min":59.828125,"x_max":1426.640625,"ha":1374,"o":"m 160 705 l 160 784 l 94 784 l 112 881 l 148 881 l 148 1012 l 286 1012 l 286 881 l 649 881 l 707 1013 l 865 1013 l 865 881 l 1229 881 l 1287 1013 l 1426 1013 l 1367 881 l 1406 881 l 1387 784 l 1324 784 l 1289 705 l 1372 705 l 1353 608 l 1246 608 l 975 0 l 788 0 l 788 608 l 640 608 l 374 0 l 185 0 l 185 608 l 59 608 l 78 705 l 160 705 m 897 608 l 897 156 l 1108 608 l 897 608 m 877 784 l 877 705 l 1151 705 l 1186 784 l 877 784 m 318 608 l 318 156 l 529 608 l 318 608 m 718 784 l 683 705 l 766 705 l 766 784 l 718 784 m 298 784 l 298 705 l 571 705 l 606 784 l 298 784 "},"ῳ":{"x_min":76.96875,"x_max":1080.765625,"ha":1163,"o":"m 558 -289 l 458 -289 q 427 -266 440 -289 q 423 -217 417 -248 l 453 -62 l 554 -62 l 524 -217 q 528 -235 522 -227 q 543 -244 534 -244 l 567 -244 l 558 -289 m 296 -19 q 94 383 15 -19 q 272 759 124 542 l 406 759 q 235 379 267 542 q 329 86 177 86 q 537 450 469 86 l 653 450 q 719 85 579 85 q 927 378 870 85 q 904 759 958 542 l 1038 759 q 1070 383 1101 542 q 716 -19 994 -19 q 535 182 535 -19 q 296 -19 469 -19 "},"ˬ":{"x_min":133.59375,"x_max":566.265625,"ha":694,"o":"m 235 -361 l 133 -29 l 227 -29 l 303 -272 l 472 -29 l 566 -29 l 335 -361 l 235 -361 "},"⢶":{"x_min":203,"x_max":813,"ha":1016,"o":"m 203 701 l 406 701 l 406 498 l 203 498 l 203 701 m 203 317 l 406 317 l 406 114 l 203 114 l 203 317 m 610 701 l 813 701 l 813 498 l 610 498 l 610 701 m 610 317 l 813 317 l 813 114 l 610 114 l 610 317 m 610 -68 l 813 -68 l 813 -271 l 610 -271 l 610 -68 "},"Ӳ":{"x_min":33.90625,"x_max":973.171875,"ha":846,"o":"m 832 1288 l 973 1288 l 764 1109 l 657 1109 l 832 1288 m 618 1288 l 758 1288 l 550 1109 l 443 1109 l 618 1288 m 122 1012 l 269 1012 l 405 418 l 773 1013 l 920 1013 l 369 122 q 322 63 348 88 q 86 0 256 0 l 33 0 l 56 115 l 99 115 q 207 129 179 115 q 253 173 235 144 l 297 245 l 122 1012 "},"▇":{"x_min":-13,"x_max":1082,"ha":1069,"o":"m -13 -347 l -13 892 l 1082 892 l 1082 -347 l -13 -347 "},"✏":{"x_min":36,"x_max":1138.375,"ha":1164,"o":"m 976 489 q 979 505 979 497 q 976 521 979 513 q 969 534 974 527 q 959 542 966 538 l 817 628 q 802 592 817 606 q 837 505 837 554 q 802 418 837 456 q 817 382 817 405 l 959 468 q 969 476 966 472 q 976 489 974 483 m 218 432 l 218 579 l 155 654 l 91 579 l 91 432 l 155 356 l 218 432 m 36 600 l 155 736 l 730 736 l 1138 505 l 730 275 l 155 275 l 36 410 l 36 600 m 258 614 l 728 614 q 745 646 745 631 q 721 682 745 665 l 204 682 l 258 614 m 741 451 q 776 505 776 467 q 741 560 776 543 l 279 560 l 279 451 l 741 451 m 123 479 q 121 505 121 491 q 123 531 121 519 q 131 553 125 542 q 142 568 135 562 q 155 574 148 574 q 167 568 161 574 q 178 553 174 562 q 186 531 184 542 q 189 505 189 519 q 186 479 189 491 q 178 457 184 468 q 167 443 174 448 q 155 438 161 438 q 142 443 148 438 q 131 457 135 448 q 123 479 125 468 m 258 397 l 204 329 l 721 329 q 745 364 745 346 q 728 397 745 379 l 258 397 "},"Ý":{"x_min":87.484375,"x_max":938.59375,"ha":848,"o":"m 87 1013 l 234 1013 l 423 596 l 784 1013 l 938 1013 l 479 482 l 385 0 l 248 0 l 341 482 l 87 1013 m 611 1288 l 751 1288 l 543 1109 l 436 1109 l 611 1288 "},"ᴞ":{"x_min":77.984375,"x_max":1232.234375,"ha":1316,"o":"m 129 429 l 155 567 l 292 567 l 266 429 l 129 429 m 77 164 l 104 301 l 241 301 l 214 164 l 77 164 m 809 53 l 349 53 l 373 178 l 828 178 q 998 219 936 178 q 1076 345 1060 261 q 1043 505 1096 446 q 878 564 990 564 l 448 564 l 472 689 l 1232 689 l 1207 564 l 1091 564 q 1173 458 1151 518 q 1180 318 1195 398 q 1060 120 1154 188 q 809 53 965 53 "},"ຸ":{"x_min":-506.328125,"x_max":-216.828125,"ha":0,"o":"m -339 -171 q -375 -127 -330 -127 q -427 -171 -419 -127 q -391 -215 -436 -215 q -339 -171 -347 -215 m -450 -420 q -325 -261 -317 -331 q -403 -286 -357 -286 q -503 -178 -522 -286 q -364 -52 -482 -52 q -252 -104 -295 -52 q -221 -261 -203 -166 q -403 -486 -236 -340 l -450 -420 "},"ℝ":{"x_min":136,"x_max":1075.953125,"ha":1100,"o":"m 865 259 q 767 394 813 362 q 639 428 720 428 l 608 428 q 729 259 661 396 l 826 68 l 961 68 l 865 259 m 782 468 q 856 407 817 451 q 936 276 894 362 l 1075 0 l 777 0 l 648 259 q 550 394 598 361 q 422 428 503 428 l 409 428 l 409 0 l 136 0 l 136 1013 l 596 1013 q 855 940 770 1013 q 941 721 941 867 q 861 513 941 580 q 782 468 828 485 m 409 945 l 409 496 l 629 496 q 661 497 645 496 l 661 943 q 629 945 645 945 l 409 945 m 732 929 l 732 512 q 805 555 775 527 q 866 721 866 613 q 805 886 866 829 q 732 929 777 914 m 204 945 l 204 68 l 341 68 l 341 945 l 204 945 "},"⁉":{"x_min":-0.359375,"x_max":988,"ha":1018,"o":"m 196 1013 l 333 1013 l 247 568 l 186 326 l 76 326 l 110 568 l 196 1013 m 34 172 l 171 172 l 138 0 l 0 0 l 34 172 m 623 172 l 590 0 l 452 0 l 485 172 l 623 172 m 473 954 q 611 1012 542 993 q 752 1031 680 1031 q 924 980 861 1031 q 988 841 988 929 q 951 710 988 771 q 833 583 915 649 l 762 526 q 686 449 705 481 q 655 355 667 417 l 638 272 l 509 272 l 530 376 q 569 484 542 440 q 671 591 595 528 l 742 651 q 822 735 799 699 q 846 810 846 771 q 809 890 846 861 q 706 920 772 920 q 585 895 652 920 q 448 827 519 871 l 473 954 "},"ẅ":{"x_min":144,"x_max":1137.046875,"ha":1136,"o":"m 482 1053 l 621 1053 l 593 916 l 456 916 l 482 1053 m 747 1053 l 885 1053 l 858 916 l 721 916 l 747 1053 m 144 760 l 257 760 l 257 148 l 556 760 l 722 760 l 722 148 l 1012 760 l 1137 760 l 789 0 l 625 0 l 625 629 l 316 0 l 144 0 l 144 760 "},"ǡ":{"x_min":57,"x_max":795.953125,"ha":852,"o":"m 746 432 l 661 0 l 536 0 l 559 114 q 434 13 504 46 q 278 -20 364 -20 q 119 39 181 -20 q 57 191 57 98 q 163 401 57 324 q 455 479 269 479 l 629 479 l 636 512 q 638 524 637 517 q 639 544 639 530 q 589 638 639 604 q 451 672 540 672 q 326 656 390 672 q 194 609 262 640 l 216 724 q 354 764 286 751 q 485 777 422 777 q 689 719 619 777 q 760 549 760 661 q 756 497 760 527 q 746 432 753 466 m 611 381 l 486 381 q 259 340 333 381 q 185 213 185 299 q 223 119 185 153 q 327 85 261 85 q 505 158 429 85 q 605 353 581 231 l 611 381 m 487 1026 l 624 1026 l 598 887 l 459 887 l 487 1026 m 390 1205 l 795 1205 l 776 1105 l 370 1105 l 390 1205 "},"ᐥ":{"x_min":0.671875,"x_max":611.03125,"ha":647,"o":"m 229 487 l 526 1018 l 611 985 l 314 453 l 229 487 m 0 487 l 297 1018 l 381 985 l 85 453 l 0 487 "},"⪛":{"x_min":147,"x_max":1016,"ha":1163,"o":"m 147 636 l 147 757 l 1016 1007 l 1016 886 l 147 636 m 147 418 l 147 539 l 1016 788 l 1016 668 l 147 418 m 1016 75 l 1016 -43 l 147 205 l 147 320 l 1016 570 l 1016 449 l 365 263 l 1016 75 "},"К":{"x_min":37.984375,"x_max":1036.921875,"ha":986,"o":"m 234 1013 l 371 1013 l 274 512 l 861 1013 l 1036 1013 l 567 612 l 860 0 l 711 0 l 461 521 l 239 332 l 174 0 l 37 0 l 234 1013 "},"ΰ":{"x_min":72.90625,"x_max":786.125,"ha":804,"o":"m 651 1357 l 786 1357 l 515 1103 l 411 1103 l 651 1357 m 300 1052 l 439 1052 l 411 915 l 274 915 l 300 1052 m 565 1052 l 703 1052 l 676 915 l 539 915 l 565 1052 m 302 759 l 206 267 q 216 137 189 176 q 318 105 239 105 q 513 226 429 105 q 603 433 568 306 q 622 589 622 502 q 564 759 622 670 l 690 759 l 690 759 q 740 614 725 697 q 733 432 753 536 q 590 142 703 279 q 284 -1 472 -1 q 107 64 150 -1 q 81 274 55 144 l 175 759 l 302 759 "},"꜋":{"x_min":95.625,"x_max":630.703125,"ha":685,"o":"m 113 301 l 228 301 l 210 209 l 95 209 l 113 301 m 358 0 l 538 928 l 630 928 l 450 0 l 358 0 "},"Ⴡ":{"x_min":-12.984375,"x_max":701.90625,"ha":753,"o":"m 429 381 l 457 489 l 457 488 q 466 571 466 538 q 462 622 466 602 q 431 665 452 650 q 375 681 409 681 q 325 671 349 681 q 282 644 301 661 q 250 603 263 626 q 231 552 237 579 l 124 0 l -12 0 l 189 1042 l 326 1042 l 275 774 q 399 808 343 808 q 495 787 452 808 q 565 733 537 767 q 600 663 592 698 q 609 603 609 628 q 603 552 609 577 l 594 504 l 701 504 l 678 381 l 429 381 "},"⅞":{"x_min":108.5,"x_max":1311.875,"ha":1346,"o":"m 128 1019 l 546 1019 l 540 986 l 200 453 l 108 453 l 428 955 l 115 955 l 128 1019 m 1030 1031 l 1151 1031 l 315 -19 l 192 -19 l 1030 1031 m 1163 240 q 1070 270 1133 270 q 965 240 1007 270 q 914 160 923 210 q 934 79 904 108 q 1027 50 964 50 q 1132 79 1089 50 q 1183 160 1173 109 q 1163 240 1193 210 m 988 303 q 909 348 933 315 q 893 431 883 382 q 969 538 906 499 q 1129 578 1032 578 q 1274 538 1226 578 q 1308 431 1322 499 q 1262 348 1299 380 q 1165 303 1223 315 q 1253 251 1223 290 q 1272 160 1282 214 q 1189 34 1255 78 q 1015 -10 1123 -10 q 858 34 908 -10 q 825 160 809 78 q 878 251 835 213 q 988 303 922 289 m 979 424 q 998 355 971 381 q 1081 330 1024 330 q 1175 355 1136 330 q 1220 423 1212 379 q 1201 492 1228 466 q 1118 518 1174 518 q 1024 492 1062 518 q 979 424 988 468 "},"₣":{"x_min":44.078125,"x_max":912.140625,"ha":884,"o":"m 188 276 l 331 1012 l 912 1012 l 889 897 l 445 897 l 387 598 l 788 598 l 766 483 l 364 483 l 324 276 l 469 276 l 449 176 l 305 176 l 270 0 l 134 0 l 168 176 l 44 176 l 63 276 l 188 276 "},"ﬆ":{"x_min":2.921875,"x_max":1232.78125,"ha":1195,"o":"m 640 736 l 619 618 q 518 659 566 647 q 416 673 463 673 q 289 644 337 673 q 232 558 243 618 q 231 539 231 548 q 252 490 231 510 q 376 443 281 466 l 417 434 q 590 353 545 405 q 624 257 624 316 q 619 209 624 234 q 503 41 598 103 q 260 -20 406 -20 q 135 -8 195 -20 q 2 27 71 3 l 28 156 q 154 102 90 120 q 283 84 217 84 q 424 114 371 84 q 488 199 478 144 q 491 224 491 212 q 470 277 491 257 q 329 329 444 301 l 288 339 q 135 414 177 364 q 106 505 106 450 q 110 553 106 527 q 211 718 132 665 q 421 777 299 777 q 522 769 470 777 q 526 810 522 789 q 619 967 543 902 q 802 1030 692 1030 q 952 965 899 1030 q 990 856 990 919 q 985 810 990 834 l 975 759 l 1232 759 l 1213 662 l 956 662 l 876 249 q 868 176 868 205 q 878 130 868 144 q 977 104 899 104 l 1105 104 l 1084 0 l 956 0 q 767 54 811 0 q 740 153 740 87 q 750 249 740 194 l 830 662 l 739 662 l 758 759 l 849 759 l 859 811 q 862 832 862 822 q 841 885 862 863 q 765 919 810 919 q 675 885 718 919 q 625 809 634 852 q 624 788 624 798 q 640 736 624 759 "},"ǈ":{"x_min":37.296875,"x_max":1158.3125,"ha":1160,"o":"m 975 759 l 1099 759 l 950 -13 l 949 -17 q 891 -194 924 -146 q 802 -264 861 -240 q 663 -289 743 -289 l 617 -289 l 637 -183 l 669 -183 q 773 -152 742 -183 q 825 -13 804 -122 l 975 759 m 1033 1055 l 1158 1055 l 1127 897 l 1003 897 l 1033 1055 m 233 1012 l 370 1012 l 197 114 l 690 114 l 668 0 l 37 0 l 233 1012 "},"ῤ":{"x_min":22.375,"x_max":844.109375,"ha":882,"o":"m 658 1006 q 459 826 623 826 l 473 895 q 583 1000 563 895 l 493 1000 l 514 1107 l 678 1107 l 658 1006 m 261 623 q 429 753 315 692 q 598 777 474 777 q 801 667 736 777 q 832 378 866 557 q 689 89 796 199 q 442 -20 581 -20 q 305 13 359 -20 q 226 113 252 45 l 147 -289 l 22 -289 l 151 371 q 261 623 181 528 m 702 378 q 687 594 729 516 q 547 673 646 673 q 376 594 448 673 q 278 378 304 516 q 292 162 250 240 q 432 84 333 84 q 603 162 531 84 q 702 378 675 240 "},"ͼ":{"x_min":64,"x_max":745.34375,"ha":764,"o":"m 745 730 l 720 606 q 624 655 675 639 q 520 672 574 672 q 406 650 460 672 q 316 591 352 629 q 225 452 257 532 q 194 288 194 373 q 245 136 194 186 q 400 85 296 85 q 510 101 452 85 q 631 148 568 117 l 607 24 q 496 -8 553 2 q 378 -20 438 -20 q 145 55 226 -20 q 64 271 64 131 q 106 489 64 389 q 232 667 148 588 q 366 749 289 722 q 533 777 442 777 q 638 765 586 777 q 745 730 691 754 m 403 484 l 546 484 l 512 312 l 369 312 l 403 484 "},"▵":{"x_min":4.0625,"x_max":693.09375,"ha":697,"o":"m 120 92 l 577 92 l 348 551 l 120 92 m 4 15 l 348 706 l 693 15 l 4 15 "}," ":{"x_min":0,"x_max":0,"ha":309},"ϧ":{"x_min":-29.59375,"x_max":860.921875,"ha":853,"o":"m 583 567 q 421 670 516 670 q 360 655 400 670 q 309 625 339 647 q 271 586 286 607 q 253 545 258 567 q 255 509 249 523 q 275 479 262 490 q 313 461 290 465 q 354 458 334 458 q 423 474 371 458 q 522 521 466 488 q 583 567 549 537 m 737 571 q 768 401 768 489 q 757 297 768 350 q 627 72 734 177 q 354 -20 533 -20 q 197 11 258 -20 q 115 35 151 35 q 8 -9 71 35 l -29 90 q 136 142 72 142 q 274 110 224 142 q 373 87 312 87 q 546 150 480 87 q 625 297 609 211 q 635 388 635 345 q 626 469 635 431 q 580 436 604 452 q 441 372 525 401 q 318 347 366 347 q 243 353 291 347 q 171 381 210 358 q 124 449 142 399 q 116 495 116 471 q 119 529 116 512 q 154 609 127 569 q 221 683 184 651 q 330 748 271 725 q 468 778 404 778 q 687 670 610 778 q 778 799 736 728 l 860 744 q 737 571 803 645 "},"Ἁ":{"x_min":-73.921875,"x_max":854.5,"ha":950,"o":"m 187 1007 l 207 1108 l 370 1108 l 349 1001 l 259 1001 q 330 895 238 895 l 316 826 q 187 1007 152 826 m 511 1012 l 666 1012 l 854 0 l 711 0 l 669 260 l 213 260 l 70 0 l -73 0 l 511 1012 m 560 877 l 276 374 l 648 374 l 560 877 "},"ӽ":{"x_min":-5.421875,"x_max":863.984375,"ha":822,"o":"m 863 760 l 517 390 l 699 58 q 705 -6 712 32 q 619 -211 678 -145 q 417 -289 550 -289 l 286 -289 l 306 -183 q 457 -181 439 -183 q 537 -137 512 -174 q 581 2 562 -100 l 420 298 l 141 0 l -5 0 l 366 397 l 166 759 l 314 759 l 463 489 l 716 760 l 863 760 "},"̼":{"x_min":-686.78125,"x_max":-125.5,"ha":0,"o":"m -381 -169 q -251 -114 -330 -114 q -129 -305 -103 -114 q -130 -308 -130 -306 l -209 -308 q -269 -207 -198 -207 q -368 -308 -338 -207 l -448 -308 q -507 -208 -436 -208 q -606 -308 -576 -208 l -686 -308 q -489 -115 -638 -115 q -381 -169 -410 -115 "},"ù":{"x_min":79,"x_max":817.390625,"ha":880,"o":"m 92 301 l 181 759 l 306 759 l 217 306 q 208 249 211 272 q 205 209 205 225 q 240 120 205 152 q 339 89 275 89 q 513 156 440 89 q 609 339 586 224 l 692 759 l 817 759 l 670 0 l 545 0 l 570 119 q 444 16 517 53 q 289 -20 371 -20 q 134 34 190 -20 q 79 187 79 89 q 82 238 79 207 q 92 301 85 268 m 468 1111 l 610 857 l 506 857 l 335 1111 l 468 1111 "},"◅":{"x_min":4.328125,"x_max":1064,"ha":1068,"o":"m 197 360 l 987 130 l 987 590 l 197 360 m 4 360 l 1064 706 l 1064 14 l 4 360 "},"⍵":{"x_min":92,"x_max":1068,"ha":1163,"o":"m 373 -20 q 92 382 92 -20 q 196 759 92 542 l 331 759 q 234 379 234 542 q 384 85 234 85 q 523 450 523 85 l 638 450 q 775 85 638 85 q 926 379 926 85 q 829 759 926 542 l 963 759 q 1068 382 1068 542 q 787 -20 1068 -20 q 580 182 602 -20 q 373 -20 552 -20 "},"ⱹ":{"x_min":-102.40625,"x_max":506.8125,"ha":575,"o":"m 218 0 l 241 117 q -40 -19 137 -19 q -102 -12 -65 -19 l -77 115 q 17 92 -42 92 q 193 160 123 92 q 288 358 263 229 l 370 779 q 370 916 390 883 q 280 949 351 949 l 123 949 l 143 1055 l 316 1055 q 481 989 440 1055 q 495 779 523 923 l 343 0 l 218 0 "},"◖":{"x_min":76,"x_max":606,"ha":732,"o":"m 341 -97 q 76 361 76 55 q 341 819 76 666 q 606 896 473 896 l 606 -174 q 341 -97 473 -174 "},"ԣ":{"x_min":52.21875,"x_max":1204.84375,"ha":1318,"o":"m 200 759 l 325 759 l 265 450 l 670 450 l 730 759 l 855 759 l 791 428 l 961 428 q 1177 379 1140 428 q 1192 169 1222 322 l 1156 -13 q 1060 -223 1128 -158 q 870 -289 992 -289 l 739 -289 l 760 -183 l 876 -183 q 979 -150 951 -183 q 1032 -13 1012 -114 l 1067 165 q 1068 302 1089 275 q 949 330 1045 330 l 772 330 l 708 0 l 582 0 l 650 350 l 245 350 l 177 0 l 52 0 l 200 759 "},"˝":{"x_min":261.09375,"x_max":787.359375,"ha":694,"o":"m 440 1111 l 555 1111 l 354 856 l 261 856 l 440 1111 m 666 1111 l 787 1111 l 569 856 l 478 856 l 666 1111 "},"⫺":{"x_min":147,"x_max":1016,"ha":1163,"o":"m 1016 132 l 1016 11 l 147 -238 l 147 -117 l 1016 132 m 1016 350 l 1016 229 l 147 -19 l 147 101 l 1016 350 m 147 693 l 147 812 l 1016 563 l 1016 448 l 147 198 l 147 319 l 797 505 l 147 693 "},"䷥":{"x_min":115,"x_max":1121,"ha":1245,"o":"m 119 574 l 1115 574 l 1120 569 l 1120 442 l 1115 438 l 119 438 l 115 442 l 115 569 l 119 574 m 119 793 l 518 793 l 523 788 l 523 661 l 518 657 l 119 657 l 115 661 l 115 788 l 119 793 m 716 793 l 1115 793 l 1120 788 l 1120 661 l 1115 657 l 716 657 l 712 661 l 712 788 l 716 793 m 119 1013 l 1115 1013 l 1120 1008 l 1120 881 l 1115 877 l 119 877 l 115 881 l 115 1008 l 119 1013 m 119 -84 l 1115 -84 l 1120 -88 l 1120 -215 l 1115 -220 l 119 -220 l 115 -215 l 115 -88 l 119 -84 m 120 135 l 1116 135 l 1121 130 l 1121 3 l 1116 -1 l 120 -1 l 116 3 l 116 130 l 120 135 m 119 355 l 518 355 l 523 350 l 523 223 l 518 219 l 119 219 l 115 223 l 115 350 l 119 355 m 716 355 l 1115 355 l 1120 350 l 1120 223 l 1115 219 l 716 219 l 712 223 l 712 350 l 716 355 "},"Ɇ":{"x_min":37.296875,"x_max":883.65625,"ha":878,"o":"m 768 1140 l 883 1140 l 814 1012 l 874 1012 l 851 897 l 752 897 l 592 597 l 772 597 l 750 482 l 530 482 l 333 115 l 712 115 l 689 0 l 271 0 l 202 -129 l 87 -129 l 156 0 l 37 0 l 233 1012 l 699 1012 l 768 1140 m 218 115 l 415 482 l 267 482 l 196 115 l 218 115 m 476 597 l 637 897 l 348 897 l 290 597 l 476 597 "},"בּ":{"x_min":-14.546875,"x_max":730.296875,"ha":845,"o":"m 274 431 l 376 431 l 355 329 l 254 329 l 274 431 m 555 429 q 568 539 568 493 q 553 612 568 585 q 435 663 526 663 l 149 663 l 168 760 l 453 760 q 661 677 607 760 q 693 555 693 627 q 678 411 693 484 l 617 97 l 730 97 l 711 0 l -14 0 l 4 97 l 491 97 l 555 429 "},"Ứ":{"x_min":77,"x_max":1186,"ha":1164,"o":"m 686 1288 l 826 1288 l 618 1109 l 511 1109 l 686 1288 m 896 877 l 912 957 q 974 912 947 927 q 1022 898 1001 898 q 1072 916 1053 898 q 1099 971 1091 935 q 1102 1014 1102 993 q 1095 1057 1102 1035 l 1186 1057 q 1186 1008 1186 1031 q 1181 964 1186 985 q 1128 843 1165 882 q 1028 804 1091 804 q 963 821 995 804 q 896 877 931 839 m 211 1026 l 348 1026 l 229 411 q 219 342 222 369 q 216 295 216 316 q 268 153 216 202 q 421 105 320 105 q 625 176 552 105 q 729 411 698 248 l 848 1026 l 986 1026 l 864 394 q 712 91 824 189 q 406 -6 600 -6 q 165 70 254 -6 q 77 277 77 146 q 80 330 77 301 q 90 394 83 360 l 211 1026 "},"ϫ":{"x_min":-40.6875,"x_max":901.96875,"ha":868,"o":"m 775 107 l 775 107 m 221 107 l 533 107 l 419 318 l 221 107 m 98 132 l 366 417 l 245 632 q 225 661 235 651 q 172 678 208 678 q 145 675 158 678 l 105 671 l 123 767 q 162 775 143 772 q 196 778 180 778 q 322 743 285 778 q 363 686 343 722 l 462 509 l 630 686 q 693 743 664 722 q 832 778 743 778 q 866 775 849 778 q 901 767 883 772 l 883 671 l 845 675 q 817 678 832 678 q 758 661 781 678 q 727 632 745 651 l 517 410 l 667 132 q 673 123 670 127 q 726 107 686 107 l 775 107 l 754 0 l -40 0 l -19 107 l 29 107 q 89 123 69 107 q 98 132 93 127 "},"⅃":{"x_min":4.75,"x_max":831.4375,"ha":774,"o":"m 831 1013 l 634 0 l 4 0 l 27 115 l 520 115 l 694 1013 l 831 1013 "},"⁂":{"x_min":41.8125,"x_max":1346.1875,"ha":1388,"o":"m 653 408 l 409 276 l 653 144 l 613 77 l 386 215 l 386 -40 l 309 -40 l 309 215 l 81 77 l 41 144 l 285 276 l 41 408 l 81 475 l 309 337 l 309 594 l 386 594 l 386 337 l 613 475 l 653 408 m 1346 408 l 1102 276 l 1346 144 l 1306 77 l 1081 215 l 1081 -40 l 1003 -40 l 1003 215 l 775 77 l 735 144 l 979 276 l 735 408 l 775 475 l 1003 337 l 1003 594 l 1079 594 l 1079 337 l 1306 475 l 1346 408 m 1000 945 l 756 814 l 1000 682 l 960 615 l 733 753 l 733 497 l 656 497 l 656 753 l 428 615 l 388 682 l 632 814 l 388 945 l 428 1013 l 656 875 l 656 1131 l 733 1131 l 733 875 l 960 1013 l 1000 945 "},"⡿":{"x_min":203,"x_max":813,"ha":1016,"o":"m 203 1085 l 406 1085 l 406 882 l 203 882 l 203 1085 m 203 701 l 406 701 l 406 498 l 203 498 l 203 701 m 203 317 l 406 317 l 406 114 l 203 114 l 203 317 m 610 1085 l 813 1085 l 813 882 l 610 882 l 610 1085 m 610 701 l 813 701 l 813 498 l 610 498 l 610 701 m 610 317 l 813 317 l 813 114 l 610 114 l 610 317 m 203 -68 l 406 -68 l 406 -271 l 203 -271 l 203 -68 "},"𝘬":{"x_min":48.828125,"x_max":849.75,"ha":804,"o":"m 254 1055 l 379 1055 l 259 439 l 687 759 l 849 759 l 372 395 l 720 -1 l 569 -1 l 245 370 l 173 0 l 48 0 l 254 1055 "},"⣄":{"x_min":203,"x_max":812,"ha":1015,"o":"m 203 317 l 406 317 l 406 114 l 203 114 l 203 317 m 203 -68 l 406 -68 l 406 -271 l 203 -271 l 203 -68 m 609 -68 l 812 -68 l 812 -271 l 609 -271 l 609 -68 "},"ʌ":{"x_min":-32.546875,"x_max":706.65625,"ha":822,"o":"m 706 0 l 574 0 l 461 637 l 99 0 l -32 0 l 400 760 l 569 760 l 706 0 "},"ģ":{"x_min":45.015625,"x_max":827.859375,"ha":881,"o":"m 588 861 l 445 861 l 598 1077 l 685 1077 l 588 861 m 827 760 l 698 94 q 555 -194 661 -99 q 272 -289 450 -289 q 150 -279 206 -289 q 45 -249 93 -269 l 68 -127 q 165 -171 114 -157 q 275 -186 217 -186 q 470 -121 394 -186 q 570 64 546 -56 l 581 121 q 460 31 529 62 q 311 0 391 0 q 130 76 196 0 q 64 286 64 152 q 103 492 64 391 q 216 670 143 592 q 328 750 264 722 q 462 778 392 778 q 595 742 539 778 q 680 642 652 707 l 702 760 l 827 760 m 640 481 q 596 623 640 573 q 473 674 553 674 q 379 654 424 674 q 302 599 334 634 q 222 461 251 540 q 194 298 194 382 q 237 154 194 204 q 363 104 281 104 q 560 211 481 104 q 640 481 640 319 "},"Ẵ":{"x_min":-73.921875,"x_max":904.671875,"ha":950,"o":"m 511 1012 l 666 1012 l 854 0 l 711 0 l 669 260 l 213 260 l 70 0 l -73 0 l 511 1012 m 560 877 l 276 374 l 648 374 l 560 877 m 425 1264 l 505 1264 q 540 1204 514 1222 q 618 1186 566 1186 q 713 1204 676 1186 q 769 1264 750 1223 l 850 1264 q 764 1143 827 1187 q 615 1100 702 1100 q 486 1141 533 1100 q 425 1264 438 1182 m 655 1329 l 632 1346 l 631 1347 q 576 1369 602 1369 q 535 1351 553 1369 q 504 1301 516 1334 l 419 1301 q 485 1411 443 1374 q 584 1449 526 1449 q 629 1441 608 1449 q 674 1417 649 1434 l 695 1400 q 720 1386 708 1390 q 747 1382 733 1382 q 793 1400 773 1382 q 819 1449 812 1418 l 904 1449 q 839 1338 882 1375 q 735 1301 797 1301 q 695 1308 714 1301 q 655 1329 676 1315 "},"䷻":{"x_min":115,"x_max":1121,"ha":1245,"o":"m 119 574 l 518 574 l 523 569 l 523 442 l 518 438 l 119 438 l 115 442 l 115 569 l 119 574 m 716 574 l 1115 574 l 1120 569 l 1120 442 l 1115 438 l 716 438 l 712 442 l 712 569 l 716 574 m 119 793 l 1115 793 l 1120 788 l 1120 661 l 1115 657 l 119 657 l 115 661 l 115 788 l 119 793 m 119 1013 l 518 1013 l 523 1008 l 523 881 l 518 877 l 119 877 l 115 881 l 115 1008 l 119 1013 m 716 1013 l 1115 1013 l 1120 1008 l 1120 881 l 1115 877 l 716 877 l 712 881 l 712 1008 l 716 1013 m 119 -84 l 1115 -84 l 1120 -88 l 1120 -215 l 1115 -220 l 119 -220 l 115 -215 l 115 -88 l 119 -84 m 120 135 l 1116 135 l 1121 130 l 1121 3 l 1116 -1 l 120 -1 l 116 3 l 116 130 l 120 135 m 119 355 l 518 355 l 523 350 l 523 223 l 518 219 l 119 219 l 115 223 l 115 350 l 119 355 m 716 355 l 1115 355 l 1120 350 l 1120 223 l 1115 219 l 716 219 l 712 223 l 712 350 l 716 355 "},"➘":{"x_min":170.90625,"x_max":946.71875,"ha":1164,"o":"m 688 267 l 170 737 l 285 852 l 755 335 l 899 543 l 946 75 l 478 124 l 688 267 "},"῟":{"x_min":272.625,"x_max":757.515625,"ha":694,"o":"m 508 1169 l 484 1186 l 484 1187 q 429 1209 455 1209 q 387 1191 406 1209 q 357 1141 369 1174 l 272 1141 q 338 1251 296 1214 q 437 1289 379 1289 q 481 1281 461 1289 q 526 1257 502 1274 l 548 1240 q 573 1226 560 1230 q 600 1222 586 1222 q 645 1240 626 1222 q 672 1289 665 1258 l 757 1289 q 692 1178 735 1215 q 587 1141 650 1141 q 548 1148 566 1141 q 508 1169 529 1155 m 370 1006 l 389 1107 l 553 1107 l 532 1000 l 441 1000 q 512 895 421 895 l 499 826 q 370 1006 335 826 "},"⪵":{"x_min":147,"x_max":1016,"ha":1163,"o":"m 372 -159 l 147 -159 l 147 -44 l 468 -44 l 533 34 l 147 34 l 147 149 l 629 149 l 722 260 l 816 182 l 788 149 l 1016 149 l 1016 34 l 691 34 l 627 -44 l 1016 -44 l 1016 -159 l 532 -159 l 438 -270 l 344 -192 l 372 -159 m 1016 772 q 433 565 807 565 q 1016 327 803 495 l 1016 181 q 147 493 779 434 l 147 606 q 1016 918 779 664 l 1016 772 "},"✆":{"x_min":58,"x_max":1105,"ha":1163,"o":"m 360 210 q 356 202 358 206 q 350 168 350 186 q 356 132 350 149 q 377 102 364 115 q 406 82 390 90 q 581 48 482 48 q 756 82 673 48 q 903 183 837 115 q 1003 330 971 250 q 1037 503 1037 411 q 1003 680 1037 599 q 903 828 972 757 q 756 928 839 893 q 581 963 675 963 q 406 928 490 963 q 259 828 326 895 q 159 680 191 760 q 126 503 126 599 q 159 330 126 412 q 208 242 178 284 l 208 139 q 96 305 135 213 q 58 503 58 398 q 96 706 58 610 q 212 875 132 794 q 381 990 285 950 q 581 1031 476 1031 q 782 990 686 1031 q 951 875 873 952 q 1066 706 1027 800 q 1105 503 1105 613 q 1066 305 1105 400 q 951 135 1030 216 q 782 20 876 59 q 581 -20 686 -20 q 380 20 474 -20 q 329 54 352 32 q 294 106 306 77 q 282 168 282 135 q 294 229 282 199 q 322 273 303 252 q 320 294 320 284 q 393 595 320 433 q 630 867 515 867 q 689 861 685 867 q 700 809 700 848 q 675 724 700 770 q 646 681 652 681 q 581 652 610 681 q 514 547 560 631 q 472 403 472 469 q 482 366 472 381 q 495 328 495 348 q 480 291 495 322 q 421 216 457 244 q 382 198 394 198 q 360 210 371 198 m 422 160 q 465 191 438 168 q 516 261 499 220 q 534 316 532 299 q 568 285 564 290 q 579 261 580 271 q 560 206 572 228 q 518 152 541 172 q 479 134 493 130 q 422 160 461 138 m 741 854 q 799 828 784 839 q 810 786 810 820 q 795 720 810 756 q 766 670 786 695 q 740 662 759 662 q 693 668 733 662 q 725 717 705 681 q 746 801 746 757 q 741 854 746 837 "},"⋇":{"x_min":147,"x_max":1016,"ha":1163,"o":"m 498 186 l 665 186 l 665 20 l 498 20 l 498 186 m 498 851 l 665 851 l 665 684 l 498 684 l 498 851 m 442 378 l 147 378 l 147 493 l 442 493 l 189 745 l 271 827 l 581 516 l 892 827 l 973 745 l 720 493 l 1016 493 l 1016 378 l 720 378 l 973 124 l 892 43 l 581 354 l 271 43 l 189 124 l 442 378 "},"⁴":{"x_min":56.96875,"x_max":541.859375,"ha":557,"o":"m 408 934 l 141 653 l 352 653 l 408 934 m 408 1019 l 520 1019 l 448 653 l 541 653 l 527 579 l 434 579 l 409 452 l 314 452 l 339 579 l 56 579 l 73 667 l 408 1019 "},"ᔵ":{"x_min":122.75,"x_max":1134.578125,"ha":1173,"o":"m 149 572 l 288 572 l 261 433 l 122 433 l 149 572 m 1134 1012 l 1032 491 l 516 491 l 809 0 l 672 0 l 379 488 l 401 606 l 918 606 l 997 1012 l 1134 1012 "},"⅖":{"x_min":50.546875,"x_max":1287.78125,"ha":1347,"o":"m 447 739 l 186 530 l 485 530 l 469 453 l 50 453 l 65 527 l 351 758 q 411 818 391 789 q 431 874 431 847 q 402 934 431 911 q 326 957 374 957 q 244 945 289 957 q 143 909 199 933 l 160 992 q 258 1021 211 1012 q 347 1031 304 1031 q 483 992 431 1031 q 535 893 535 953 q 513 812 535 851 q 447 739 491 774 m 1030 1031 l 1152 1031 l 315 -19 l 192 -19 l 1030 1031 m 941 566 l 1287 566 l 1274 502 l 1009 502 l 982 363 q 1023 372 1002 369 q 1061 375 1042 375 q 1224 322 1171 375 q 1261 182 1278 271 q 1167 40 1243 91 q 973 -10 1092 -10 q 891 -3 932 -10 q 806 14 849 2 l 821 90 q 897 62 857 72 q 984 54 937 54 q 1110 88 1059 54 q 1173 182 1161 123 q 1147 276 1184 241 q 1034 311 1109 311 q 962 304 998 311 q 886 283 925 297 l 941 566 "},"𝕥":{"x_min":37.4375,"x_max":613.03125,"ha":646,"o":"m 314 72 q 287 213 287 129 l 287 907 l 196 907 l 196 250 q 227 106 196 133 q 314 72 258 80 m 356 975 l 356 745 l 613 745 l 613 677 l 356 677 l 356 213 q 381 94 356 120 q 484 68 406 68 l 613 68 l 613 0 l 383 0 q 183 54 238 0 q 129 250 129 108 l 129 677 l 37 677 l 37 745 l 129 745 l 129 975 l 356 975 "},"❼":{"x_min":103,"x_max":1142,"ha":1245,"o":"m 1142 505 q 989 137 1142 289 q 621 -14 837 -14 q 255 137 407 -14 q 103 505 103 289 q 172 765 103 639 q 367 957 242 890 q 621 1025 492 1025 q 877 957 752 1025 q 1072 765 1002 890 q 1142 505 1142 641 m 405 721 l 719 721 l 490 183 l 621 183 l 869 766 l 869 817 l 405 817 l 405 721 "},"ᴅ":{"x_min":52.21875,"x_max":776.015625,"ha":840,"o":"m 305 660 l 197 100 l 292 100 q 522 167 440 100 q 632 380 604 235 q 604 592 660 524 q 401 660 548 660 l 305 660 m 200 760 l 410 760 q 717 668 632 760 q 764 380 802 576 q 604 92 726 184 q 263 0 482 0 l 52 0 l 200 760 "},"ắ":{"x_min":57,"x_max":825.78125,"ha":852,"o":"m 746 432 l 661 0 l 536 0 l 559 114 q 434 13 504 46 q 278 -20 364 -20 q 119 39 181 -20 q 57 191 57 98 q 163 401 57 324 q 455 479 269 479 l 629 479 l 636 512 q 638 524 637 517 q 639 544 639 530 q 589 638 639 604 q 451 672 540 672 q 326 656 390 672 q 194 609 262 640 l 216 724 q 354 764 286 751 q 485 777 422 777 q 689 719 619 777 q 760 549 760 661 q 756 497 760 527 q 746 432 753 466 m 611 381 l 486 381 q 259 340 333 381 q 185 213 185 299 q 223 119 185 153 q 327 85 261 85 q 505 158 429 85 q 605 353 581 231 l 611 381 m 354 1019 l 434 1019 q 469 960 442 978 q 547 942 495 942 q 642 960 605 942 q 698 1020 679 979 l 779 1020 q 694 899 756 943 q 544 856 631 856 q 415 896 462 856 q 354 1019 367 937 m 685 1206 l 825 1206 l 617 1027 l 510 1027 l 685 1206 "},"²":{"x_min":50.546875,"x_max":535,"ha":557,"o":"m 447 739 l 186 530 l 485 530 l 469 453 l 50 453 l 65 527 l 351 758 q 411 818 391 789 q 431 874 431 847 q 402 934 431 911 q 326 957 374 957 q 244 945 289 957 q 143 909 199 933 l 160 992 q 258 1021 211 1012 q 347 1031 304 1031 q 483 992 431 1031 q 535 893 535 953 q 513 812 535 851 q 447 739 491 774 "},"⡹":{"x_min":203,"x_max":813,"ha":1016,"o":"m 203 1085 l 406 1085 l 406 882 l 203 882 l 203 1085 m 610 1085 l 813 1085 l 813 882 l 610 882 l 610 1085 m 610 701 l 813 701 l 813 498 l 610 498 l 610 701 m 610 317 l 813 317 l 813 114 l 610 114 l 610 317 m 203 -68 l 406 -68 l 406 -271 l 203 -271 l 203 -68 "},"◱":{"x_min":126,"x_max":1186,"ha":1312,"o":"m 203 399 l 694 399 l 694 -94 l 1109 -94 l 1109 815 l 203 815 l 203 399 m 126 -171 l 126 892 l 1186 892 l 1186 -171 l 126 -171 m 203 -94 l 617 -94 l 617 322 l 203 322 l 203 -94 "},"ზ":{"x_min":19,"x_max":615,"ha":706,"o":"m 602 341 q 248 -1 535 -1 q 19 223 19 -1 q 31 341 19 276 q 194 615 76 564 l 197 628 q 121 757 121 658 q 128 826 121 788 q 375 1055 171 1055 q 559 901 559 1055 q 551 835 559 871 q 470 672 530 730 l 467 659 q 615 458 615 636 q 602 341 615 406 m 472 341 q 483 435 483 394 q 360 577 483 577 l 359 577 l 358 577 q 160 341 205 577 q 150 239 150 283 q 267 95 150 95 q 472 341 424 95 m 433 814 q 440 867 440 844 q 353 959 440 959 q 238 813 267 959 q 232 753 232 779 q 308 666 232 666 q 433 814 406 666 "},"Ʋ":{"x_min":91.6875,"x_max":954.21875,"ha":1001,"o":"m 405 115 q 660 213 552 115 q 800 474 769 311 q 782 723 827 611 q 689 856 752 797 l 698 902 l 819 902 q 939 706 910 806 q 941 475 967 606 q 744 133 901 266 q 383 1 588 1 l 330 1 q 123 79 174 1 q 105 346 70 162 l 234 1012 l 371 1012 l 242 348 q 244 165 217 216 q 362 115 271 115 l 405 115 "},"Ǆ":{"x_min":37.734375,"x_max":2046.015625,"ha":2021,"o":"m 235 1013 l 529 1013 q 883 913 763 1013 q 1003 618 1003 814 q 957 368 1003 488 q 832 166 912 249 q 627 41 751 82 q 333 0 503 0 l 37 0 l 235 1013 m 350 900 l 197 113 l 376 113 q 732 245 606 113 q 859 618 859 377 q 777 831 859 763 q 522 900 696 900 l 350 900 m 1251 1013 l 2046 1013 l 2026 908 l 1241 115 l 1887 115 l 1865 0 l 1038 0 l 1058 104 l 1843 898 l 1229 898 l 1251 1013 m 1730 1109 l 1586 1109 l 1479 1289 l 1569 1289 l 1664 1168 l 1805 1289 l 1908 1289 l 1730 1109 "},"⨑":{"x_min":79.484375,"x_max":725.21875,"ha":724,"o":"m 614 396 q 595 298 614 344 q 539 216 576 252 q 457 161 504 180 q 399 146 434 151 l 399 -91 q 341 -250 399 -203 q 234 -295 286 -295 q 131 -248 181 -295 q 79 -114 93 -212 l 179 -104 q 233 -193 191 -193 q 286 -73 286 -193 l 286 151 q 266 161 279 155 q 184 216 218 182 q 128 298 148 252 q 110 396 110 344 l 179 396 q 192 325 179 358 q 233 265 206 291 q 292 225 259 239 q 315 223 295 224 l 315 848 q 374 1007 315 960 q 484 1052 431 1052 q 590 1005 539 1052 q 644 871 629 969 l 544 861 q 486 950 532 950 q 428 830 428 950 l 428 218 q 431 225 421 220 q 491 265 466 241 q 531 325 518 292 q 545 395 545 357 l 545 416 l 481 353 l 432 402 l 561 530 l 597 530 l 725 402 l 676 353 l 614 416 l 614 396 "},"⨁":{"x_min":39,"x_max":1349,"ha":1388,"o":"m 897 872 q 694 913 802 913 q 490 872 585 913 q 320 756 397 833 q 202 584 241 678 q 164 380 164 490 q 202 178 164 272 q 320 6 241 84 q 490 -109 397 -70 q 694 -150 585 -150 q 897 -109 802 -150 q 1067 6 990 -70 q 1185 178 1146 84 q 1224 380 1224 272 q 1185 584 1224 490 q 1067 756 1146 678 q 897 872 990 833 m 438 984 q 694 1038 559 1038 q 944 989 828 1038 q 1157 844 1060 940 q 1301 631 1253 748 q 1349 380 1349 516 q 1301 129 1349 246 q 1157 -81 1253 14 q 944 -226 1060 -177 q 694 -275 828 -275 q 443 -226 559 -275 q 230 -81 327 -177 q 86 129 134 14 q 39 380 39 246 q 86 631 39 516 q 230 844 134 748 q 438 984 317 931 m 751 881 l 751 438 l 1194 438 l 1194 323 l 751 323 l 751 -120 l 637 -120 l 637 323 l 194 323 l 194 438 l 637 438 l 637 881 l 751 881 "},"↝":{"x_min":14.640625,"x_max":1134,"ha":1164,"o":"m 829 338 l 937 448 l 713 448 l 713 563 l 1091 563 l 1134 520 l 1134 143 l 1019 143 l 1019 366 l 910 257 q 817 195 870 218 q 707 174 767 174 q 597 195 646 174 q 504 257 538 222 q 441 352 462 302 q 403 408 426 385 q 346 447 378 433 q 281 460 317 460 q 215 447 243 460 q 159 409 181 431 q 121 352 135 385 l 14 396 q 78 490 37 450 q 171 553 115 528 q 281 575 219 575 q 391 553 340 575 q 483 491 443 530 q 547 396 524 450 q 585 340 561 364 q 641 301 609 316 q 707 289 671 289 q 773 301 745 289 q 829 338 805 316 "},"©":{"x_min":192,"x_max":1197,"ha":1389,"o":"m 694 1007 q 886 969 797 1007 q 1049 858 975 932 q 1160 695 1123 784 q 1197 502 1197 606 q 1160 310 1197 399 q 1049 148 1123 222 q 886 37 975 74 q 694 0 797 0 q 502 37 591 0 q 339 148 413 74 q 228 310 265 222 q 192 502 192 399 q 228 695 192 606 q 339 858 265 784 q 502 969 413 932 q 694 1007 591 1007 m 694 937 q 529 905 605 937 q 388 809 452 873 q 292 668 325 745 q 260 502 260 590 q 292 337 260 414 q 388 197 325 260 q 529 101 452 133 q 694 69 605 69 q 861 101 784 69 q 1001 197 938 133 q 1096 336 1064 260 q 1128 502 1128 413 q 1096 669 1128 592 q 1001 809 1064 746 q 861 905 938 873 q 694 937 784 937 m 897 771 l 897 683 q 808 717 852 706 q 719 728 764 728 q 562 668 618 728 q 506 502 506 609 q 563 336 506 395 q 726 277 621 277 q 811 287 769 277 q 897 321 852 298 l 897 234 q 805 205 851 215 q 711 196 758 196 q 480 278 565 196 q 395 502 395 361 q 480 726 395 644 q 711 809 565 809 q 806 799 760 809 q 897 771 852 789 "},"✳":{"x_min":76,"x_max":1088,"ha":1164,"o":"m 664 472 l 963 172 l 915 124 l 616 424 l 616 0 l 548 0 l 548 423 l 248 124 l 200 172 l 499 472 l 76 472 l 76 540 l 500 540 l 200 840 l 248 888 l 548 588 l 548 1013 l 616 1013 l 616 588 l 915 888 l 963 840 l 663 540 l 1088 540 l 1088 472 l 664 472 "},"⠏":{"x_min":203,"x_max":813,"ha":1016,"o":"m 203 1085 l 406 1085 l 406 882 l 203 882 l 203 1085 m 203 700 l 406 700 l 406 497 l 203 497 l 203 700 m 203 316 l 406 316 l 406 113 l 203 113 l 203 316 m 610 1085 l 813 1085 l 813 882 l 610 882 l 610 1085 "}," ":{"x_min":0,"x_max":0,"ha":441},"\\":{"x_min":118,"x_max":364.171875,"ha":468,"o":"m 233 1013 l 364 -129 l 250 -129 l 118 1013 l 233 1013 "},"≀":{"x_min":141.375,"x_max":380.640625,"ha":522,"o":"m 380 1 l 258 1 q 182 132 205 71 q 159 258 159 193 q 198 432 159 333 q 203 444 201 439 q 209 458 205 448 q 250 628 250 564 q 224 746 250 687 q 141 871 198 804 l 263 871 q 339 738 316 799 q 363 611 363 678 q 323 438 363 537 q 318 427 319 429 q 312 412 316 423 q 272 243 272 307 q 297 127 272 185 q 380 1 322 70 "},"ᶽ":{"x_min":0,"x_max":467.265625,"ha":509,"o":"m 220 453 q 210 410 214 433 l 145 410 q 155 453 149 433 l 0 453 l 12 517 l 367 822 l 82 822 l 93 878 l 467 878 l 455 813 l 99 509 l 174 509 q 315 619 221 619 q 394 525 412 619 q 238 453 380 453 l 220 453 m 240 509 l 248 509 q 326 529 322 509 q 303 564 333 564 q 240 509 266 564 "},"⪉":{"x_min":147,"x_max":1017,"ha":1163,"o":"m 1017 275 l 1017 154 q 885 77 945 100 q 758 54 824 54 q 656 69 712 54 l 620 -18 q 774 -54 715 -54 q 890 -28 833 -54 q 1017 54 947 -3 l 1017 -67 q 884 -143 945 -120 q 758 -167 824 -167 q 584 -127 684 -167 l 579 -125 l 517 -282 l 405 -239 l 466 -86 q 390 -76 422 -76 q 272 -101 331 -76 q 148 -183 214 -127 l 148 -62 q 279 13 218 -9 q 405 37 340 37 q 508 21 452 37 l 543 109 q 390 145 449 145 q 272 119 331 145 q 148 37 214 93 l 148 158 q 279 234 218 211 q 405 257 353 263 q 580 218 504 248 l 585 216 l 647 374 l 758 331 l 698 177 q 774 167 741 167 q 889 192 832 167 q 1017 275 946 217 m 1017 801 l 365 614 l 1017 428 l 1017 307 l 147 557 l 147 672 l 1017 921 l 1017 801 "},"Ḳ":{"x_min":37.296875,"x_max":1003.015625,"ha":911,"o":"m 234 1012 l 372 1012 l 288 585 l 820 1013 l 1003 1013 l 401 528 l 841 0 l 674 0 l 270 492 l 174 0 l 37 0 l 234 1012 m 287 -118 l 425 -118 l 398 -256 l 259 -256 l 287 -118 "},"ե":{"x_min":87,"x_max":824.171875,"ha":880,"o":"m 573 116 q 302 -20 459 -20 q 120 61 171 -20 q 87 177 87 112 q 98 299 87 241 l 245 1055 l 369 1055 l 312 759 l 824 759 l 801 644 l 290 644 l 223 304 q 215 227 215 261 q 350 89 215 89 q 523 154 453 89 q 615 329 594 219 l 637 441 l 761 441 l 676 0 l 551 0 l 573 116 "},"ṙ":{"x_min":48.828125,"x_max":642.90625,"ha":571,"o":"m 619 643 q 575 659 600 654 q 523 665 551 665 q 349 589 423 665 q 250 387 274 513 l 173 0 l 48 0 l 197 759 l 322 759 l 298 641 q 416 742 347 706 q 563 778 485 778 q 603 775 583 778 q 642 767 623 773 l 619 643 m 427 1052 l 565 1052 l 539 914 l 400 914 l 427 1052 "},"➟":{"x_min":79,"x_max":1096.03125,"ha":1164,"o":"m 472 300 l 309 300 l 309 571 l 472 571 l 472 300 m 255 300 l 174 300 l 174 571 l 255 571 l 255 300 m 120 300 l 79 300 l 79 571 l 120 571 l 120 300 m 799 300 l 527 300 l 527 571 l 799 571 l 799 732 l 1096 435 l 799 138 l 799 300 "},"ς":{"x_min":92,"x_max":772.4375,"ha":815,"o":"m 410 -20 q 147 87 227 -20 q 103 378 67 195 q 261 671 139 564 q 562 777 384 777 q 672 766 619 777 q 772 730 724 754 l 749 613 q 651 657 702 642 q 547 672 601 672 q 343 595 425 672 q 234 378 261 518 q 259 162 207 239 q 430 85 311 85 q 563 34 519 85 q 594 -100 610 -19 q 518 -233 579 -178 q 342 -292 452 -292 q 362 -192 351 -242 q 442 -163 408 -192 q 474 -114 468 -139 q 465 -48 480 -78 q 410 -20 448 -20 "},"ʇ":{"x_min":-15.59375,"x_max":477.4375,"ha":545,"o":"m 199 -215 l 241 0 l -15 0 l 3 97 l 260 97 l 340 509 q 337 628 358 602 q 240 655 318 655 l 111 655 l 132 759 l 260 759 q 448 704 404 759 q 465 509 493 651 l 385 97 l 477 97 l 458 0 l 366 0 l 324 -215 l 199 -215 "},"Ḋ":{"x_min":37.734375,"x_max":1003,"ha":1069,"o":"m 580 1268 l 717 1268 l 691 1129 l 552 1129 l 580 1268 m 235 1013 l 529 1013 q 883 913 763 1013 q 1003 618 1003 814 q 957 368 1003 488 q 832 166 912 249 q 627 41 751 82 q 333 0 503 0 l 37 0 l 235 1013 m 350 900 l 197 113 l 376 113 q 732 245 606 113 q 859 618 859 377 q 777 831 859 763 q 522 900 696 900 l 350 900 "},"ᵩ":{"x_min":57.578125,"x_max":548.421875,"ha":577,"o":"m 400 369 q 361 314 372 369 l 310 54 q 399 92 350 54 q 459 213 443 128 q 446 334 474 291 q 400 369 423 369 m 411 429 q 516 378 473 429 q 542 213 562 325 q 452 49 523 110 q 298 -8 383 -8 l 268 -161 l 190 -161 l 220 -9 q 90 48 134 -9 q 63 212 43 108 q 153 376 84 321 q 278 429 206 418 l 265 366 q 205 328 235 358 q 146 212 159 284 q 159 92 131 135 q 232 53 184 53 l 283 314 q 411 429 305 429 "},"⧒":{"x_min":147,"x_max":1241.28125,"ha":1388,"o":"m 147 -42 l 147 912 l 694 511 l 1241 912 l 1241 -42 l 694 358 l 147 -42 m 588 434 l 262 672 l 262 197 l 588 434 "},"ᶵ":{"x_min":58.328125,"x_max":367.5625,"ha":410,"o":"m 228 998 l 205 878 l 367 878 l 356 824 l 194 824 l 149 593 q 153 525 139 540 q 215 511 166 511 l 296 511 l 283 445 q 225 327 267 364 q 106 291 183 291 l 76 291 l 88 351 l 109 351 q 173 369 153 351 q 204 445 193 387 l 206 453 l 204 453 q 84 483 113 453 q 71 593 55 513 l 115 824 l 58 824 l 69 878 l 126 878 l 149 998 l 228 998 "},"ç":{"x_min":64,"x_max":744.96875,"ha":764,"o":"m 744 730 l 719 607 q 624 655 675 639 q 519 672 574 672 q 406 651 460 672 q 315 591 352 630 q 225 453 257 532 q 194 288 194 373 q 245 136 194 186 q 400 86 296 86 q 510 101 452 86 q 631 148 567 117 l 607 25 q 495 -8 553 2 q 378 -20 438 -20 q 145 55 226 -20 q 64 271 64 131 q 106 489 64 389 q 232 668 148 588 q 365 750 289 722 q 533 778 442 778 q 638 766 586 778 q 744 730 690 754 m 404 0 q 440 -64 429 -34 q 452 -122 452 -93 q 402 -228 452 -189 q 265 -268 352 -268 q 207 -263 236 -268 q 149 -251 178 -259 l 164 -163 q 218 -179 191 -174 q 273 -185 244 -185 q 337 -164 313 -185 q 362 -107 362 -143 q 353 -63 362 -87 q 324 0 345 -39 l 404 0 "},"Ⅼ":{"x_min":37.296875,"x_max":690.375,"ha":774,"o":"m 233 1012 l 370 1012 l 197 114 l 690 114 l 668 0 l 37 0 l 233 1012 "},"ִ":{"x_min":383.171875,"x_max":505.234375,"ha":0,"o":"m 403 -118 l 505 -118 l 484 -220 l 383 -220 l 403 -118 "},"Δ":{"x_min":-87.484375,"x_max":840.25,"ha":950,"o":"m 546 877 l 120 114 l 677 114 l 546 877 m -87 0 l 495 1012 l 651 1012 l 840 0 l -87 0 "},"‰":{"x_min":126,"x_max":1748,"ha":1875,"o":"m 1466 -20 q 1319 40 1373 -20 q 1266 204 1266 100 q 1344 441 1266 350 q 1549 532 1422 532 q 1694 472 1641 532 q 1748 308 1748 412 q 1669 71 1748 162 q 1466 -20 1591 -20 m 1640 302 q 1613 411 1640 375 q 1535 447 1587 447 q 1417 380 1460 447 q 1375 197 1375 314 q 1402 99 1375 133 q 1480 66 1429 66 q 1596 130 1552 66 q 1640 302 1640 195 m 326 479 q 179 539 233 479 q 126 702 126 599 q 204 940 126 849 q 409 1031 283 1031 q 556 970 502 1031 q 610 805 610 909 q 531 569 610 660 q 326 479 452 479 m 501 801 q 474 908 501 872 q 396 945 448 945 q 277 879 320 945 q 235 695 235 813 q 262 598 235 632 q 340 565 289 565 q 457 629 413 565 q 501 801 501 694 m 1084 302 q 1058 411 1084 375 q 980 447 1032 447 q 862 380 905 447 q 819 197 819 314 q 846 99 819 133 q 924 66 873 66 q 1040 130 997 66 q 1084 302 1084 195 m 910 -20 q 764 40 818 -20 q 711 204 711 100 q 789 441 711 350 q 994 532 867 532 q 1139 472 1086 532 q 1193 308 1193 412 q 1114 71 1193 162 q 910 -20 1036 -20 m 1141 1031 l 304 -20 l 196 -20 l 1033 1031 l 1141 1031 "},"Ä":{"x_min":-73.921875,"x_max":854.5,"ha":950,"o":"m 511 1012 l 666 1012 l 854 0 l 711 0 l 669 260 l 213 260 l 70 0 l -73 0 l 511 1012 m 560 877 l 276 374 l 648 374 l 560 877 m 422 1269 l 560 1269 l 533 1131 l 396 1131 l 422 1269 m 687 1269 l 824 1269 l 798 1131 l 661 1131 l 687 1269 "},"Ṣ":{"x_min":7.890625,"x_max":837.453125,"ha":882,"o":"m 837 979 l 811 846 q 674 901 742 882 q 544 920 607 920 q 348 866 421 920 q 276 723 276 812 q 302 648 276 674 q 440 592 329 622 l 522 572 q 716 481 662 536 q 771 326 771 425 q 650 76 771 172 q 333 -20 530 -20 q 171 -4 252 -20 q 7 44 89 11 l 35 185 q 186 114 110 138 q 337 91 262 91 q 542 148 465 91 q 620 296 620 205 q 589 389 620 357 q 456 446 558 420 l 374 467 q 183 552 234 504 q 132 686 132 600 q 248 934 132 837 q 551 1031 364 1031 q 695 1018 623 1031 q 837 979 766 1005 m 257 -118 l 394 -118 l 368 -256 l 229 -256 l 257 -118 "},"⣰":{"x_min":203,"x_max":813,"ha":1016,"o":"m 610 701 l 813 701 l 813 498 l 610 498 l 610 701 m 610 317 l 813 317 l 813 114 l 610 114 l 610 317 m 203 -68 l 406 -68 l 406 -271 l 203 -271 l 203 -68 m 610 -68 l 813 -68 l 813 -271 l 610 -271 l 610 -68 "},"—":{"x_min":58.328125,"x_max":1330.5625,"ha":1389,"o":"m 77 430 l 1330 430 l 1311 332 l 58 332 l 77 430 "},"N":{"x_min":37.296875,"x_max":1001.65625,"ha":1039,"o":"m 234 1013 l 419 1013 l 698 144 l 868 1013 l 1001 1013 l 804 0 l 619 0 l 340 873 l 170 0 l 37 0 l 234 1013 "},"⇄":{"x_min":68,"x_max":1096,"ha":1164,"o":"m 1096 668 l 1096 608 l 829 341 l 748 422 l 906 581 l 79 581 l 79 696 l 906 696 l 748 854 l 829 935 l 1096 668 m 68 201 l 68 261 l 334 528 l 415 447 l 257 289 l 1085 289 l 1085 174 l 257 174 l 415 15 l 334 -65 l 68 201 "},"ⅺ":{"x_min":-35.9375,"x_max":1135.25,"ha":1142,"o":"m 833 759 l 484 386 l 698 0 l 555 0 l 394 300 l 115 0 l -35 0 l 337 399 l 139 759 l 282 759 l 427 484 l 682 759 l 833 759 m 1010 1055 l 1135 1055 l 1104 897 l 979 897 l 1010 1055 m 953 759 l 1078 759 l 929 0 l 804 0 l 953 759 "},"2":{"x_min":5.34375,"x_max":797,"ha":883,"o":"m 640 488 l 202 114 l 686 114 l 662 0 l 5 0 l 27 115 l 484 507 q 614 646 576 586 q 653 769 653 706 q 606 876 653 835 q 486 918 560 918 q 343 894 421 918 q 174 827 264 871 l 199 963 q 360 1013 284 996 q 502 1031 437 1031 q 716 960 635 1031 q 797 775 797 889 q 758 627 797 697 q 640 488 719 557 "},"וֹ":{"x_min":31.875,"x_max":327.5625,"ha":378,"o":"m 225 970 l 327 970 l 307 868 l 205 868 l 225 970 m 158 0 l 31 0 l 179 759 l 305 759 l 158 0 "},"☘":{"x_min":108,"x_max":1137,"ha":1245,"o":"m 602 526 l 456 735 q 406 881 406 805 q 465 997 406 953 q 516 1012 490 1012 q 605 975 576 1012 q 664 975 635 938 q 733 1012 694 1012 q 834 934 796 1012 q 843 881 843 906 q 781 716 843 794 l 646 528 l 866 596 q 1042 604 959 630 q 1089 577 1065 596 q 1137 488 1137 533 q 1132 459 1137 474 q 1075 404 1120 421 q 1056 349 1030 388 q 1063 252 1082 309 q 1034 208 1056 227 q 952 181 995 181 q 906 189 929 181 q 782 281 834 212 l 642 469 q 572 0 670 201 l 508 0 q 602 469 629 200 l 462 281 q 339 189 410 212 q 292 181 315 181 q 211 208 249 181 q 180 252 188 227 q 188 349 162 309 q 169 404 214 388 q 112 459 124 421 q 108 487 108 474 q 155 577 108 533 q 203 604 179 596 q 378 596 285 630 l 602 526 "},"῁":{"x_min":255.671875,"x_max":757.515625,"ha":694,"o":"m 508 1170 l 484 1187 l 484 1188 q 429 1210 455 1210 q 387 1192 406 1210 q 357 1141 369 1175 l 272 1141 q 338 1252 296 1215 q 437 1290 379 1290 q 481 1282 461 1290 q 526 1258 502 1275 l 548 1240 q 573 1226 560 1230 q 600 1222 586 1222 q 645 1240 626 1222 q 672 1290 665 1258 l 757 1290 q 692 1178 735 1215 q 587 1141 650 1141 q 548 1148 566 1141 q 508 1170 529 1155 m 282 1053 l 421 1053 l 393 916 l 255 916 l 282 1053 m 547 1053 l 684 1053 l 658 916 l 520 916 l 547 1053 "},"ǃ":{"x_min":36.625,"x_max":370.953125,"ha":410,"o":"m 233 1013 l 370 1013 l 284 568 l 223 326 l 113 326 l 147 568 l 233 1013 m 71 172 l 208 172 l 175 0 l 36 0 l 71 172 "},"⠩":{"x_min":203,"x_max":813,"ha":1016,"o":"m 203 1085 l 406 1085 l 406 882 l 203 882 l 203 1085 m 610 1085 l 813 1085 l 813 882 l 610 882 l 610 1085 m 610 316 l 813 316 l 813 113 l 610 113 l 610 316 "},"ḩ":{"x_min":-106.953125,"x_max":786,"ha":880,"o":"m 773 458 l 684 0 l 559 0 l 648 453 q 657 509 654 485 q 661 548 661 534 q 625 637 661 605 q 524 669 589 669 q 350 601 424 669 q 255 420 277 533 l 173 0 l 49 0 l 254 1055 l 379 1055 l 298 639 q 419 740 345 703 q 575 778 493 778 q 730 723 675 778 q 786 571 786 669 q 782 518 786 546 q 773 458 779 490 m 148 0 q 184 -64 173 -34 q 196 -122 196 -93 q 146 -229 196 -190 q 9 -268 96 -268 q -48 -263 -19 -268 q -106 -251 -77 -259 l -91 -163 q -38 -179 -64 -174 q 17 -185 -11 -185 q 81 -164 57 -185 q 106 -107 106 -143 q 97 -63 106 -87 q 68 0 89 -39 l 148 0 "},"Ў":{"x_min":33.90625,"x_max":920.953125,"ha":846,"o":"m 122 1012 l 269 1012 l 405 418 l 773 1013 l 920 1013 l 369 122 q 322 63 348 88 q 86 0 256 0 l 33 0 l 56 115 l 99 115 q 207 129 179 115 q 253 173 235 144 l 297 245 l 122 1012 m 355 1289 l 436 1289 q 470 1229 444 1247 q 548 1211 497 1211 q 643 1229 606 1211 q 699 1289 680 1248 l 780 1289 q 695 1168 757 1212 q 545 1125 632 1125 q 416 1166 463 1125 q 355 1289 368 1207 "},"⋎":{"x_min":67.140625,"x_max":950.109375,"ha":1017,"o":"m 67 804 l 212 804 q 508 232 465 554 q 804 804 558 553 l 950 804 q 571 0 640 544 l 445 0 q 67 804 376 544 "},"┛":{"x_min":-13.8125,"x_max":526,"ha":836,"o":"m -13 278 l -13 511 l 309 511 l 309 1350 l 526 1350 l 526 278 l -13 278 "},"╕":{"x_min":-13.0625,"x_max":473,"ha":837,"o":"m 364 -419 l 364 220 l -13 220 l -13 337 l 364 337 l 364 453 l -13 453 l -13 570 l 473 570 l 473 -419 l 364 -419 "},"𝕊":{"x_min":92,"x_max":802,"ha":881,"o":"m 227 898 q 160 732 160 837 q 206 574 160 626 q 368 494 252 522 l 444 477 q 615 387 558 450 q 673 237 673 325 q 647 97 673 150 q 734 278 734 157 q 681 462 734 399 q 513 552 628 525 l 438 570 q 265 650 319 597 q 212 780 212 703 q 227 898 212 857 m 743 979 l 743 903 q 496 983 603 983 q 334 936 389 983 q 280 811 280 890 q 316 696 280 732 q 454 636 353 660 l 529 618 q 734 504 666 584 q 802 281 802 424 q 704 56 802 137 q 439 -24 606 -24 q 95 44 272 -24 l 95 129 q 368 28 246 28 q 547 77 490 28 q 605 212 605 127 q 563 344 605 298 q 428 411 522 389 l 353 428 q 154 530 216 460 q 92 735 92 601 q 186 952 92 869 q 434 1035 280 1035 q 743 979 588 1035 "},"ǚ":{"x_min":79,"x_max":817.390625,"ha":880,"o":"m 92 300 l 181 758 l 306 758 l 217 305 q 208 248 211 271 q 205 208 205 224 q 240 119 205 151 q 339 88 275 88 q 513 155 440 88 q 609 338 586 223 l 692 759 l 817 759 l 670 0 l 545 0 l 570 118 q 444 15 517 52 q 289 -21 371 -21 q 134 33 190 -21 q 79 186 79 88 q 82 237 79 206 q 92 300 85 267 m 634 1078 l 489 1078 l 382 1258 l 473 1258 l 567 1137 l 709 1258 l 811 1258 l 634 1078 m 353 1055 l 491 1055 l 464 917 l 327 917 l 353 1055 m 618 1055 l 755 1055 l 729 917 l 592 917 l 618 1055 "},"⊇":{"x_min":147,"x_max":1035,"ha":1164,"o":"m 147 102 l 999 102 l 999 0 l 147 0 l 147 102 m 147 203 l 147 305 l 711 305 q 868 370 803 305 q 933 527 933 433 q 868 684 933 619 q 711 750 804 750 l 147 750 l 147 852 l 711 852 q 940 757 847 852 q 1035 527 1035 661 q 940 297 1035 391 q 710 203 847 203 l 147 203 "},"ᒔ":{"x_min":122.75,"x_max":1131.484375,"ha":1132,"o":"m 149 572 l 288 572 l 261 433 l 122 433 l 149 572 m 985 710 q 955 866 1004 809 q 819 924 906 924 q 670 872 750 924 q 570 710 591 821 l 432 0 l 295 0 l 432 709 q 572 951 463 870 q 840 1033 680 1033 q 1071 956 987 1033 q 1122 710 1154 880 l 985 710 "},"Վ":{"x_min":150.03125,"x_max":1075.734375,"ha":1225,"o":"m 676 0 l 735 307 q 472 240 614 240 q 202 340 285 240 q 162 639 124 438 l 186 760 l 324 760 l 303 656 q 317 422 272 494 q 493 351 362 351 q 699 422 625 351 q 803 656 771 492 l 872 1012 l 1010 1012 l 836 119 l 885 119 q 1038 57 986 119 q 1068 -120 1091 -4 l 1059 -168 l 954 -168 l 960 -134 q 947 -33 974 -61 q 861 0 916 0 l 676 0 "},"⪆":{"x_min":147,"x_max":1017,"ha":1163,"o":"m 1017 54 l 1017 -67 q 884 -143 945 -120 q 758 -167 824 -167 q 584 -127 683 -167 q 574 -122 578 -124 q 559 -117 569 -121 q 390 -76 454 -76 q 272 -101 331 -76 q 148 -183 214 -127 l 148 -62 q 279 13 218 -9 q 405 37 340 37 q 580 -2 480 37 q 591 -7 587 -6 q 605 -12 595 -8 q 774 -54 710 -54 q 889 -28 832 -54 q 1017 54 946 -3 m 1017 275 l 1017 154 q 884 77 945 100 q 758 54 824 54 q 584 93 683 54 q 574 98 578 96 q 559 104 569 100 q 390 145 454 145 q 272 119 331 145 q 148 37 214 93 l 148 158 q 279 234 218 211 q 405 258 340 258 q 580 218 480 258 q 590 214 587 215 q 605 207 595 211 q 774 167 710 167 q 889 192 832 167 q 1017 275 946 217 m 147 801 l 147 921 l 1017 672 l 1017 557 l 147 307 l 147 428 l 798 614 l 147 801 "},"•":{"x_min":208,"x_max":611,"ha":819,"o":"m 208 516 q 266 658 208 600 q 410 717 325 717 q 552 658 494 717 q 611 516 611 600 q 552 373 611 431 q 409 315 494 315 q 266 373 324 315 q 208 516 208 431 "},"Ἲ":{"x_min":71.890625,"x_max":844.328125,"ha":882,"o":"m 487 1111 l 629 857 l 524 857 l 354 1111 l 487 1111 m 270 1006 q 71 826 235 826 l 85 895 q 195 1000 175 895 l 105 1000 l 126 1107 l 290 1107 l 270 1006 m 706 1013 l 844 1013 l 646 0 l 509 0 l 706 1013 "},"⠢":{"x_min":203,"x_max":813,"ha":1016,"o":"m 203 700 l 406 700 l 406 497 l 203 497 l 203 700 m 610 316 l 813 316 l 813 113 l 610 113 l 610 316 "},"◊":{"x_min":4.0625,"x_max":682.234375,"ha":686,"o":"m 343 955 l 82 401 l 343 -158 l 604 401 l 343 955 m 343 1121 l 682 401 l 343 -323 l 4 401 l 343 1121 "},"ḅ":{"x_min":49.828125,"x_max":815,"ha":881,"o":"m 687 463 q 641 617 687 561 q 517 673 596 673 q 409 644 459 673 q 321 563 359 616 q 259 432 282 506 q 237 284 237 358 q 281 137 237 190 q 403 84 325 84 q 512 111 462 84 q 600 192 562 138 q 663 322 639 248 q 687 463 687 396 m 299 643 q 414 741 345 706 q 560 777 484 777 q 746 698 677 777 q 815 485 815 619 q 774 272 815 375 q 659 89 734 169 q 547 8 610 36 q 413 -20 483 -20 q 285 13 339 -20 q 196 114 230 47 l 174 0 l 49 0 l 255 1055 l 380 1055 l 299 643 m 254 -118 l 392 -118 l 365 -256 l 226 -256 l 254 -118 "},"ᾃ":{"x_min":62.296875,"x_max":895.65625,"ha":915,"o":"m 373 -289 l 272 -289 q 241 -266 255 -289 q 237 -217 232 -248 l 268 -62 l 369 -62 l 338 -217 q 342 -235 337 -227 q 358 -244 348 -244 l 382 -244 l 373 -289 m 661 1111 l 803 857 l 698 857 l 527 1111 l 661 1111 m 280 1007 l 300 1108 l 463 1108 l 442 1001 l 351 1001 q 422 895 331 895 l 409 826 q 280 1007 245 826 m 569 353 l 569 510 q 448 671 569 671 q 302 596 358 671 q 207 379 231 503 q 215 158 178 229 q 335 86 253 86 q 503 230 426 86 l 569 353 m 469 778 q 680 561 680 778 q 784 760 678 561 l 895 760 l 675 348 l 675 199 q 693 138 675 166 q 735 105 713 105 l 795 105 l 775 0 l 700 0 q 590 56 636 0 q 568 145 568 85 q 447 10 523 72 q 315 -17 412 -17 q 98 85 156 -17 q 76 380 39 191 q 218 674 115 582 q 469 778 334 778 "},"ᴌ":{"x_min":-12.203125,"x_max":638.828125,"ha":810,"o":"m 201 777 l 326 777 l 272 498 l 378 564 l 416 492 l 251 389 l 198 115 l 638 115 l 616 0 l 50 0 l 109 300 l 24 247 l -12 319 l 130 408 l 201 777 "},"⇍":{"x_min":68,"x_max":1085,"ha":1164,"o":"m 688 507 l 271 507 l 200 435 l 271 364 l 606 364 l 688 507 m 806 507 l 724 364 l 1085 364 l 1085 283 l 677 283 l 597 145 l 509 196 l 559 283 l 352 283 l 416 219 l 334 138 l 68 404 l 68 466 l 334 732 l 416 651 l 352 588 l 735 588 l 814 725 l 903 674 l 853 588 l 1085 588 l 1085 507 l 806 507 "},"Ầ":{"x_min":-73.921875,"x_max":854.5,"ha":950,"o":"m 511 1012 l 666 1012 l 854 0 l 711 0 l 669 260 l 213 260 l 70 0 l -73 0 l 511 1012 m 560 877 l 276 374 l 648 374 l 560 877 m 558 1289 l 704 1289 l 811 1109 l 720 1109 l 625 1229 l 483 1109 l 381 1109 l 558 1289 m 377 1428 l 477 1249 l 382 1249 l 253 1428 l 377 1428 "},"✸":{"x_min":56.96875,"x_max":1106.765625,"ha":1164,"o":"m 581 1031 l 697 784 l 952 877 l 859 621 l 1106 505 l 859 390 l 952 134 l 697 227 l 581 -19 l 466 227 l 210 134 l 303 390 l 56 505 l 303 621 l 210 877 l 466 784 l 581 1031 "},"Ỹ":{"x_min":87.484375,"x_max":938.59375,"ha":848,"o":"m 538 1160 l 514 1177 l 514 1178 q 459 1200 484 1200 q 417 1182 436 1200 q 387 1131 399 1165 l 302 1131 q 367 1242 326 1205 q 467 1280 409 1280 q 511 1272 491 1280 q 556 1248 532 1265 l 578 1230 q 603 1216 590 1220 q 630 1212 616 1212 q 675 1230 656 1212 q 702 1280 695 1248 l 787 1280 q 722 1168 764 1205 q 617 1131 680 1131 q 578 1138 596 1131 q 538 1160 559 1145 m 87 1013 l 234 1013 l 423 596 l 784 1013 l 938 1013 l 479 482 l 385 0 l 248 0 l 341 482 l 87 1013 "},"✫":{"x_min":32.40625,"x_max":1130.59375,"ha":1163,"o":"m 665 659 q 581 676 626 676 q 497 659 536 676 q 426 611 458 641 q 378 539 393 577 q 362 454 362 499 q 378 370 362 410 q 426 298 393 332 q 497 250 458 267 q 581 234 536 234 q 665 250 626 234 q 736 298 704 267 q 784 370 769 332 q 801 454 801 410 q 784 539 801 499 q 736 611 769 577 q 665 659 704 641 m 581 1032 l 710 633 l 1130 633 l 791 386 l 921 -12 l 581 234 l 241 -12 l 371 386 l 32 633 l 452 633 l 581 1032 "},"⢬":{"x_min":203,"x_max":813,"ha":1016,"o":"m 203 317 l 406 317 l 406 114 l 203 114 l 203 317 m 610 1085 l 813 1085 l 813 882 l 610 882 l 610 1085 m 610 317 l 813 317 l 813 114 l 610 114 l 610 317 m 610 -68 l 813 -68 l 813 -271 l 610 -271 l 610 -68 "},"✺":{"x_min":76,"x_max":1088,"ha":1164,"o":"m 541 710 l 541 1013 l 622 1013 l 622 712 l 737 989 l 812 958 l 697 680 l 910 893 l 968 835 l 754 622 l 1034 738 l 1065 662 l 785 547 l 1088 547 l 1088 466 l 787 466 l 1065 350 l 1034 275 l 754 391 l 968 177 l 910 119 l 698 332 l 812 54 l 737 23 l 622 300 l 622 0 l 541 0 l 541 301 l 425 23 l 350 54 l 465 333 l 252 119 l 195 177 l 408 390 l 129 275 l 98 350 l 376 466 l 76 466 l 76 547 l 378 547 l 98 662 l 129 738 l 406 623 l 195 835 l 252 893 l 465 681 l 350 958 l 425 989 l 541 710 "},"✢":{"x_min":57.015625,"x_max":1106.984375,"ha":1164,"o":"m 548 540 l 548 561 q 496 771 548 688 q 467 898 467 818 q 503 998 467 966 q 582 1031 541 1031 q 661 998 623 1031 q 698 898 698 966 q 667 771 698 818 q 616 561 616 688 l 616 540 l 637 540 q 846 591 764 540 q 974 622 894 622 q 1074 585 1041 622 q 1106 506 1106 547 q 1074 427 1106 465 q 974 391 1041 391 q 846 420 894 391 q 637 472 764 472 l 616 472 l 616 450 q 667 241 616 323 q 698 114 698 194 q 661 13 698 46 q 582 -19 623 -19 q 503 13 541 -19 q 467 114 467 46 q 496 241 467 194 q 548 450 548 323 l 548 472 l 526 472 q 317 420 400 472 q 190 391 270 391 q 89 427 122 391 q 57 506 57 465 q 89 585 57 547 q 190 622 122 622 q 317 591 270 622 q 526 540 400 540 l 548 540 "},"ẽ":{"x_min":64,"x_max":793,"ha":855,"o":"m 427 929 l 397 966 q 377 984 388 977 q 355 993 366 990 q 312 968 329 993 q 283 888 294 943 l 198 888 q 262 1029 218 980 q 368 1079 306 1079 q 414 1068 393 1079 q 454 1037 436 1058 l 486 1000 q 503 983 494 989 q 526 974 513 977 q 568 998 551 974 q 598 1079 585 1022 l 683 1079 q 620 937 663 986 q 513 888 576 888 q 465 898 488 888 q 427 929 443 908 m 667 447 q 670 469 669 457 q 672 492 672 481 q 623 623 672 575 q 491 672 575 672 q 327 613 398 672 q 219 447 256 554 l 667 447 m 776 350 l 195 350 q 190 309 191 324 q 189 283 189 294 q 247 137 189 189 q 410 85 305 85 q 564 104 492 85 q 699 157 637 122 l 676 34 q 537 -6 608 7 q 392 -20 465 -20 q 149 55 234 -20 q 64 270 64 131 q 106 491 64 389 q 230 673 148 593 q 356 750 283 723 q 511 777 429 777 q 716 700 640 777 q 793 493 793 623 q 788 426 793 461 q 776 350 784 390 "},"ĕ":{"x_min":64,"x_max":793,"ha":855,"o":"m 355 1090 l 432 1090 l 432 1080 q 460 1011 432 1034 q 547 989 488 989 q 642 1013 604 989 q 700 1090 679 1038 l 779 1090 q 693 946 757 996 q 529 896 628 896 q 397 939 442 896 q 353 1068 353 983 q 354 1079 353 1072 q 355 1090 355 1087 m 667 447 q 670 469 669 457 q 672 492 672 481 q 623 623 672 575 q 491 672 575 672 q 327 613 398 672 q 219 447 256 554 l 667 447 m 776 350 l 195 350 q 190 309 191 324 q 189 283 189 294 q 247 137 189 189 q 410 85 305 85 q 564 104 492 85 q 699 157 637 122 l 676 34 q 537 -6 608 7 q 392 -20 465 -20 q 149 55 234 -20 q 64 270 64 131 q 106 491 64 389 q 230 673 148 593 q 356 750 283 723 q 511 777 429 777 q 716 700 640 777 q 793 493 793 623 q 788 426 793 461 q 776 350 784 390 "},"ż":{"x_min":-4.0625,"x_max":754.125,"ha":729,"o":"m 415 1053 l 552 1053 l 526 915 l 387 915 l 415 1053 m 161 760 l 754 760 l 731 645 l 160 100 l 632 100 l 612 0 l -4 0 l 18 114 l 590 660 l 141 660 l 161 760 "},"⏏":{"x_min":126,"x_max":1186,"ha":1312,"o":"m 1186 456 l 126 456 l 655 827 l 1186 456 m 1186 0 l 126 0 l 126 342 l 1186 342 l 1186 0 "},"⠸":{"x_min":610,"x_max":813,"ha":1016,"o":"m 610 1085 l 813 1085 l 813 882 l 610 882 l 610 1085 m 610 700 l 813 700 l 813 497 l 610 497 l 610 700 m 610 316 l 813 316 l 813 113 l 610 113 l 610 316 "},"➆":{"x_min":6,"x_max":1158,"ha":1164,"o":"m 777 976 q 582 1015 686 1015 q 386 976 477 1015 q 223 864 297 939 q 112 700 147 789 q 74 503 74 609 q 112 310 74 401 q 223 146 147 221 q 386 34 297 70 q 582 -4 477 -4 q 777 34 686 -4 q 940 146 867 70 q 1052 310 1016 221 q 1090 503 1090 401 q 1052 700 1090 609 q 940 864 1016 789 q 777 976 867 939 m 319 911 l 840 911 l 840 864 l 545 100 l 431 100 l 708 819 l 319 819 l 319 911 m 360 1039 q 582 1083 463 1083 q 803 1039 700 1083 q 989 912 904 997 q 1115 726 1074 827 q 1158 503 1158 623 q 1115 284 1158 387 q 989 98 1074 183 q 803 -28 904 13 q 582 -72 700 -72 q 360 -28 463 -72 q 174 98 259 13 q 48 284 89 183 q 6 503 6 387 q 48 726 6 623 q 174 912 89 827 q 360 1039 259 997 "},"שׁ":{"x_min":52.21875,"x_max":1090.5,"ha":1122,"o":"m 988 970 l 1090 970 l 1070 868 l 968 868 l 988 970 m 52 0 l 200 759 l 325 759 l 255 403 q 500 523 438 403 q 564 759 530 580 l 690 759 q 604 475 651 549 q 237 305 496 305 l 196 97 q 533 126 421 97 q 762 271 675 163 q 944 760 878 415 l 1070 760 q 881 250 1000 399 q 392 0 682 0 l 52 0 "},"ȼ":{"x_min":-69.84375,"x_max":833.46875,"ha":764,"o":"m -14 -64 l -69 -11 l 88 144 q 76 378 49 240 q 235 671 112 564 q 535 777 358 777 q 646 766 593 777 q 704 748 676 759 l 779 821 l 833 768 l 734 671 l 722 613 q 693 630 708 623 l 227 173 q 233 162 229 167 q 406 85 285 85 q 517 100 461 85 q 632 144 573 114 l 609 28 q 494 -7 552 4 q 373 -20 436 -20 q 129 77 209 -20 l -14 -64 m 200 254 l 614 660 q 520 672 568 672 q 317 595 399 672 q 208 378 235 518 q 200 254 194 309 "},"Ӟ":{"x_min":2.03125,"x_max":830.890625,"ha":890,"o":"m 328 1268 l 467 1268 l 439 1130 l 302 1130 l 328 1268 m 594 1268 l 731 1268 l 705 1130 l 567 1130 l 594 1268 m 499 1031 q 757 960 665 1031 q 826 768 849 889 q 750 625 809 683 q 598 545 691 567 q 734 457 692 524 q 757 293 776 391 q 591 58 727 137 q 294 -20 455 -20 q 119 2 211 -20 q 2 43 27 24 l 29 184 q 175 109 121 124 q 314 95 229 95 q 521 143 441 95 q 621 293 601 192 q 585 433 638 383 q 400 484 533 484 l 262 484 l 284 597 l 427 597 q 610 637 549 597 q 686 754 672 677 q 655 874 702 832 q 474 916 608 916 q 350 907 383 916 q 168 847 317 899 l 193 980 q 358 1019 276 1008 q 499 1031 440 1031 "},"Ѐ":{"x_min":37.296875,"x_max":874.84375,"ha":878,"o":"m 234 1013 l 874 1013 l 852 898 l 348 898 l 290 597 l 773 597 l 751 482 l 267 482 l 197 115 l 712 115 l 690 0 l 37 0 l 234 1013 m 600 1288 l 700 1109 l 605 1109 l 476 1288 l 600 1288 "},"𝌉":{"x_min":115,"x_max":1120,"ha":1245,"o":"m 119 396 l 518 396 l 523 391 l 523 264 l 518 260 l 119 260 l 115 264 l 115 391 l 119 396 m 716 396 l 1115 396 l 1120 391 l 1120 264 l 1115 260 l 716 260 l 712 264 l 712 391 l 716 396 m 119 657 l 1115 657 l 1120 652 l 1120 525 l 1115 521 l 119 521 l 115 525 l 115 652 l 119 657 m 119 136 l 1115 136 l 1120 131 l 1120 4 l 1115 0 l 119 0 l 115 4 l 115 131 l 119 136 m 119 917 l 1115 917 l 1120 912 l 1120 785 l 1115 781 l 119 781 l 115 785 l 115 912 l 119 917 "},"┦":{"x_min":-13.8125,"x_max":526,"ha":836,"o":"m 363 -420 l 363 336 l -13 336 l -13 453 l 309 453 l 309 1351 l 526 1351 l 526 336 l 472 336 l 472 -420 l 363 -420 "},"⡢":{"x_min":203,"x_max":812,"ha":1015,"o":"m 203 701 l 406 701 l 406 498 l 203 498 l 203 701 m 609 317 l 812 317 l 812 114 l 609 114 l 609 317 m 203 -68 l 406 -68 l 406 -271 l 203 -271 l 203 -68 "},"︈":{"x_min":0,"x_max":0,"ha":0},"ʨ":{"x_min":80.703125,"x_max":1061.328125,"ha":1081,"o":"m 358 975 l 316 760 l 573 760 l 557 676 q 851 778 678 778 q 961 766 908 778 q 1061 730 1013 754 l 1038 614 q 940 658 991 643 q 836 672 890 672 q 632 595 714 672 q 523 379 550 518 q 548 163 496 240 l 552 157 q 768 273 629 273 q 939 106 971 273 q 849 -1 924 26 q 689 -22 795 -22 q 585 -9 632 -22 q 566 -96 577 -43 l 462 -96 q 485 1 473 -43 l 297 1 q 109 55 153 1 q 92 250 64 108 l 172 663 l 80 663 l 99 760 l 191 760 l 233 975 l 358 975 m 624 103 q 722 87 665 87 q 801 91 786 87 q 828 125 823 99 q 749 176 838 176 q 632 117 672 176 q 624 103 628 111 m 425 105 q 391 379 359 211 q 541 663 426 557 l 297 663 l 217 250 q 219 131 199 157 q 318 105 240 105 l 425 105 "},"⡔":{"x_min":203,"x_max":812,"ha":1015,"o":"m 203 317 l 406 317 l 406 114 l 203 114 l 203 317 m 609 701 l 812 701 l 812 498 l 609 498 l 609 701 m 203 -68 l 406 -68 l 406 -271 l 203 -271 l 203 -68 "}}}
